%TF.GenerationSoftware,KiCad,Pcbnew,7.0.8*%
%TF.CreationDate,2024-02-10T11:33:18+00:00*%
%TF.ProjectId,Neptune-32x-315-5818-bypass,4e657074-756e-4652-9d33-32782d333135,rev?*%
%TF.SameCoordinates,Original*%
%TF.FileFunction,Drillmap*%
%TF.FilePolarity,Positive*%
%FSLAX45Y45*%
G04 Gerber Fmt 4.5, Leading zero omitted, Abs format (unit mm)*
G04 Created by KiCad (PCBNEW 7.0.8) date 2024-02-10 11:33:18*
%MOMM*%
%LPD*%
G01*
G04 APERTURE LIST*
%ADD10C,0.200000*%
%ADD11C,0.040000*%
G04 APERTURE END LIST*
D10*
D11*
X12905120Y-8258250D02*
X12945120Y-8298250D01*
X12945120Y-8258250D02*
X12905120Y-8298250D01*
X12923650Y-7814360D02*
X12963650Y-7854360D01*
X12963650Y-7814360D02*
X12923650Y-7854360D01*
X12999820Y-7890530D02*
X13039820Y-7930530D01*
X13039820Y-7890530D02*
X12999820Y-7930530D01*
X13085320Y-7975720D02*
X13125320Y-8015720D01*
X13125320Y-7975720D02*
X13085320Y-8015720D01*
X13089980Y-8461590D02*
X13129980Y-8501590D01*
X13129980Y-8461590D02*
X13089980Y-8501590D01*
X13125010Y-8600350D02*
X13165010Y-8640350D01*
X13165010Y-8600350D02*
X13125010Y-8640350D01*
X13144020Y-7834620D02*
X13184020Y-7874620D01*
X13184020Y-7834620D02*
X13144020Y-7874620D01*
X13151150Y-8771850D02*
X13191150Y-8811850D01*
X13191150Y-8771850D02*
X13151150Y-8811850D01*
X13177360Y-7980520D02*
X13217360Y-8020520D01*
X13217360Y-7980520D02*
X13177360Y-8020520D01*
X13239110Y-7877130D02*
X13279110Y-7917130D01*
X13279110Y-7877130D02*
X13239110Y-7917130D01*
X13260880Y-8961680D02*
X13300880Y-9001680D01*
X13300880Y-8961680D02*
X13260880Y-9001680D01*
X13318920Y-7927490D02*
X13358920Y-7967490D01*
X13358920Y-7927490D02*
X13318920Y-7967490D01*
X13365260Y-8899910D02*
X13405260Y-8939910D01*
X13405260Y-8899910D02*
X13365260Y-8939910D01*
X13603630Y-7944710D02*
X13643630Y-7984710D01*
X13643630Y-7944710D02*
X13603630Y-7984710D01*
X13770790Y-7915050D02*
X13810790Y-7955050D01*
X13810790Y-7915050D02*
X13770790Y-7955050D01*
X13838150Y-8109600D02*
X13878150Y-8149600D01*
X13878150Y-8109600D02*
X13838150Y-8149600D01*
X13906150Y-9312950D02*
X13946150Y-9352950D01*
X13946150Y-9312950D02*
X13906150Y-9352950D01*
X13934360Y-8199880D02*
X13974360Y-8239880D01*
X13974360Y-8199880D02*
X13934360Y-8239880D01*
X13963080Y-9658420D02*
X14003080Y-9698420D01*
X14003080Y-9658420D02*
X13963080Y-9698420D01*
X13994160Y-8690880D02*
X14034160Y-8730880D01*
X14034160Y-8690880D02*
X13994160Y-8730880D01*
X14044100Y-7902680D02*
X14084100Y-7942680D01*
X14084100Y-7902680D02*
X14044100Y-7942680D01*
X14158340Y-7834330D02*
X14198340Y-7874330D01*
X14198340Y-7834330D02*
X14158340Y-7874330D01*
X14269920Y-8400700D02*
X14309920Y-8440700D01*
X14309920Y-8400700D02*
X14269920Y-8440700D01*
X14291560Y-9630490D02*
X14331560Y-9670490D01*
X14331560Y-9630490D02*
X14291560Y-9670490D01*
X14331940Y-8470680D02*
X14371940Y-8510680D01*
X14371940Y-8470680D02*
X14331940Y-8510680D01*
X14373470Y-9139450D02*
X14413470Y-9179450D01*
X14413470Y-9139450D02*
X14373470Y-9179450D01*
X14472910Y-8758240D02*
X14512910Y-8798240D01*
X14512910Y-8758240D02*
X14472910Y-8798240D01*
X14477680Y-9458200D02*
X14517680Y-9498200D01*
X14517680Y-9458200D02*
X14477680Y-9498200D01*
X14527470Y-9308760D02*
X14567470Y-9348760D01*
X14567470Y-9308760D02*
X14527470Y-9348760D01*
X14531290Y-8347790D02*
X14571290Y-8387790D01*
X14571290Y-8347790D02*
X14531290Y-8387790D01*
X14599770Y-9497740D02*
X14639770Y-9537740D01*
X14639770Y-9497740D02*
X14599770Y-9537740D01*
X14658000Y-8393020D02*
X14698000Y-8433020D01*
X14698000Y-8393020D02*
X14658000Y-8433020D01*
X14674790Y-9808020D02*
X14714790Y-9848020D01*
X14714790Y-9808020D02*
X14674790Y-9848020D01*
X14692920Y-8911920D02*
X14732920Y-8951920D01*
X14732920Y-8911920D02*
X14692920Y-8951920D01*
X14746640Y-9190980D02*
X14786640Y-9230980D01*
X14786640Y-9190980D02*
X14746640Y-9230980D01*
X14746640Y-9308240D02*
X14786640Y-9348240D01*
X14786640Y-9308240D02*
X14746640Y-9348240D01*
D10*
X12749457Y-10430724D02*
X12749457Y-10230724D01*
X12749457Y-10230724D02*
X12797076Y-10230724D01*
X12797076Y-10230724D02*
X12825647Y-10240248D01*
X12825647Y-10240248D02*
X12844695Y-10259295D01*
X12844695Y-10259295D02*
X12854219Y-10278343D01*
X12854219Y-10278343D02*
X12863742Y-10316438D01*
X12863742Y-10316438D02*
X12863742Y-10345010D01*
X12863742Y-10345010D02*
X12854219Y-10383105D01*
X12854219Y-10383105D02*
X12844695Y-10402152D01*
X12844695Y-10402152D02*
X12825647Y-10421200D01*
X12825647Y-10421200D02*
X12797076Y-10430724D01*
X12797076Y-10430724D02*
X12749457Y-10430724D01*
X12949457Y-10430724D02*
X12949457Y-10297390D01*
X12949457Y-10335486D02*
X12958981Y-10316438D01*
X12958981Y-10316438D02*
X12968504Y-10306914D01*
X12968504Y-10306914D02*
X12987552Y-10297390D01*
X12987552Y-10297390D02*
X13006600Y-10297390D01*
X13073266Y-10430724D02*
X13073266Y-10297390D01*
X13073266Y-10230724D02*
X13063742Y-10240248D01*
X13063742Y-10240248D02*
X13073266Y-10249771D01*
X13073266Y-10249771D02*
X13082790Y-10240248D01*
X13082790Y-10240248D02*
X13073266Y-10230724D01*
X13073266Y-10230724D02*
X13073266Y-10249771D01*
X13197076Y-10430724D02*
X13178028Y-10421200D01*
X13178028Y-10421200D02*
X13168504Y-10402152D01*
X13168504Y-10402152D02*
X13168504Y-10230724D01*
X13301838Y-10430724D02*
X13282790Y-10421200D01*
X13282790Y-10421200D02*
X13273266Y-10402152D01*
X13273266Y-10402152D02*
X13273266Y-10230724D01*
X13530409Y-10430724D02*
X13530409Y-10230724D01*
X13530409Y-10230724D02*
X13597076Y-10373581D01*
X13597076Y-10373581D02*
X13663742Y-10230724D01*
X13663742Y-10230724D02*
X13663742Y-10430724D01*
X13844695Y-10430724D02*
X13844695Y-10325962D01*
X13844695Y-10325962D02*
X13835171Y-10306914D01*
X13835171Y-10306914D02*
X13816123Y-10297390D01*
X13816123Y-10297390D02*
X13778028Y-10297390D01*
X13778028Y-10297390D02*
X13758981Y-10306914D01*
X13844695Y-10421200D02*
X13825647Y-10430724D01*
X13825647Y-10430724D02*
X13778028Y-10430724D01*
X13778028Y-10430724D02*
X13758981Y-10421200D01*
X13758981Y-10421200D02*
X13749457Y-10402152D01*
X13749457Y-10402152D02*
X13749457Y-10383105D01*
X13749457Y-10383105D02*
X13758981Y-10364057D01*
X13758981Y-10364057D02*
X13778028Y-10354533D01*
X13778028Y-10354533D02*
X13825647Y-10354533D01*
X13825647Y-10354533D02*
X13844695Y-10345010D01*
X13939933Y-10297390D02*
X13939933Y-10497390D01*
X13939933Y-10306914D02*
X13958981Y-10297390D01*
X13958981Y-10297390D02*
X13997076Y-10297390D01*
X13997076Y-10297390D02*
X14016123Y-10306914D01*
X14016123Y-10306914D02*
X14025647Y-10316438D01*
X14025647Y-10316438D02*
X14035171Y-10335486D01*
X14035171Y-10335486D02*
X14035171Y-10392629D01*
X14035171Y-10392629D02*
X14025647Y-10411676D01*
X14025647Y-10411676D02*
X14016123Y-10421200D01*
X14016123Y-10421200D02*
X13997076Y-10430724D01*
X13997076Y-10430724D02*
X13958981Y-10430724D01*
X13958981Y-10430724D02*
X13939933Y-10421200D01*
X14120885Y-10411676D02*
X14130409Y-10421200D01*
X14130409Y-10421200D02*
X14120885Y-10430724D01*
X14120885Y-10430724D02*
X14111362Y-10421200D01*
X14111362Y-10421200D02*
X14120885Y-10411676D01*
X14120885Y-10411676D02*
X14120885Y-10430724D01*
X14120885Y-10306914D02*
X14130409Y-10316438D01*
X14130409Y-10316438D02*
X14120885Y-10325962D01*
X14120885Y-10325962D02*
X14111362Y-10316438D01*
X14111362Y-10316438D02*
X14120885Y-10306914D01*
X14120885Y-10306914D02*
X14120885Y-10325962D01*
D11*
X12448680Y-10739240D02*
X12488680Y-10779240D01*
X12488680Y-10739240D02*
X12448680Y-10779240D01*
D10*
X12787552Y-10650724D02*
X12806600Y-10650724D01*
X12806600Y-10650724D02*
X12825647Y-10660248D01*
X12825647Y-10660248D02*
X12835171Y-10669771D01*
X12835171Y-10669771D02*
X12844695Y-10688819D01*
X12844695Y-10688819D02*
X12854219Y-10726914D01*
X12854219Y-10726914D02*
X12854219Y-10774533D01*
X12854219Y-10774533D02*
X12844695Y-10812629D01*
X12844695Y-10812629D02*
X12835171Y-10831676D01*
X12835171Y-10831676D02*
X12825647Y-10841200D01*
X12825647Y-10841200D02*
X12806600Y-10850724D01*
X12806600Y-10850724D02*
X12787552Y-10850724D01*
X12787552Y-10850724D02*
X12768504Y-10841200D01*
X12768504Y-10841200D02*
X12758981Y-10831676D01*
X12758981Y-10831676D02*
X12749457Y-10812629D01*
X12749457Y-10812629D02*
X12739933Y-10774533D01*
X12739933Y-10774533D02*
X12739933Y-10726914D01*
X12739933Y-10726914D02*
X12749457Y-10688819D01*
X12749457Y-10688819D02*
X12758981Y-10669771D01*
X12758981Y-10669771D02*
X12768504Y-10660248D01*
X12768504Y-10660248D02*
X12787552Y-10650724D01*
X12939933Y-10831676D02*
X12949457Y-10841200D01*
X12949457Y-10841200D02*
X12939933Y-10850724D01*
X12939933Y-10850724D02*
X12930409Y-10841200D01*
X12930409Y-10841200D02*
X12939933Y-10831676D01*
X12939933Y-10831676D02*
X12939933Y-10850724D01*
X13120885Y-10717390D02*
X13120885Y-10850724D01*
X13073266Y-10641200D02*
X13025647Y-10784057D01*
X13025647Y-10784057D02*
X13149457Y-10784057D01*
X13263742Y-10650724D02*
X13282790Y-10650724D01*
X13282790Y-10650724D02*
X13301838Y-10660248D01*
X13301838Y-10660248D02*
X13311362Y-10669771D01*
X13311362Y-10669771D02*
X13320885Y-10688819D01*
X13320885Y-10688819D02*
X13330409Y-10726914D01*
X13330409Y-10726914D02*
X13330409Y-10774533D01*
X13330409Y-10774533D02*
X13320885Y-10812629D01*
X13320885Y-10812629D02*
X13311362Y-10831676D01*
X13311362Y-10831676D02*
X13301838Y-10841200D01*
X13301838Y-10841200D02*
X13282790Y-10850724D01*
X13282790Y-10850724D02*
X13263742Y-10850724D01*
X13263742Y-10850724D02*
X13244695Y-10841200D01*
X13244695Y-10841200D02*
X13235171Y-10831676D01*
X13235171Y-10831676D02*
X13225647Y-10812629D01*
X13225647Y-10812629D02*
X13216123Y-10774533D01*
X13216123Y-10774533D02*
X13216123Y-10726914D01*
X13216123Y-10726914D02*
X13225647Y-10688819D01*
X13225647Y-10688819D02*
X13235171Y-10669771D01*
X13235171Y-10669771D02*
X13244695Y-10660248D01*
X13244695Y-10660248D02*
X13263742Y-10650724D01*
X13454219Y-10650724D02*
X13473266Y-10650724D01*
X13473266Y-10650724D02*
X13492314Y-10660248D01*
X13492314Y-10660248D02*
X13501838Y-10669771D01*
X13501838Y-10669771D02*
X13511362Y-10688819D01*
X13511362Y-10688819D02*
X13520885Y-10726914D01*
X13520885Y-10726914D02*
X13520885Y-10774533D01*
X13520885Y-10774533D02*
X13511362Y-10812629D01*
X13511362Y-10812629D02*
X13501838Y-10831676D01*
X13501838Y-10831676D02*
X13492314Y-10841200D01*
X13492314Y-10841200D02*
X13473266Y-10850724D01*
X13473266Y-10850724D02*
X13454219Y-10850724D01*
X13454219Y-10850724D02*
X13435171Y-10841200D01*
X13435171Y-10841200D02*
X13425647Y-10831676D01*
X13425647Y-10831676D02*
X13416123Y-10812629D01*
X13416123Y-10812629D02*
X13406600Y-10774533D01*
X13406600Y-10774533D02*
X13406600Y-10726914D01*
X13406600Y-10726914D02*
X13416123Y-10688819D01*
X13416123Y-10688819D02*
X13425647Y-10669771D01*
X13425647Y-10669771D02*
X13435171Y-10660248D01*
X13435171Y-10660248D02*
X13454219Y-10650724D01*
X13606600Y-10850724D02*
X13606600Y-10717390D01*
X13606600Y-10736438D02*
X13616123Y-10726914D01*
X13616123Y-10726914D02*
X13635171Y-10717390D01*
X13635171Y-10717390D02*
X13663743Y-10717390D01*
X13663743Y-10717390D02*
X13682790Y-10726914D01*
X13682790Y-10726914D02*
X13692314Y-10745962D01*
X13692314Y-10745962D02*
X13692314Y-10850724D01*
X13692314Y-10745962D02*
X13701838Y-10726914D01*
X13701838Y-10726914D02*
X13720885Y-10717390D01*
X13720885Y-10717390D02*
X13749457Y-10717390D01*
X13749457Y-10717390D02*
X13768504Y-10726914D01*
X13768504Y-10726914D02*
X13778028Y-10745962D01*
X13778028Y-10745962D02*
X13778028Y-10850724D01*
X13873266Y-10850724D02*
X13873266Y-10717390D01*
X13873266Y-10736438D02*
X13882790Y-10726914D01*
X13882790Y-10726914D02*
X13901838Y-10717390D01*
X13901838Y-10717390D02*
X13930409Y-10717390D01*
X13930409Y-10717390D02*
X13949457Y-10726914D01*
X13949457Y-10726914D02*
X13958981Y-10745962D01*
X13958981Y-10745962D02*
X13958981Y-10850724D01*
X13958981Y-10745962D02*
X13968504Y-10726914D01*
X13968504Y-10726914D02*
X13987552Y-10717390D01*
X13987552Y-10717390D02*
X14016123Y-10717390D01*
X14016123Y-10717390D02*
X14035171Y-10726914D01*
X14035171Y-10726914D02*
X14044695Y-10745962D01*
X14044695Y-10745962D02*
X14044695Y-10850724D01*
X14435171Y-10641200D02*
X14263743Y-10898343D01*
X14692314Y-10650724D02*
X14711362Y-10650724D01*
X14711362Y-10650724D02*
X14730409Y-10660248D01*
X14730409Y-10660248D02*
X14739933Y-10669771D01*
X14739933Y-10669771D02*
X14749457Y-10688819D01*
X14749457Y-10688819D02*
X14758981Y-10726914D01*
X14758981Y-10726914D02*
X14758981Y-10774533D01*
X14758981Y-10774533D02*
X14749457Y-10812629D01*
X14749457Y-10812629D02*
X14739933Y-10831676D01*
X14739933Y-10831676D02*
X14730409Y-10841200D01*
X14730409Y-10841200D02*
X14711362Y-10850724D01*
X14711362Y-10850724D02*
X14692314Y-10850724D01*
X14692314Y-10850724D02*
X14673266Y-10841200D01*
X14673266Y-10841200D02*
X14663743Y-10831676D01*
X14663743Y-10831676D02*
X14654219Y-10812629D01*
X14654219Y-10812629D02*
X14644695Y-10774533D01*
X14644695Y-10774533D02*
X14644695Y-10726914D01*
X14644695Y-10726914D02*
X14654219Y-10688819D01*
X14654219Y-10688819D02*
X14663743Y-10669771D01*
X14663743Y-10669771D02*
X14673266Y-10660248D01*
X14673266Y-10660248D02*
X14692314Y-10650724D01*
X14844695Y-10831676D02*
X14854219Y-10841200D01*
X14854219Y-10841200D02*
X14844695Y-10850724D01*
X14844695Y-10850724D02*
X14835171Y-10841200D01*
X14835171Y-10841200D02*
X14844695Y-10831676D01*
X14844695Y-10831676D02*
X14844695Y-10850724D01*
X14978028Y-10650724D02*
X14997076Y-10650724D01*
X14997076Y-10650724D02*
X15016124Y-10660248D01*
X15016124Y-10660248D02*
X15025647Y-10669771D01*
X15025647Y-10669771D02*
X15035171Y-10688819D01*
X15035171Y-10688819D02*
X15044695Y-10726914D01*
X15044695Y-10726914D02*
X15044695Y-10774533D01*
X15044695Y-10774533D02*
X15035171Y-10812629D01*
X15035171Y-10812629D02*
X15025647Y-10831676D01*
X15025647Y-10831676D02*
X15016124Y-10841200D01*
X15016124Y-10841200D02*
X14997076Y-10850724D01*
X14997076Y-10850724D02*
X14978028Y-10850724D01*
X14978028Y-10850724D02*
X14958981Y-10841200D01*
X14958981Y-10841200D02*
X14949457Y-10831676D01*
X14949457Y-10831676D02*
X14939933Y-10812629D01*
X14939933Y-10812629D02*
X14930409Y-10774533D01*
X14930409Y-10774533D02*
X14930409Y-10726914D01*
X14930409Y-10726914D02*
X14939933Y-10688819D01*
X14939933Y-10688819D02*
X14949457Y-10669771D01*
X14949457Y-10669771D02*
X14958981Y-10660248D01*
X14958981Y-10660248D02*
X14978028Y-10650724D01*
X15235171Y-10850724D02*
X15120886Y-10850724D01*
X15178028Y-10850724D02*
X15178028Y-10650724D01*
X15178028Y-10650724D02*
X15158981Y-10679295D01*
X15158981Y-10679295D02*
X15139933Y-10698343D01*
X15139933Y-10698343D02*
X15120886Y-10707867D01*
X15416124Y-10650724D02*
X15320886Y-10650724D01*
X15320886Y-10650724D02*
X15311362Y-10745962D01*
X15311362Y-10745962D02*
X15320886Y-10736438D01*
X15320886Y-10736438D02*
X15339933Y-10726914D01*
X15339933Y-10726914D02*
X15387552Y-10726914D01*
X15387552Y-10726914D02*
X15406600Y-10736438D01*
X15406600Y-10736438D02*
X15416124Y-10745962D01*
X15416124Y-10745962D02*
X15425647Y-10765010D01*
X15425647Y-10765010D02*
X15425647Y-10812629D01*
X15425647Y-10812629D02*
X15416124Y-10831676D01*
X15416124Y-10831676D02*
X15406600Y-10841200D01*
X15406600Y-10841200D02*
X15387552Y-10850724D01*
X15387552Y-10850724D02*
X15339933Y-10850724D01*
X15339933Y-10850724D02*
X15320886Y-10841200D01*
X15320886Y-10841200D02*
X15311362Y-10831676D01*
X15492314Y-10650724D02*
X15625647Y-10650724D01*
X15625647Y-10650724D02*
X15539933Y-10850724D01*
X15692314Y-10650724D02*
X15692314Y-10688819D01*
X15768505Y-10650724D02*
X15768505Y-10688819D01*
X16063743Y-10926914D02*
X16054219Y-10917390D01*
X16054219Y-10917390D02*
X16035171Y-10888819D01*
X16035171Y-10888819D02*
X16025648Y-10869771D01*
X16025648Y-10869771D02*
X16016124Y-10841200D01*
X16016124Y-10841200D02*
X16006600Y-10793581D01*
X16006600Y-10793581D02*
X16006600Y-10755486D01*
X16006600Y-10755486D02*
X16016124Y-10707867D01*
X16016124Y-10707867D02*
X16025648Y-10679295D01*
X16025648Y-10679295D02*
X16035171Y-10660248D01*
X16035171Y-10660248D02*
X16054219Y-10631676D01*
X16054219Y-10631676D02*
X16063743Y-10622152D01*
X16120886Y-10650724D02*
X16244695Y-10650724D01*
X16244695Y-10650724D02*
X16178028Y-10726914D01*
X16178028Y-10726914D02*
X16206600Y-10726914D01*
X16206600Y-10726914D02*
X16225648Y-10736438D01*
X16225648Y-10736438D02*
X16235171Y-10745962D01*
X16235171Y-10745962D02*
X16244695Y-10765010D01*
X16244695Y-10765010D02*
X16244695Y-10812629D01*
X16244695Y-10812629D02*
X16235171Y-10831676D01*
X16235171Y-10831676D02*
X16225648Y-10841200D01*
X16225648Y-10841200D02*
X16206600Y-10850724D01*
X16206600Y-10850724D02*
X16149457Y-10850724D01*
X16149457Y-10850724D02*
X16130409Y-10841200D01*
X16130409Y-10841200D02*
X16120886Y-10831676D01*
X16416124Y-10650724D02*
X16378028Y-10650724D01*
X16378028Y-10650724D02*
X16358981Y-10660248D01*
X16358981Y-10660248D02*
X16349457Y-10669771D01*
X16349457Y-10669771D02*
X16330409Y-10698343D01*
X16330409Y-10698343D02*
X16320886Y-10736438D01*
X16320886Y-10736438D02*
X16320886Y-10812629D01*
X16320886Y-10812629D02*
X16330409Y-10831676D01*
X16330409Y-10831676D02*
X16339933Y-10841200D01*
X16339933Y-10841200D02*
X16358981Y-10850724D01*
X16358981Y-10850724D02*
X16397076Y-10850724D01*
X16397076Y-10850724D02*
X16416124Y-10841200D01*
X16416124Y-10841200D02*
X16425648Y-10831676D01*
X16425648Y-10831676D02*
X16435171Y-10812629D01*
X16435171Y-10812629D02*
X16435171Y-10765010D01*
X16435171Y-10765010D02*
X16425648Y-10745962D01*
X16425648Y-10745962D02*
X16416124Y-10736438D01*
X16416124Y-10736438D02*
X16397076Y-10726914D01*
X16397076Y-10726914D02*
X16358981Y-10726914D01*
X16358981Y-10726914D02*
X16339933Y-10736438D01*
X16339933Y-10736438D02*
X16330409Y-10745962D01*
X16330409Y-10745962D02*
X16320886Y-10765010D01*
X16673267Y-10850724D02*
X16673267Y-10650724D01*
X16758981Y-10850724D02*
X16758981Y-10745962D01*
X16758981Y-10745962D02*
X16749457Y-10726914D01*
X16749457Y-10726914D02*
X16730410Y-10717390D01*
X16730410Y-10717390D02*
X16701838Y-10717390D01*
X16701838Y-10717390D02*
X16682790Y-10726914D01*
X16682790Y-10726914D02*
X16673267Y-10736438D01*
X16882791Y-10850724D02*
X16863743Y-10841200D01*
X16863743Y-10841200D02*
X16854219Y-10831676D01*
X16854219Y-10831676D02*
X16844695Y-10812629D01*
X16844695Y-10812629D02*
X16844695Y-10755486D01*
X16844695Y-10755486D02*
X16854219Y-10736438D01*
X16854219Y-10736438D02*
X16863743Y-10726914D01*
X16863743Y-10726914D02*
X16882791Y-10717390D01*
X16882791Y-10717390D02*
X16911362Y-10717390D01*
X16911362Y-10717390D02*
X16930410Y-10726914D01*
X16930410Y-10726914D02*
X16939933Y-10736438D01*
X16939933Y-10736438D02*
X16949457Y-10755486D01*
X16949457Y-10755486D02*
X16949457Y-10812629D01*
X16949457Y-10812629D02*
X16939933Y-10831676D01*
X16939933Y-10831676D02*
X16930410Y-10841200D01*
X16930410Y-10841200D02*
X16911362Y-10850724D01*
X16911362Y-10850724D02*
X16882791Y-10850724D01*
X17063743Y-10850724D02*
X17044695Y-10841200D01*
X17044695Y-10841200D02*
X17035172Y-10822152D01*
X17035172Y-10822152D02*
X17035172Y-10650724D01*
X17216124Y-10841200D02*
X17197076Y-10850724D01*
X17197076Y-10850724D02*
X17158981Y-10850724D01*
X17158981Y-10850724D02*
X17139933Y-10841200D01*
X17139933Y-10841200D02*
X17130410Y-10822152D01*
X17130410Y-10822152D02*
X17130410Y-10745962D01*
X17130410Y-10745962D02*
X17139933Y-10726914D01*
X17139933Y-10726914D02*
X17158981Y-10717390D01*
X17158981Y-10717390D02*
X17197076Y-10717390D01*
X17197076Y-10717390D02*
X17216124Y-10726914D01*
X17216124Y-10726914D02*
X17225648Y-10745962D01*
X17225648Y-10745962D02*
X17225648Y-10765010D01*
X17225648Y-10765010D02*
X17130410Y-10784057D01*
X17301838Y-10841200D02*
X17320886Y-10850724D01*
X17320886Y-10850724D02*
X17358981Y-10850724D01*
X17358981Y-10850724D02*
X17378029Y-10841200D01*
X17378029Y-10841200D02*
X17387553Y-10822152D01*
X17387553Y-10822152D02*
X17387553Y-10812629D01*
X17387553Y-10812629D02*
X17378029Y-10793581D01*
X17378029Y-10793581D02*
X17358981Y-10784057D01*
X17358981Y-10784057D02*
X17330410Y-10784057D01*
X17330410Y-10784057D02*
X17311362Y-10774533D01*
X17311362Y-10774533D02*
X17301838Y-10755486D01*
X17301838Y-10755486D02*
X17301838Y-10745962D01*
X17301838Y-10745962D02*
X17311362Y-10726914D01*
X17311362Y-10726914D02*
X17330410Y-10717390D01*
X17330410Y-10717390D02*
X17358981Y-10717390D01*
X17358981Y-10717390D02*
X17378029Y-10726914D01*
X17454219Y-10926914D02*
X17463743Y-10917390D01*
X17463743Y-10917390D02*
X17482791Y-10888819D01*
X17482791Y-10888819D02*
X17492314Y-10869771D01*
X17492314Y-10869771D02*
X17501838Y-10841200D01*
X17501838Y-10841200D02*
X17511362Y-10793581D01*
X17511362Y-10793581D02*
X17511362Y-10755486D01*
X17511362Y-10755486D02*
X17501838Y-10707867D01*
X17501838Y-10707867D02*
X17492314Y-10679295D01*
X17492314Y-10679295D02*
X17482791Y-10660248D01*
X17482791Y-10660248D02*
X17463743Y-10631676D01*
X17463743Y-10631676D02*
X17454219Y-10622152D01*
M02*
