M48
; DRILL file {KiCad 7.0.8} date 2024 January 22, Monday 11:33:53
; FORMAT={-:-/ absolute / metric / decimal}
; #@! TF.CreationDate,2024-01-22T11:33:53+00:00
; #@! TF.GenerationSoftware,Kicad,Pcbnew,7.0.8
; #@! TF.FileFunction,Plated,1,2,PTH
FMAT,2
METRIC
; #@! TA.AperFunction,Plated,PTH,ViaDrill
T1C0.400
; #@! TA.AperFunction,Plated,PTH,ComponentDrill
T2C0.400
%
G90
G05
T1
X128.273Y-82.284
X132.858Y-79.026
X133.854Y-80.235
X136.305Y-89.817
X138.661Y-84.114
X141.195Y-82.165
X142.679Y-94.06
X147.251Y-91.703
X147.513Y-93.883
X148.162Y-94.943
T2
X124.454Y-78.2
X124.454Y-78.7
X124.454Y-79.2
X124.454Y-79.7
X124.454Y-80.2
X124.454Y-80.7
X124.454Y-81.2
X124.454Y-81.7
X124.454Y-82.2
X124.454Y-82.7
X124.454Y-83.2
X124.454Y-83.7
X124.454Y-84.2
X124.454Y-84.7
X124.454Y-85.2
X124.454Y-85.7
X124.454Y-86.2
X124.454Y-86.7
X124.454Y-87.2
X124.454Y-87.7
X124.454Y-88.2
X124.454Y-88.7
X124.454Y-89.2
X124.454Y-89.7
X124.454Y-90.2
X124.454Y-90.7
X124.454Y-91.2
X124.454Y-91.7
X124.454Y-92.2
X124.454Y-92.7
X124.454Y-93.2
X124.454Y-93.7
X124.454Y-94.2
X124.454Y-94.7
X124.454Y-95.2
X124.454Y-95.7
X124.454Y-96.2
X124.454Y-96.7
X124.454Y-97.2
X124.454Y-97.7
X124.454Y-98.2
X124.454Y-98.7
X124.454Y-99.2
X124.454Y-99.7
X126.379Y-76.275
X126.379Y-101.625
X126.879Y-76.275
X126.879Y-101.625
X127.379Y-76.275
X127.379Y-101.625
X127.879Y-76.275
X127.879Y-101.625
X128.379Y-76.275
X128.379Y-101.625
X128.879Y-76.275
X128.879Y-101.625
X129.379Y-76.275
X129.379Y-101.625
X129.879Y-76.275
X129.879Y-101.625
X130.379Y-76.275
X130.379Y-101.625
X130.879Y-76.275
X130.879Y-101.625
X131.379Y-76.275
X131.379Y-101.625
X131.879Y-76.275
X131.879Y-101.625
X132.379Y-76.275
X132.379Y-101.625
X132.879Y-76.275
X132.879Y-101.625
X133.379Y-76.275
X133.379Y-101.625
X133.879Y-76.275
X133.879Y-101.625
X134.379Y-76.275
X134.379Y-101.625
X134.879Y-76.275
X134.879Y-101.625
X135.379Y-76.275
X135.379Y-101.625
X135.879Y-76.275
X135.879Y-101.625
X136.379Y-76.275
X136.379Y-101.625
X136.879Y-76.275
X136.879Y-101.625
X137.379Y-76.275
X137.379Y-101.625
X137.879Y-76.275
X137.879Y-101.625
X138.379Y-76.275
X138.379Y-101.625
X138.879Y-76.275
X138.879Y-101.625
X139.379Y-76.275
X139.379Y-101.625
X139.879Y-76.275
X139.879Y-101.625
X140.379Y-76.275
X140.379Y-101.625
X140.879Y-76.275
X140.879Y-101.625
X141.379Y-76.275
X141.379Y-101.625
X141.879Y-76.275
X141.879Y-101.625
X142.379Y-76.275
X142.379Y-101.625
X142.879Y-76.275
X142.879Y-101.625
X143.379Y-76.275
X143.379Y-101.625
X143.879Y-76.275
X143.879Y-101.625
X144.379Y-76.275
X144.379Y-101.625
X144.879Y-76.275
X144.879Y-101.625
X145.379Y-76.275
X145.379Y-101.625
X145.879Y-76.275
X145.879Y-101.625
X146.379Y-76.275
X146.379Y-101.625
X146.879Y-76.275
X146.879Y-101.625
X147.379Y-76.275
X147.379Y-101.625
X147.879Y-76.275
X147.879Y-101.625
X149.804Y-78.2
X149.804Y-78.7
X149.804Y-79.2
X149.804Y-79.7
X149.804Y-80.2
X149.804Y-80.7
X149.804Y-81.2
X149.804Y-81.7
X149.804Y-82.2
X149.804Y-82.7
X149.804Y-83.2
X149.804Y-83.7
X149.804Y-84.2
X149.804Y-84.7
X149.804Y-85.2
X149.804Y-85.7
X149.804Y-86.2
X149.804Y-86.7
X149.804Y-87.2
X149.804Y-87.7
X149.804Y-88.2
X149.804Y-88.7
X149.804Y-89.2
X149.804Y-89.7
X149.804Y-90.2
X149.804Y-90.7
X149.804Y-91.2
X149.804Y-91.7
X149.804Y-92.2
X149.804Y-92.7
X149.804Y-93.2
X149.804Y-93.7
X149.804Y-94.2
X149.804Y-94.7
X149.804Y-95.2
X149.804Y-95.7
X149.804Y-96.2
X149.804Y-96.7
X149.804Y-97.2
X149.804Y-97.7
X149.804Y-98.2
X149.804Y-98.7
X149.804Y-99.2
X149.804Y-99.7
T0
M30
