%TF.GenerationSoftware,KiCad,Pcbnew,7.0.8*%
%TF.CreationDate,2024-02-10T11:33:13+00:00*%
%TF.ProjectId,Neptune-32x-315-5818-bypass,4e657074-756e-4652-9d33-32782d333135,rev?*%
%TF.SameCoordinates,Original*%
%TF.FileFunction,Copper,L2,Bot*%
%TF.FilePolarity,Positive*%
%FSLAX46Y46*%
G04 Gerber Fmt 4.6, Leading zero omitted, Abs format (unit mm)*
G04 Created by KiCad (PCBNEW 7.0.8) date 2024-02-10 11:33:13*
%MOMM*%
%LPD*%
G01*
G04 APERTURE LIST*
%TA.AperFunction,ViaPad*%
%ADD10C,0.800000*%
%TD*%
%TA.AperFunction,Conductor*%
%ADD11C,0.127000*%
%TD*%
G04 APERTURE END LIST*
D10*
%TO.N,~{CLWR}*%
X145512900Y-83677900D03*
X146780000Y-84130200D03*
%TO.N,~{CCAS2}*%
X140641000Y-79226800D03*
X144929100Y-87782400D03*
%TO.N,~{CCE0}*%
X141783400Y-78543300D03*
X147129200Y-89319200D03*
%TO.N,~{CCAS0}*%
X137907900Y-79350500D03*
X140141600Y-87108800D03*
%TO.N,VD11*%
X129436500Y-78343600D03*
X129251200Y-82782500D03*
%TO.N,VD3*%
X143519400Y-84906800D03*
X146197700Y-95177400D03*
%TO.N,VD4*%
X144976800Y-94782000D03*
X142899200Y-84207000D03*
%TO.N,VD10*%
X130198200Y-79105300D03*
X131099800Y-84815900D03*
%TO.N,VD2*%
X139543600Y-82198800D03*
X143115600Y-96504900D03*
%TO.N,VD5*%
X133389200Y-79474900D03*
X139261500Y-93329500D03*
%TO.N,VD9*%
X131053200Y-79957200D03*
X131450100Y-86203500D03*
%TO.N,VD1*%
X138581500Y-81296000D03*
X146947900Y-98280200D03*
%TO.N,VD6*%
X132591100Y-78971300D03*
X133852600Y-89199100D03*
%TO.N,VD8*%
X131973600Y-80005200D03*
X131711500Y-87918500D03*
%TO.N,VD0*%
X136236300Y-79647100D03*
X139830800Y-96784200D03*
%TO.N,VD7*%
X131640200Y-78546200D03*
X132808800Y-89816800D03*
%TO.N,VA20*%
X147666400Y-93282400D03*
X147666400Y-92109800D03*
%TO.N,VA19*%
X145474700Y-93287600D03*
X143934700Y-91594500D03*
%TD*%
D11*
%TO.N,~{CLWR}*%
X146327700Y-83677900D02*
X146780000Y-84130200D01*
X145512900Y-83677900D02*
X146327700Y-83677900D01*
%TO.N,~{CCAS2}*%
X144929100Y-83514900D02*
X144929100Y-87782400D01*
X140641000Y-79226800D02*
X144929100Y-83514900D01*
%TO.N,~{CCE0}*%
X147395500Y-89052900D02*
X147129200Y-89319200D01*
X147395500Y-83904700D02*
X147395500Y-89052900D01*
X142034100Y-78543300D02*
X147395500Y-83904700D01*
X141783400Y-78543300D02*
X142034100Y-78543300D01*
%TO.N,~{CCAS0}*%
X137908000Y-79350500D02*
X137907900Y-79350500D01*
X137908000Y-84875200D02*
X137908000Y-79350500D01*
X140141600Y-87108800D02*
X137908000Y-84875200D01*
%TO.N,VD11*%
X129251200Y-78528900D02*
X129436500Y-78343600D01*
X129251200Y-82782500D02*
X129251200Y-78528900D01*
%TO.N,VD3*%
X143519400Y-88369700D02*
X143519400Y-84906800D01*
X146197700Y-91048000D02*
X143519400Y-88369700D01*
X146197700Y-95177400D02*
X146197700Y-91048000D01*
%TO.N,VD4*%
X142899200Y-92704400D02*
X144976800Y-94782000D01*
X142899200Y-84207000D02*
X142899200Y-92704400D01*
%TO.N,VD10*%
X130198200Y-83914300D02*
X131099800Y-84815900D01*
X130198200Y-79105300D02*
X130198200Y-83914300D01*
%TO.N,VD2*%
X140972800Y-94362100D02*
X143115600Y-96504900D01*
X140972800Y-83628000D02*
X140972800Y-94362100D01*
X139543600Y-82198800D02*
X140972800Y-83628000D01*
%TO.N,VD5*%
X133389200Y-87457200D02*
X133389200Y-79474900D01*
X139261500Y-93329500D02*
X133389200Y-87457200D01*
%TO.N,VD9*%
X131694700Y-80598700D02*
X131053200Y-79957200D01*
X131694700Y-85958900D02*
X131694700Y-80598700D01*
X131450100Y-86203500D02*
X131694700Y-85958900D01*
%TO.N,VD1*%
X141220200Y-92552500D02*
X146947900Y-98280200D01*
X141220200Y-82989900D02*
X141220200Y-92552500D01*
X139526300Y-81296000D02*
X141220200Y-82989900D01*
X138581500Y-81296000D02*
X139526300Y-81296000D01*
%TO.N,VD6*%
X132804700Y-79184900D02*
X132591100Y-78971300D01*
X132804700Y-88151200D02*
X132804700Y-79184900D01*
X133852600Y-89199100D02*
X132804700Y-88151200D01*
%TO.N,VD8*%
X132049900Y-80081500D02*
X131973600Y-80005200D01*
X132049900Y-87580100D02*
X132049900Y-80081500D01*
X131711500Y-87918500D02*
X132049900Y-87580100D01*
%TO.N,VD0*%
X139845400Y-96769600D02*
X139830800Y-96784200D01*
X139845400Y-87638100D02*
X139845400Y-96769600D01*
X136236300Y-84029000D02*
X139845400Y-87638100D01*
X136236300Y-79647100D02*
X136236300Y-84029000D01*
%TO.N,VD7*%
X131640200Y-78846200D02*
X131640200Y-78546200D01*
X132557400Y-79763400D02*
X131640200Y-78846200D01*
X132557400Y-89565400D02*
X132557400Y-79763400D01*
X132808800Y-89816800D02*
X132557400Y-89565400D01*
%TO.N,VA20*%
X147666400Y-93282400D02*
X147666400Y-92109800D01*
%TO.N,VA19*%
X145474700Y-93134500D02*
X143934700Y-91594500D01*
X145474700Y-93287600D02*
X145474700Y-93134500D01*
%TD*%
M02*
