%TF.GenerationSoftware,KiCad,Pcbnew,7.0.8*%
%TF.CreationDate,2024-01-22T11:33:51+00:00*%
%TF.ProjectId,Neptune-32x-315-5818-bypass,4e657074-756e-4652-9d33-32782d333135,rev?*%
%TF.SameCoordinates,Original*%
%TF.FileFunction,Legend,Bot*%
%TF.FilePolarity,Positive*%
%FSLAX46Y46*%
G04 Gerber Fmt 4.6, Leading zero omitted, Abs format (unit mm)*
G04 Created by KiCad (PCBNEW 7.0.8) date 2024-01-22 11:33:51*
%MOMM*%
%LPD*%
G01*
G04 APERTURE LIST*
%ADD10O,1.500000X0.450000*%
%ADD11O,0.450000X1.500000*%
G04 APERTURE END LIST*
%LPC*%
D10*
%TO.C,IC1*%
X124453800Y-78200400D03*
X124453800Y-78700400D03*
X124453800Y-79200400D03*
X124453800Y-79700400D03*
X124453800Y-80200400D03*
X124453800Y-80700400D03*
X124453800Y-81200400D03*
X124453800Y-81700400D03*
X124453800Y-82200400D03*
X124453800Y-82700400D03*
X124453800Y-83200400D03*
X124453800Y-83700400D03*
X124453800Y-84200400D03*
X124453800Y-84700400D03*
X124453800Y-85200400D03*
X124453800Y-85700400D03*
X124453800Y-86200400D03*
X124453800Y-86700400D03*
X124453800Y-87200400D03*
X124453800Y-87700400D03*
X124453800Y-88200400D03*
X124453800Y-88700400D03*
X124453800Y-89200400D03*
X124453800Y-89700400D03*
X124453800Y-90200400D03*
X124453800Y-90700400D03*
X124453800Y-91200400D03*
X124453800Y-91700400D03*
X124453800Y-92200400D03*
X124453800Y-92700400D03*
X124453800Y-93200400D03*
X124453800Y-93700400D03*
X124453800Y-94200400D03*
X124453800Y-94700400D03*
X124453800Y-95200400D03*
X124453800Y-95700400D03*
X124453800Y-96200400D03*
X124453800Y-96700400D03*
X124453800Y-97200400D03*
X124453800Y-97700400D03*
X124453800Y-98200400D03*
X124453800Y-98700400D03*
X124453800Y-99200400D03*
X124453800Y-99700400D03*
D11*
X126378800Y-101625400D03*
X126878800Y-101625400D03*
X127378800Y-101625400D03*
X127878800Y-101625400D03*
X128378800Y-101625400D03*
X128878800Y-101625400D03*
X129378800Y-101625400D03*
X129878800Y-101625400D03*
X130378800Y-101625400D03*
X130878800Y-101625400D03*
X131378800Y-101625400D03*
X131878800Y-101625400D03*
X132378800Y-101625400D03*
X132878800Y-101625400D03*
X133378800Y-101625400D03*
X133878800Y-101625400D03*
X134378800Y-101625400D03*
X134878800Y-101625400D03*
X135378800Y-101625400D03*
X135878800Y-101625400D03*
X136378800Y-101625400D03*
X136878800Y-101625400D03*
X137378800Y-101625400D03*
X137878800Y-101625400D03*
X138378800Y-101625400D03*
X138878800Y-101625400D03*
X139378800Y-101625400D03*
X139878800Y-101625400D03*
X140378800Y-101625400D03*
X140878800Y-101625400D03*
X141378800Y-101625400D03*
X141878800Y-101625400D03*
X142378800Y-101625400D03*
X142878800Y-101625400D03*
X143378800Y-101625400D03*
X143878800Y-101625400D03*
X144378800Y-101625400D03*
X144878800Y-101625400D03*
X145378800Y-101625400D03*
X145878800Y-101625400D03*
X146378800Y-101625400D03*
X146878800Y-101625400D03*
X147378800Y-101625400D03*
X147878800Y-101625400D03*
D10*
X149803800Y-99700400D03*
X149803800Y-99200400D03*
X149803800Y-98700400D03*
X149803800Y-98200400D03*
X149803800Y-97700400D03*
X149803800Y-97200400D03*
X149803800Y-96700400D03*
X149803800Y-96200400D03*
X149803800Y-95700400D03*
X149803800Y-95200400D03*
X149803800Y-94700400D03*
X149803800Y-94200400D03*
X149803800Y-93700400D03*
X149803800Y-93200400D03*
X149803800Y-92700400D03*
X149803800Y-92200400D03*
X149803800Y-91700400D03*
X149803800Y-91200400D03*
X149803800Y-90700400D03*
X149803800Y-90200400D03*
X149803800Y-89700400D03*
X149803800Y-89200400D03*
X149803800Y-88700400D03*
X149803800Y-88200400D03*
X149803800Y-87700400D03*
X149803800Y-87200400D03*
X149803800Y-86700400D03*
X149803800Y-86200400D03*
X149803800Y-85700400D03*
X149803800Y-85200400D03*
X149803800Y-84700400D03*
X149803800Y-84200400D03*
X149803800Y-83700400D03*
X149803800Y-83200400D03*
X149803800Y-82700400D03*
X149803800Y-82200400D03*
X149803800Y-81700400D03*
X149803800Y-81200400D03*
X149803800Y-80700400D03*
X149803800Y-80200400D03*
X149803800Y-79700400D03*
X149803800Y-79200400D03*
X149803800Y-78700400D03*
X149803800Y-78200400D03*
D11*
X147878800Y-76275400D03*
X147378800Y-76275400D03*
X146878800Y-76275400D03*
X146378800Y-76275400D03*
X145878800Y-76275400D03*
X145378800Y-76275400D03*
X144878800Y-76275400D03*
X144378800Y-76275400D03*
X143878800Y-76275400D03*
X143378800Y-76275400D03*
X142878800Y-76275400D03*
X142378800Y-76275400D03*
X141878800Y-76275400D03*
X141378800Y-76275400D03*
X140878800Y-76275400D03*
X140378800Y-76275400D03*
X139878800Y-76275400D03*
X139378800Y-76275400D03*
X138878800Y-76275400D03*
X138378800Y-76275400D03*
X137878800Y-76275400D03*
X137378800Y-76275400D03*
X136878800Y-76275400D03*
X136378800Y-76275400D03*
X135878800Y-76275400D03*
X135378800Y-76275400D03*
X134878800Y-76275400D03*
X134378800Y-76275400D03*
X133878800Y-76275400D03*
X133378800Y-76275400D03*
X132878800Y-76275400D03*
X132378800Y-76275400D03*
X131878800Y-76275400D03*
X131378800Y-76275400D03*
X130878800Y-76275400D03*
X130378800Y-76275400D03*
X129878800Y-76275400D03*
X129378800Y-76275400D03*
X128878800Y-76275400D03*
X128378800Y-76275400D03*
X127878800Y-76275400D03*
X127378800Y-76275400D03*
X126878800Y-76275400D03*
X126378800Y-76275400D03*
%TD*%
%LPD*%
M02*
