M48
; DRILL file {KiCad 7.0.8} date 2024 February 10, Saturday 11:33:17
; FORMAT={-:-/ absolute / metric / decimal}
; #@! TF.CreationDate,2024-02-10T11:33:17+00:00
; #@! TF.GenerationSoftware,Kicad,Pcbnew,7.0.8
; #@! TF.FileFunction,Plated,1,2,PTH
FMAT,2
METRIC
; #@! TA.AperFunction,Plated,PTH,ViaDrill
T1C0.400
%
G90
G05
T1
X129.251Y-82.782
X129.436Y-78.344
X130.198Y-79.105
X131.053Y-79.957
X131.1Y-84.816
X131.45Y-86.203
X131.64Y-78.546
X131.712Y-87.918
X131.974Y-80.005
X132.591Y-78.971
X132.809Y-89.817
X133.389Y-79.475
X133.853Y-89.199
X136.236Y-79.647
X137.908Y-79.35
X138.582Y-81.296
X139.261Y-93.329
X139.544Y-82.199
X139.831Y-96.784
X140.142Y-87.109
X140.641Y-79.227
X141.783Y-78.543
X142.899Y-84.207
X143.116Y-96.505
X143.519Y-84.907
X143.935Y-91.594
X144.929Y-87.782
X144.977Y-94.782
X145.475Y-93.288
X145.513Y-83.678
X146.198Y-95.177
X146.78Y-84.13
X146.948Y-98.28
X147.129Y-89.319
X147.666Y-92.11
X147.666Y-93.282
T0
M30
