M48
; DRILL file {KiCad 7.0.8} date 2024 February 10, Saturday 22:04:54
; FORMAT={-:-/ absolute / metric / decimal}
; #@! TF.CreationDate,2024-02-10T22:04:54+01:00
; #@! TF.GenerationSoftware,Kicad,Pcbnew,7.0.8
; #@! TF.FileFunction,Plated,1,4,PTH
FMAT,2
METRIC
; #@! TA.AperFunction,Plated,PTH,ViaDrill
T1C0.300
; #@! TA.AperFunction,Plated,PTH,ViaDrill
T2C0.400
; #@! TA.AperFunction,Plated,PTH,ViaDrill
T3C0.600
; #@! TA.AperFunction,Plated,PTH,ComponentDrill
T4C0.700
; #@! TA.AperFunction,Plated,PTH,ComponentDrill
T5C0.800
; #@! TA.AperFunction,Plated,PTH,ComponentDrill
T6C0.900
; #@! TA.AperFunction,Plated,PTH,ComponentDrill
T7C1.000
; #@! TA.AperFunction,Plated,PTH,ComponentDrill
T8C1.200
; #@! TA.AperFunction,Plated,PTH,ComponentDrill
T9C1.250
; #@! TA.AperFunction,Plated,PTH,ComponentDrill
T10C1.400
; #@! TA.AperFunction,Plated,PTH,ComponentDrill
T11C1.500
%
G90
G05
T1
X137.8Y-137.85
X139.025Y-97.325
X140.345Y-77.55
X141.136Y-77.662
X141.85Y-175.875
X142.327Y-77.224
X142.5Y-174.625
X142.6Y-77.975
X142.625Y-176.675
X145.487Y-186.387
X146.85Y-186.8
X147.35Y-123.975
X148.125Y-183.75
X148.525Y-185.15
X148.725Y-182.7
X149.375Y-171.125
X149.537Y-185.162
X149.537Y-187.213
X151.0Y-187.6
X151.45Y-164.061
X151.675Y-189.575
X152.275Y-90.862
X152.4Y-163.95
X152.417Y-154.616
X152.55Y-168.125
X152.554Y-155.404
X152.6Y-150.1
X152.875Y-171.625
X152.9Y-128.375
X153.128Y-168.749
X153.329Y-155.601
X153.4Y-163.85
X153.45Y-186.4
X153.6Y-185.175
X153.65Y-96.4
X154.325Y-90.9
X154.5Y-163.275
X154.525Y-172.375
X154.575Y-184.175
X154.75Y-150.8
X155.425Y-150.15
X155.425Y-152.4
X155.797Y-172.7
X155.825Y-184.625
X155.9Y-162.975
X155.95Y-99.625
X156.025Y-183.125
X156.1Y-190.225
X156.175Y-150.725
X156.375Y-90.862
X156.525Y-195.875
X156.575Y-192.95
X156.674Y-164.263
X156.799Y-150.0
X156.95Y-182.6
X157.025Y-102.425
X157.025Y-162.975
X157.05Y-99.625
X157.25Y-191.825
X157.325Y-194.9
X157.455Y-164.436
X157.475Y-150.725
X157.775Y-190.8
X158.05Y-99.625
X158.1Y-150.099
X158.1Y-182.625
X158.225Y-165.025
X158.35Y-90.862
X158.625Y-121.75
X158.925Y-190.055
X159.175Y-150.25
X159.4Y-120.025
X159.875Y-164.1
X160.05Y-202.225
X160.15Y-99.625
X160.225Y-164.975
X161.15Y-190.075
X161.45Y-120.25
X162.326Y-189.4
X162.425Y-93.625
X162.5Y-132.4
X162.8Y-120.2
X162.85Y-131.4
X163.111Y-93.214
X163.175Y-136.85
X163.475Y-94.55
X163.6Y-130.725
X163.625Y-118.0
X163.883Y-93.862
X164.104Y-164.854
X164.25Y-135.7
X164.312Y-92.975
X164.325Y-128.925
X164.5Y-130.7
X164.975Y-127.9
X164.975Y-165.049
X165.2Y-92.037
X165.325Y-135.775
X165.7Y-165.5
X166.0Y-121.65
X166.15Y-177.85
X166.35Y-158.75
X166.375Y-179.65
X166.625Y-116.775
X166.86Y-145.71
X166.877Y-76.713
X166.975Y-175.35
X167.05Y-172.0
X167.25Y-92.037
X167.275Y-171.125
X167.45Y-158.725
X167.575Y-116.825
X167.575Y-184.65
X167.6Y-114.1
X167.676Y-76.684
X167.75Y-172.625
X167.8Y-135.65
X167.975Y-176.6
X168.45Y-175.8
X168.525Y-158.749
X168.75Y-79.875
X168.775Y-135.575
X168.825Y-178.125
X168.825Y-183.125
X169.05Y-182.225
X169.35Y-92.037
X169.386Y-79.391
X169.4Y-136.275
X169.45Y-204.15
X169.575Y-116.825
X169.692Y-184.495
X169.697Y-181.575
X169.7Y-178.775
X169.98Y-183.749
X170.525Y-116.825
X170.725Y-118.599
X170.983Y-204.424
X171.275Y-134.475
X171.6Y-116.774
X171.742Y-67.752
X172.1Y-133.924
X172.366Y-67.217
X172.8Y-196.6
X172.95Y-134.575
X172.95Y-198.125
X173.025Y-135.575
X173.15Y-136.475
X173.3Y-199.55
X173.95Y-117.35
X173.95Y-133.3
X174.0Y-120.4
X174.0Y-137.75
X174.075Y-136.575
X174.975Y-120.4
X175.8Y-73.975
X176.596Y-77.021
X176.6Y-76.1
X177.7Y-195.15
X177.87Y-68.43
X178.0Y-215.3
X178.2Y-79.883
X178.225Y-76.95
X178.925Y-124.025
X178.95Y-194.374
X179.0Y-69.031
X179.0Y-199.0
X179.2Y-196.4
X179.65Y-123.375
X179.8Y-79.883
X179.913Y-193.749
X180.086Y-69.469
X180.1Y-189.9
X180.187Y-191.387
X180.25Y-192.292
X180.275Y-122.75
X180.579Y-174.671
X180.7Y-175.675
X181.4Y-79.883
X181.45Y-173.775
X181.483Y-174.692
X182.333Y-172.892
X182.35Y-69.4
X182.354Y-173.796
X182.675Y-178.6
X183.153Y-171.947
X183.206Y-172.882
X183.3Y-193.749
X183.675Y-188.2
X183.85Y-73.382
X183.95Y-131.8
X183.95Y-183.15
X184.079Y-171.989
X184.1Y-214.5
X184.124Y-166.65
X184.147Y-171.174
X184.275Y-155.475
X184.374Y-179.207
X184.375Y-197.775
X184.4Y-135.6
X184.749Y-167.55
X184.8Y-61.175
X184.875Y-136.4
X185.012Y-171.062
X185.05Y-153.325
X185.084Y-137.466
X185.1Y-154.4
X185.1Y-197.025
X185.36Y-187.41
X185.513Y-193.387
X185.571Y-61.388
X185.575Y-167.725
X185.85Y-195.774
X185.975Y-178.3
X186.2Y-79.883
X186.55Y-75.925
X186.55Y-189.125
X186.595Y-183.701
X186.6Y-69.2
X186.6Y-115.15
X186.8Y-61.5
X186.862Y-191.887
X187.117Y-153.158
X187.165Y-155.36
X187.25Y-189.576
X187.3Y-195.775
X187.45Y-78.125
X187.5Y-214.5
X187.584Y-61.657
X187.6Y-187.725
X187.825Y-71.925
X187.925Y-93.075
X188.067Y-153.225
X188.15Y-195.775
X188.175Y-190.2
X188.953Y-153.847
X189.024Y-177.525
X189.1Y-114.45
X189.225Y-149.4
X189.257Y-167.374
X189.325Y-138.14
X189.326Y-139.4
X189.625Y-129.25
X189.652Y-177.03
X189.7Y-141.1
X189.824Y-151.3
X189.84Y-152.24
X189.924Y-183.25
X190.0Y-153.6
X190.1Y-142.595
X190.9Y-214.5
X191.125Y-127.979
X191.4Y-195.5
X191.725Y-136.55
X191.825Y-126.709
X191.85Y-199.124
X191.9Y-138.05
X192.0Y-178.8
X192.05Y-179.75
X192.125Y-188.475
X192.55Y-125.439
X192.6Y-120.9
X192.612Y-115.037
X192.625Y-130.52
X192.724Y-131.79
X193.2Y-146.85
X193.425Y-140.475
X193.725Y-134.954
X193.85Y-83.675
X193.883Y-146.183
X194.0Y-72.25
X194.2Y-106.075
X194.25Y-132.415
X194.3Y-214.5
X194.475Y-82.775
X194.525Y-114.55
X194.575Y-133.812
X194.625Y-70.97
X195.075Y-75.925
X195.125Y-77.174
X195.125Y-81.875
X195.125Y-145.475
X195.3Y-69.7
X195.3Y-181.8
X195.35Y-183.2
X195.4Y-180.2
X195.425Y-198.5
X195.5Y-194.6
X195.6Y-188.575
X195.7Y-181.0
X195.75Y-144.85
X195.751Y-179.482
X195.775Y-72.725
X195.775Y-78.45
X195.825Y-83.225
X195.975Y-115.3
X196.125Y-75.28
X196.262Y-144.236
X196.383Y-135.133
X196.425Y-185.697
X196.45Y-79.125
X196.45Y-81.575
X196.9Y-69.075
X197.075Y-82.58
X197.1Y-143.611
X197.146Y-134.396
X197.156Y-171.325
X197.231Y-139.877
X197.35Y-71.55
X197.625Y-141.15
X197.75Y-76.55
X197.774Y-79.925
X198.0Y-131.145
X198.0Y-171.625
X198.031Y-139.882
X198.15Y-182.375
X198.418Y-141.255
X198.45Y-135.65
X198.575Y-100.925
X198.6Y-183.2
X198.65Y-77.825
X199.014Y-171.625
X199.019Y-181.756
X199.075Y-121.3
X199.1Y-199.124
X199.226Y-179.576
X199.3Y-122.9
X199.3Y-129.25
X199.4Y-80.5
X199.8Y-196.6
X199.85Y-82.001
X199.85Y-180.2
X199.975Y-183.474
X200.025Y-195.425
X200.028Y-171.625
X200.3Y-198.5
X200.75Y-180.9
X200.8Y-196.775
X200.975Y-118.2
X201.042Y-171.625
X201.099Y-179.1
X201.1Y-215.275
X201.925Y-73.51
X202.056Y-171.625
X202.237Y-178.6
X203.07Y-171.625
X203.6Y-126.8
X203.625Y-124.175
X203.7Y-197.4
X203.9Y-130.375
X203.9Y-132.125
X204.084Y-171.625
X204.425Y-124.8
X204.45Y-125.8
X204.625Y-126.8
X205.098Y-171.625
X205.275Y-125.425
X205.5Y-195.0
X205.775Y-82.325
X205.875Y-190.826
X205.975Y-115.325
X206.1Y-72.45
X206.112Y-171.625
X206.387Y-106.762
X206.7Y-194.8
X207.125Y-171.625
X207.7Y-193.874
X208.037Y-180.938
X208.2Y-189.3
X208.9Y-168.625
X208.975Y-114.575
X209.0Y-189.4
X209.475Y-72.45
X209.475Y-190.825
X209.525Y-115.325
X210.15Y-169.076
X210.3Y-77.275
X210.475Y-117.175
X210.575Y-64.1
X210.61Y-78.07
X210.75Y-71.45
X210.775Y-192.75
X210.875Y-202.175
X211.066Y-81.141
X211.136Y-191.1
X211.15Y-169.525
X211.15Y-190.15
X211.475Y-76.1
X211.475Y-197.175
X211.525Y-78.049
X211.7Y-122.962
X211.7Y-128.8
X211.799Y-65.275
X211.999Y-113.675
X212.125Y-85.775
X212.149Y-203.3
X212.634Y-110.95
X212.725Y-117.175
X212.812Y-190.263
X213.225Y-171.825
X213.225Y-202.025
X213.462Y-200.587
X213.55Y-119.5
X213.55Y-120.6
X213.562Y-115.438
X213.65Y-132.075
X213.875Y-121.425
X213.883Y-110.96
X214.225Y-194.55
X214.525Y-114.475
X214.825Y-203.2
X214.925Y-123.0
X215.1Y-115.15
X215.15Y-174.9
X215.15Y-182.576
X215.15Y-197.725
X215.225Y-95.675
X215.345Y-123.775
X215.35Y-186.575
X215.475Y-64.525
X215.5Y-65.525
X215.5Y-81.775
X215.55Y-113.35
X215.7Y-89.95
X215.732Y-89.094
X215.8Y-183.201
X215.83Y-188.945
X215.9Y-202.325
X216.1Y-94.25
X216.2Y-123.775
X216.25Y-115.174
X216.347Y-132.98
X216.55Y-100.175
X216.715Y-88.31
X216.725Y-132.275
X216.75Y-84.335
X216.75Y-133.7
X216.75Y-183.201
X216.804Y-120.429
X216.836Y-89.314
X216.875Y-189.575
X216.9Y-74.95
X216.925Y-85.144
X216.95Y-113.35
X217.025Y-202.05
X217.135Y-176.624
X217.268Y-187.9
X217.399Y-94.5
X217.5Y-185.875
X217.575Y-85.8
X217.875Y-195.125
X217.932Y-88.643
X217.962Y-100.662
X218.0Y-188.624
X218.1Y-117.0
X218.1Y-118.25
X218.1Y-120.75
X218.117Y-132.691
X218.125Y-133.5
X218.25Y-86.6
X218.375Y-168.775
X218.375Y-194.499
X218.476Y-87.999
X218.7Y-94.525
X218.975Y-87.374
X218.975Y-197.725
X219.3Y-121.5
X219.3Y-185.425
X219.4Y-89.05
X219.461Y-133.064
X219.9Y-132.375
X220.1Y-123.125
X220.188Y-114.637
X220.375Y-186.4
X220.4Y-202.1
X220.654Y-192.535
X220.72Y-59.76
X220.725Y-101.025
X220.925Y-67.675
X221.05Y-120.1
X221.4Y-141.0
X221.5Y-197.2
X221.6Y-203.45
X221.604Y-133.996
X221.8Y-202.05
X221.825Y-67.55
X221.9Y-94.675
X222.087Y-66.587
X222.175Y-124.975
X222.299Y-133.299
X222.45Y-118.25
X222.45Y-119.5
X222.525Y-114.65
X222.55Y-142.701
X222.678Y-95.297
X222.684Y-150.816
X222.85Y-199.025
X222.9Y-140.376
X223.004Y-136.272
X223.1Y-65.75
X223.1Y-66.692
X223.2Y-143.951
X223.2Y-145.201
X223.425Y-147.75
X223.45Y-146.475
X223.525Y-149.45
X223.548Y-133.583
X223.825Y-136.225
X223.874Y-60.09
X223.875Y-117.0
X223.975Y-198.4
X224.0Y-65.729
X224.025Y-124.651
X224.025Y-64.775
X224.125Y-152.1
X224.175Y-126.575
X224.467Y-99.658
X224.475Y-98.55
X224.775Y-125.275
X224.88Y-76.743
X225.0Y-181.7
X225.175Y-99.075
X225.3Y-179.7
X225.416Y-68.124
X225.45Y-117.0
X225.475Y-138.475
X225.54Y-76.05
X225.775Y-153.675
X225.8Y-211.725
X225.85Y-123.2
X225.952Y-99.273
X225.958Y-113.225
X225.975Y-132.059
X226.0Y-60.25
X226.08Y-176.7
X226.31Y-75.41
X226.577Y-156.377
X226.625Y-58.85
X226.801Y-137.871
X226.925Y-139.828
X226.95Y-211.075
X227.0Y-194.5
X227.025Y-200.55
X227.05Y-192.8
X227.075Y-197.201
X227.299Y-66.0
X227.524Y-197.9
X227.55Y-106.95
X227.625Y-139.05
X227.734Y-66.766
X227.85Y-194.6
X227.875Y-58.85
X228.063Y-201.463
X228.212Y-195.439
X228.225Y-210.825
X228.325Y-60.275
X228.344Y-145.761
X228.35Y-200.625
X228.358Y-147.542
X228.65Y-72.55
X228.66Y-73.872
X228.7Y-66.75
X228.713Y-143.563
X228.76Y-79.26
X229.0Y-65.675
X229.05Y-195.85
X229.125Y-136.775
X229.15Y-200.38
X229.262Y-141.637
X229.55Y-210.8
X229.574Y-112.159
X229.712Y-111.312
X229.817Y-71.217
X229.873Y-147.9
X229.898Y-65.673
X229.9Y-59.725
X230.202Y-191.909
X230.25Y-70.175
X230.275Y-101.012
X230.4Y-77.06
X230.4Y-194.225
X230.6Y-77.875
X230.633Y-190.556
X230.699Y-67.275
X230.7Y-210.825
X230.749Y-195.05
X230.8Y-98.375
X230.975Y-191.278
X231.075Y-78.58
X231.16Y-63.78
X231.279Y-70.029
X231.325Y-79.486
X231.537Y-156.587
X231.556Y-190.556
X231.6Y-146.725
X231.649Y-194.05
X231.825Y-114.275
X231.825Y-211.075
X231.843Y-99.325
X231.874Y-188.195
X231.875Y-189.0
X231.875Y-189.8
X232.325Y-184.9
X232.327Y-193.178
X232.4Y-115.65
X232.429Y-67.275
X232.603Y-157.453
X233.0Y-184.275
X233.224Y-183.321
X233.325Y-145.9
X233.354Y-65.75
X233.55Y-58.65
X233.575Y-59.65
X233.66Y-75.835
X233.849Y-182.63
X233.95Y-63.675
X234.019Y-157.144
X234.025Y-153.2
X234.075Y-98.876
X234.163Y-64.446
X234.29Y-159.79
X234.4Y-158.725
X234.45Y-72.125
X234.549Y-193.363
X234.575Y-172.925
X234.7Y-185.525
X234.725Y-189.05
X234.725Y-190.075
X234.9Y-187.125
X234.924Y-147.031
X234.925Y-188.1
X234.967Y-59.188
X235.15Y-98.85
X235.2Y-65.228
X235.3Y-64.043
X235.325Y-114.932
X235.375Y-77.825
X235.389Y-95.05
X235.525Y-72.425
X235.652Y-65.928
X235.812Y-76.412
X235.89Y-98.446
X236.05Y-82.55
X236.086Y-81.301
X236.25Y-59.775
X236.3Y-71.725
X236.45Y-65.875
X236.55Y-83.2
X236.572Y-98.028
X236.625Y-81.925
X236.85Y-80.676
X236.925Y-60.4
X237.15Y-201.725
X237.175Y-65.5
X237.2Y-211.4
X237.225Y-71.825
X237.425Y-114.175
X237.85Y-65.975
X237.975Y-202.325
X238.138Y-83.408
X238.225Y-141.4
X238.225Y-143.925
X238.248Y-78.873
X238.275Y-133.1
X238.35Y-139.225
X238.46Y-75.85
X238.55Y-65.425
X238.775Y-153.75
X238.775Y-202.825
X238.875Y-154.675
X238.96Y-83.47
X239.075Y-152.754
X239.125Y-158.35
X239.175Y-66.025
X239.26Y-74.36
X239.575Y-153.489
X239.75Y-81.836
X239.81Y-83.535
X239.85Y-64.96
X239.885Y-77.84
X239.93Y-113.45
X239.958Y-65.863
X239.975Y-139.436
X239.999Y-173.6
X240.1Y-155.575
X240.458Y-154.633
X240.618Y-66.314
X240.67Y-86.44
X241.1Y-142.45
X241.18Y-87.98
X241.198Y-114.925
X241.346Y-87.036
X241.4Y-184.25
X241.604Y-155.367
X241.608Y-88.728
X241.73Y-89.52
X241.76Y-77.66
X241.871Y-65.646
X241.979Y-139.665
X242.15Y-182.875
X242.25Y-74.325
X242.37Y-88.97
X242.375Y-141.287
X242.41Y-87.65
X242.421Y-86.165
X242.425Y-113.525
X242.49Y-140.29
X242.675Y-139.025
X242.8Y-144.9
X242.825Y-93.325
X242.862Y-179.75
X243.325Y-177.525
X243.421Y-173.804
X244.125Y-166.025
X244.688Y-178.625
X245.475Y-76.625
X245.957Y-176.325
X248.675Y-170.2
X248.95Y-84.425
X248.95Y-85.695
X249.0Y-103.8
X249.021Y-65.954
X249.125Y-176.3
X249.188Y-170.912
X249.475Y-165.775
X249.5Y-167.35
X249.972Y-171.35
X249.975Y-110.675
X250.175Y-183.375
X250.475Y-168.45
X250.475Y-85.444
X250.528Y-185.317
X250.575Y-171.875
X251.2Y-172.45
X251.24Y-84.81
X251.3Y-185.524
X251.475Y-83.25
X251.924Y-183.725
X252.075Y-88.175
X252.225Y-174.85
X252.428Y-86.938
X252.45Y-116.0
X252.6Y-114.55
X252.9Y-88.4
X254.8Y-148.8
X255.278Y-117.397
X255.35Y-81.075
X256.07Y-148.85
X256.125Y-80.475
X256.6Y-83.85
X256.96Y-66.46
X257.25Y-67.45
X257.3Y-157.2
X257.338Y-84.592
X257.34Y-148.8
X257.345Y-169.1
X257.41Y-83.13
X257.725Y-88.225
X257.738Y-66.787
X257.775Y-90.775
X258.1Y-158.1
X258.12Y-81.31
X258.2Y-156.3
X258.225Y-169.325
X258.5Y-66.375
X258.8Y-81.885
X258.875Y-169.9
X258.95Y-181.5
X259.25Y-171.625
X259.255Y-158.124
X259.3Y-66.4
X259.95Y-181.5
X259.975Y-172.225
X260.15Y-66.4
X260.75Y-171.274
X261.1Y-98.95
X261.15Y-181.275
X261.2Y-158.2
X261.375Y-172.175
X261.75Y-113.831
X261.8Y-157.4
X261.875Y-67.275
X262.015Y-68.115
X262.24Y-100.536
X262.4Y-174.4
X262.425Y-169.475
X262.468Y-68.807
X262.875Y-100.05
X263.079Y-158.054
X263.175Y-152.075
X263.214Y-172.275
X263.25Y-157.0
X263.695Y-169.5
X263.705Y-171.55
X263.985Y-172.714
X264.075Y-79.987
X264.1Y-151.7
X264.145Y-170.882
X264.425Y-140.575
X264.599Y-112.177
X264.6Y-100.45
X264.77Y-96.23
X264.973Y-97.023
X265.0Y-152.761
X265.026Y-170.774
X265.051Y-112.836
X265.388Y-100.712
X265.505Y-95.395
X265.787Y-170.287
X265.85Y-97.25
X265.875Y-151.85
X265.882Y-157.384
X266.325Y-152.9
X266.4Y-156.775
X266.575Y-122.05
X266.6Y-169.9
X266.875Y-152.15
X266.93Y-108.07
X266.975Y-109.35
X267.1Y-97.6
X267.1Y-110.61
X267.25Y-102.365
X267.375Y-139.4
X267.4Y-156.325
X267.5Y-151.4
X267.5Y-158.2
X267.5Y-169.2
X267.5Y-181.0
X267.815Y-152.135
X268.077Y-155.677
X268.25Y-139.325
X268.65Y-117.723
X268.8Y-158.1
X268.8Y-181.0
X269.1Y-120.925
X269.15Y-181.85
X269.975Y-97.875
X270.0Y-158.1
X270.05Y-182.15
X270.125Y-99.15
X270.125Y-115.675
X270.325Y-100.45
X270.65Y-121.375
X270.925Y-184.225
X270.925Y-187.575
X271.125Y-182.3
X271.3Y-158.1
X271.85Y-121.15
X272.025Y-102.25
X272.2Y-158.1
X272.4Y-182.1
X272.664Y-157.311
X272.9Y-163.7
X272.975Y-121.125
X273.377Y-99.6
X273.515Y-157.188
X273.55Y-182.15
X273.712Y-156.413
X274.075Y-122.225
X274.425Y-155.95
X274.55Y-182.2
X274.625Y-102.25
X274.825Y-123.1
X275.45Y-122.225
X276.025Y-102.085
X276.125Y-91.35
X276.275Y-123.1
X276.925Y-122.225
X276.975Y-91.35
X277.284Y-102.8
X277.375Y-156.9
X277.55Y-123.075
X277.7Y-158.0
X277.782Y-91.355
X278.275Y-122.225
X278.582Y-91.35
X278.6Y-101.95
X278.95Y-123.075
X279.275Y-104.25
X279.35Y-151.375
X279.525Y-92.7
X279.625Y-122.225
X279.85Y-165.1
X280.325Y-92.7
X280.325Y-123.075
X280.35Y-164.4
X280.35Y-165.8
X280.45Y-152.275
X280.528Y-150.694
X280.55Y-105.05
X280.875Y-149.4
X280.95Y-122.225
X281.125Y-92.725
X281.226Y-103.7
X281.508Y-150.842
X281.625Y-123.05
X281.85Y-136.175
X281.925Y-92.7
X281.95Y-102.375
X282.358Y-122.229
X282.45Y-152.3
X282.929Y-101.471
X282.983Y-123.107
X283.425Y-82.475
X283.525Y-81.5
X283.65Y-122.2
X283.925Y-80.725
X284.175Y-83.9
X284.319Y-123.125
X284.373Y-83.099
X284.725Y-84.525
X284.75Y-80.575
X284.849Y-112.75
X284.924Y-102.45
X285.05Y-122.2
X285.65Y-80.425
X285.726Y-123.125
X286.246Y-136.721
X286.25Y-105.625
X286.351Y-122.175
X286.375Y-110.475
X286.375Y-113.225
X286.976Y-123.125
X287.134Y-104.741
X287.825Y-103.575
X287.975Y-139.75
X288.025Y-141.175
X288.796Y-112.079
X289.0Y-143.275
X289.201Y-103.631
X289.508Y-111.017
X289.725Y-92.575
X289.775Y-152.875
X290.275Y-110.0
X290.825Y-93.325
X291.422Y-151.584
X291.673Y-95.127
X291.976Y-150.36
X292.25Y-151.121
X293.075Y-94.875
X293.15Y-146.3
X293.675Y-109.25
X293.688Y-107.987
X293.725Y-106.825
X293.75Y-110.6
X293.8Y-97.925
X294.285Y-87.84
X294.375Y-111.875
X294.5Y-88.7
X294.5Y-106.3
X294.585Y-98.66
X295.125Y-89.375
X295.225Y-105.55
X295.749Y-88.4
X295.9Y-87.55
X296.373Y-90.325
X297.275Y-107.15
X297.325Y-106.075
X297.85Y-107.85
X298.15Y-148.65
X298.85Y-139.8
X299.507Y-151.282
X299.825Y-137.2
X299.85Y-134.8
X299.875Y-142.875
X300.45Y-99.575
X300.5Y-144.9
X301.025Y-147.025
X301.075Y-148.725
X301.2Y-132.1
X301.275Y-126.825
X301.625Y-124.15
X301.925Y-84.775
T2
X122.0Y-60.0
X122.0Y-66.0
X122.0Y-72.0
X122.0Y-78.0
X122.0Y-84.0
X122.0Y-90.0
X122.0Y-96.0
X122.0Y-102.0
X122.0Y-108.0
X122.0Y-114.0
X122.0Y-120.0
X122.0Y-126.0
X122.0Y-132.0
X122.0Y-138.0
X122.0Y-144.0
X122.0Y-150.0
X122.0Y-156.0
X122.0Y-162.0
X122.0Y-168.0
X122.0Y-174.0
X122.0Y-180.0
X122.0Y-186.0
X122.0Y-192.0
X122.0Y-198.0
X122.0Y-204.0
X122.0Y-210.0
X122.0Y-216.0
X124.5Y-47.5
X126.0Y-57.0
X126.0Y-63.0
X126.0Y-69.0
X126.0Y-75.0
X126.0Y-81.0
X126.0Y-87.0
X126.0Y-93.0
X126.0Y-99.0
X126.0Y-105.0
X126.0Y-111.0
X126.0Y-117.0
X126.0Y-123.0
X126.0Y-129.0
X126.0Y-147.0
X126.0Y-153.0
X126.0Y-159.0
X126.0Y-165.0
X126.0Y-171.0
X126.0Y-177.0
X126.0Y-183.0
X126.0Y-189.0
X126.0Y-195.0
X126.0Y-201.0
X126.0Y-207.0
X126.0Y-213.0
X127.5Y-43.5
X130.5Y-47.5
X133.5Y-43.5
X135.225Y-118.05
X135.25Y-113.53
X135.345Y-116.33
X135.5Y-119.98
X135.5Y-121.53
X136.5Y-47.5
X136.588Y-82.525
X136.625Y-103.9
X138.425Y-165.325
X138.425Y-174.15
X139.412Y-133.93
X139.5Y-43.5
X139.5Y-120.73
X139.65Y-112.575
X139.95Y-115.875
X140.45Y-123.53
X141.075Y-112.775
X141.1Y-117.53
X141.775Y-119.155
X142.55Y-124.73
X143.007Y-86.83
X143.1Y-113.53
X143.1Y-115.08
X143.256Y-67.6
X143.5Y-118.73
X143.6Y-119.93
X143.6Y-128.25
X143.65Y-122.73
X144.95Y-127.78
X145.075Y-86.85
X145.5Y-232.5
X145.8Y-194.0
X147.2Y-119.98
X147.2Y-121.43
X147.5Y-224.5
X147.65Y-115.13
X147.65Y-180.125
X147.875Y-113.53
X148.307Y-78.695
X149.606Y-60.452
X149.606Y-61.595
X149.606Y-62.738
X149.975Y-122.075
X150.282Y-85.57
X150.282Y-87.471
X150.3Y-82.175
X150.525Y-115.4
X151.5Y-232.5
X151.79Y-64.313
X151.95Y-200.15
X153.275Y-67.6
X153.35Y-183.775
X153.5Y-224.5
X154.45Y-191.425
X154.55Y-197.112
X156.025Y-179.75
X156.591Y-61.087
X157.3Y-205.5
X157.5Y-232.5
X157.607Y-61.087
X158.325Y-171.875
X158.877Y-61.087
X159.5Y-224.5
X159.825Y-172.75
X159.825Y-177.25
X159.893Y-61.087
X160.2Y-88.15
X161.544Y-66.548
X161.8Y-126.8
X161.9Y-58.25
X162.425Y-181.375
X163.498Y-65.525
X163.5Y-232.5
X163.9Y-193.075
X164.225Y-123.425
X164.3Y-171.05
X164.9Y-177.9
X165.3Y-116.9
X165.5Y-224.5
X165.608Y-68.627
X167.275Y-123.4
X167.825Y-141.925
X168.475Y-155.425
X169.5Y-232.5
X169.725Y-141.975
X170.125Y-168.875
X170.825Y-196.025
X171.125Y-155.425
X171.3Y-92.375
X171.5Y-224.5
X171.625Y-140.475
X171.688Y-62.737
X173.8Y-173.175
X174.125Y-170.066
X174.3Y-167.825
X175.2Y-143.45
X176.4Y-94.475
X176.85Y-118.3
X177.255Y-87.42
X177.475Y-207.35
X178.225Y-85.225
X179.6Y-89.9
X179.85Y-75.325
X179.85Y-127.479
X181.0Y-135.75
X181.125Y-69.125
X181.625Y-88.013
X181.625Y-89.837
X182.287Y-96.375
X182.65Y-120.325
X182.75Y-131.925
X183.0Y-232.0
X185.387Y-86.45
X185.387Y-88.55
X185.387Y-90.6
X186.3Y-92.8
X187.0Y-81.675
X187.45Y-74.925
X188.775Y-121.625
X189.0Y-232.0
X190.375Y-63.0
X190.675Y-121.625
X192.35Y-116.775
X192.575Y-150.35
X192.575Y-152.875
X193.5Y-43.5
X193.712Y-94.25
X194.375Y-67.6
X195.5Y-52.5
X195.75Y-126.63
X196.675Y-195.05
X197.799Y-81.525
X197.825Y-83.575
X198.5Y-190.675
X198.5Y-206.5
X199.25Y-73.575
X199.5Y-43.5
X201.5Y-52.5
X201.925Y-79.86
X203.3Y-116.775
X203.5Y-227.0
X203.75Y-190.675
X204.3Y-84.45
X204.3Y-180.5
X204.325Y-90.3
X204.325Y-94.225
X204.455Y-121.63
X205.5Y-43.5
X205.65Y-179.625
X205.712Y-88.35
X205.737Y-94.2
X205.74Y-84.45
X205.75Y-96.575
X206.025Y-126.075
X206.6Y-180.5
X207.5Y-190.725
X207.675Y-82.325
X209.15Y-180.675
X209.5Y-227.0
X210.2Y-179.4
X210.9Y-154.45
X211.0Y-52.5
X211.5Y-43.5
X212.05Y-74.275
X212.3Y-87.275
X212.65Y-129.675
X212.975Y-156.65
X213.35Y-147.95
X213.35Y-181.95
X213.5Y-205.65
X213.725Y-60.125
X213.925Y-176.375
X214.385Y-61.59
X214.55Y-188.475
X214.7Y-172.825
X215.05Y-137.825
X218.125Y-152.825
X218.147Y-137.972
X219.5Y-52.5
X219.825Y-179.6
X220.1Y-176.65
X220.4Y-167.825
X221.0Y-70.4
X225.0Y-205.175
X225.5Y-52.5
X225.99Y-78.96
X225.99Y-80.86
X226.0Y-204.5
X226.5Y-232.0
X226.625Y-77.225
X226.825Y-82.075
X228.75Y-118.55
X228.95Y-95.375
X229.5Y-156.55
X230.17Y-86.701
X231.5Y-52.5
X232.5Y-232.0
X232.675Y-98.95
X237.5Y-52.5
X238.25Y-72.0
X238.5Y-43.5
X238.984Y-159.796
X239.225Y-89.75
X239.475Y-116.925
X240.9Y-179.075
X241.2Y-116.925
X241.425Y-186.825
X242.05Y-67.2
X242.8Y-159.06
X242.8Y-161.6
X243.5Y-52.5
X244.0Y-224.5
X244.5Y-43.5
X244.95Y-130.65
X245.3Y-134.225
X246.075Y-166.625
X248.2Y-116.925
X249.5Y-52.5
X249.5Y-181.4
X250.0Y-224.5
X250.125Y-173.575
X250.4Y-177.575
X250.5Y-43.5
X253.014Y-175.283
X254.45Y-132.925
X254.45Y-134.225
X254.475Y-85.45
X254.6Y-153.2
X255.5Y-52.5
X255.5Y-89.5
X256.0Y-224.5
X256.2Y-155.9
X256.5Y-43.5
X256.6Y-152.7
X257.375Y-181.925
X257.425Y-184.0
X257.5Y-89.5
X258.0Y-231.5
X260.2Y-170.0
X261.3Y-152.475
X261.5Y-52.5
X262.0Y-224.5
X262.5Y-43.5
X263.15Y-83.8
X263.477Y-88.25
X263.875Y-156.0
X264.0Y-231.5
X264.675Y-169.85
X265.42Y-91.99
X267.5Y-52.5
X268.0Y-224.5
X268.2Y-182.6
X268.5Y-43.5
X270.0Y-231.5
X270.35Y-101.725
X270.5Y-105.525
X270.875Y-174.275
X271.075Y-152.825
X271.575Y-114.425
X271.8Y-151.95
X271.95Y-116.55
X272.9Y-169.6
X273.4Y-174.15
X273.5Y-52.5
X274.5Y-43.5
X275.125Y-90.425
X276.55Y-57.575
X277.275Y-81.55
X277.626Y-178.749
X277.665Y-174.2
X278.475Y-76.1
X279.0Y-156.25
X279.025Y-172.3
X279.04Y-169.31
X279.5Y-52.5
X280.4Y-161.8
X280.5Y-43.5
X280.5Y-154.713
X280.7Y-64.95
X282.975Y-97.775
X283.9Y-85.3
X283.95Y-134.525
X286.35Y-106.65
X286.35Y-108.9
X286.5Y-43.5
X287.475Y-71.7
X290.7Y-127.925
X292.7Y-159.0
X292.7Y-163.3
X292.7Y-168.3
X292.7Y-173.0
X292.7Y-178.3
X292.7Y-183.4
X294.0Y-52.6
X294.0Y-58.6
X294.0Y-64.6
X294.0Y-70.6
X294.0Y-76.6
X295.5Y-148.55
X295.55Y-96.75
X297.0Y-191.0
X297.0Y-197.0
X297.0Y-203.0
X297.0Y-209.0
X297.05Y-98.725
X298.725Y-141.95
X302.0Y-193.0
X302.0Y-199.0
X302.0Y-205.0
X302.0Y-211.0
T3
X136.05Y-140.075
X152.525Y-72.2
X153.6Y-105.575
X154.5Y-72.2
X173.775Y-156.2
X174.925Y-208.09
X179.9Y-207.475
X185.95Y-206.7
X190.825Y-206.7
X201.2Y-59.5
X202.3Y-58.4
X203.9Y-152.75
X203.9Y-158.25
X208.825Y-129.225
X215.4Y-152.9
X218.8Y-207.2
X220.2Y-152.9
X237.375Y-162.075
X261.825Y-184.0
X272.275Y-61.95
X275.95Y-188.35
X277.95Y-182.65
X300.0Y-156.4
X300.3Y-82.702
X300.875Y-128.425
T4
X205.05Y-206.5
X206.275Y-206.5
X207.535Y-206.5
X208.75Y-206.5
T5
X135.3Y-105.75
X135.3Y-108.25
X135.325Y-127.275
X135.325Y-129.775
X135.833Y-70.739
X138.425Y-183.025
X138.425Y-185.525
X139.625Y-99.85
X139.625Y-102.35
X139.95Y-89.375
X139.95Y-91.875
X140.833Y-70.739
X141.1Y-127.275
X141.1Y-129.775
X141.825Y-105.75
X141.825Y-108.25
X144.272Y-70.739
X145.9Y-100.575
X145.9Y-103.075
X146.675Y-90.6
X146.772Y-70.739
X149.175Y-90.6
X149.705Y-141.732
X152.205Y-141.732
X159.025Y-77.025
X161.175Y-82.425
X161.525Y-77.025
X163.675Y-82.425
X170.9Y-80.01
X173.4Y-80.01
X175.755Y-85.925
X180.025Y-67.475
X180.655Y-85.925
X181.025Y-93.055
X182.525Y-67.475
X183.525Y-93.055
X206.5Y-75.05
X208.67Y-61.59
X209.0Y-75.05
X211.17Y-61.59
X249.425Y-120.125
X251.925Y-120.125
X252.9Y-66.9
X255.4Y-66.9
X261.85Y-188.075
X263.3Y-200.205
X263.3Y-207.825
X263.885Y-78.225
X263.885Y-85.845
X264.35Y-188.075
X265.84Y-200.205
X265.84Y-207.825
X267.545Y-124.5
X268.38Y-200.205
X268.38Y-207.825
X270.045Y-124.5
X270.92Y-200.205
X270.92Y-207.825
X273.46Y-200.205
X273.46Y-207.825
X276.0Y-200.205
X276.0Y-207.825
X278.54Y-200.205
X278.54Y-207.825
X279.125Y-78.225
X279.125Y-85.845
X289.5Y-85.2
X289.5Y-87.7
T6
X173.2Y-92.25
X178.2Y-92.25
X178.804Y-50.916
X178.804Y-53.416
X180.804Y-53.416
X181.554Y-50.916
X182.804Y-53.416
X183.554Y-50.916
X184.804Y-53.416
X186.804Y-50.916
X186.804Y-53.416
T7
X148.844Y-136.779
X153.924Y-136.779
X159.025Y-56.7
X161.482Y-194.5
X161.482Y-197.0
X161.482Y-204.0
X161.482Y-206.5
X161.482Y-209.0
X166.482Y-194.5
X166.482Y-197.0
X166.482Y-199.5
X166.482Y-206.5
X166.482Y-209.0
X167.538Y-104.14
X167.538Y-109.14
X170.078Y-104.14
X170.078Y-109.14
X172.618Y-104.14
X172.618Y-109.14
X175.158Y-104.14
X175.158Y-109.14
X177.698Y-104.14
X177.698Y-109.14
X180.238Y-104.14
X180.238Y-109.14
X182.778Y-104.14
X182.778Y-109.14
X185.318Y-104.14
X185.318Y-109.14
X187.858Y-104.14
X187.858Y-109.14
X190.398Y-104.14
X190.398Y-109.14
X192.938Y-104.14
X192.938Y-109.14
X195.478Y-104.14
X195.478Y-109.14
X198.018Y-104.14
X198.018Y-109.14
X200.558Y-104.14
X200.558Y-109.14
X203.098Y-104.14
X203.098Y-109.14
X205.638Y-104.14
X205.638Y-109.14
X208.178Y-104.14
X208.178Y-109.14
X210.718Y-104.14
X210.718Y-109.14
X213.258Y-104.14
X213.258Y-109.14
X215.798Y-104.14
X215.798Y-109.14
X218.338Y-104.14
X218.338Y-109.14
X220.878Y-104.14
X220.878Y-109.14
X223.418Y-104.14
X223.418Y-109.14
X225.958Y-104.14
X225.958Y-109.14
X228.498Y-104.14
X228.498Y-109.14
X231.038Y-104.14
X231.038Y-109.14
X233.578Y-104.14
X233.578Y-109.14
X236.118Y-104.14
X236.118Y-109.14
X238.658Y-104.14
X238.658Y-109.14
X241.198Y-104.14
X241.198Y-109.14
X243.738Y-104.14
X243.738Y-109.14
X246.278Y-104.14
X246.278Y-109.14
X299.825Y-87.775
X299.825Y-92.875
T8
X177.3Y-217.4
X177.3Y-219.9
X177.3Y-222.4
X180.7Y-217.4
X180.7Y-219.9
X180.7Y-222.4
X184.1Y-217.4
X184.1Y-219.9
X184.1Y-222.4
X187.5Y-217.4
X187.5Y-219.9
X187.5Y-222.4
X190.9Y-217.4
X190.9Y-219.9
X190.9Y-222.4
X194.3Y-217.4
X194.3Y-219.9
X194.3Y-222.4
X194.6Y-56.1
X197.1Y-56.1
X197.7Y-217.4
X197.7Y-219.9
X197.7Y-222.4
X199.6Y-56.1
X201.1Y-217.4
X201.1Y-219.9
X201.1Y-222.4
X212.7Y-217.4
X212.7Y-219.9
X212.7Y-222.4
X216.1Y-217.4
X216.1Y-219.9
X216.1Y-222.4
X219.5Y-217.4
X219.5Y-219.9
X219.5Y-222.4
X222.9Y-217.4
X222.9Y-219.9
X222.9Y-222.4
X226.3Y-217.4
X226.3Y-219.9
X226.3Y-222.4
X229.7Y-217.4
X229.7Y-219.9
X229.7Y-222.4
X233.1Y-217.4
X233.1Y-219.9
X233.1Y-222.4
X236.5Y-217.4
X236.5Y-219.9
X236.5Y-222.4
T9
X185.366Y-226.682
X186.751Y-229.522
X188.136Y-226.682
X189.521Y-229.522
X190.906Y-226.682
X192.291Y-229.522
X193.676Y-226.682
X195.061Y-229.522
X196.446Y-226.682
X217.37Y-226.682
X218.755Y-229.522
X220.14Y-226.682
X221.525Y-229.522
X222.91Y-226.682
X224.295Y-229.522
X225.68Y-226.682
X227.065Y-229.522
X228.45Y-226.682
T11
X244.775Y-194.575
X244.775Y-199.575
X244.775Y-204.067
X244.775Y-209.067
X255.075Y-194.575
X255.075Y-199.575
X255.075Y-204.067
X255.075Y-209.067
T5
X175.554Y-46.516G85X175.554Y-48.316
G05
X175.554Y-53.016G85X175.554Y-54.816
G05
X181.904Y-47.166G85X183.704Y-47.166
G05
X190.054Y-46.516G85X190.054Y-48.316
G05
X190.054Y-53.016G85X190.054Y-54.816
G05
T10
X161.735Y-51.104G85X161.735Y-51.704
G05
X165.135Y-53.904G85X166.335Y-53.904
G05
X169.735Y-51.104G85X169.735Y-51.704
G05
T0
M30
