G04 #@! TF.GenerationSoftware,KiCad,Pcbnew,8.0.4*
G04 #@! TF.CreationDate,2024-09-05T16:31:49+02:00*
G04 #@! TF.ProjectId,Neptune,4e657074-756e-4652-9e6b-696361645f70,rev?*
G04 #@! TF.SameCoordinates,Original*
G04 #@! TF.FileFunction,Soldermask,Bot*
G04 #@! TF.FilePolarity,Negative*
%FSLAX46Y46*%
G04 Gerber Fmt 4.6, Leading zero omitted, Abs format (unit mm)*
G04 Created by KiCad (PCBNEW 8.0.4) date 2024-09-05 16:31:49*
%MOMM*%
%LPD*%
G01*
G04 APERTURE LIST*
G04 Aperture macros list*
%AMRoundRect*
0 Rectangle with rounded corners*
0 $1 Rounding radius*
0 $2 $3 $4 $5 $6 $7 $8 $9 X,Y pos of 4 corners*
0 Add a 4 corners polygon primitive as box body*
4,1,4,$2,$3,$4,$5,$6,$7,$8,$9,$2,$3,0*
0 Add four circle primitives for the rounded corners*
1,1,$1+$1,$2,$3*
1,1,$1+$1,$4,$5*
1,1,$1+$1,$6,$7*
1,1,$1+$1,$8,$9*
0 Add four rect primitives between the rounded corners*
20,1,$1+$1,$2,$3,$4,$5,0*
20,1,$1+$1,$4,$5,$6,$7,0*
20,1,$1+$1,$6,$7,$8,$9,0*
20,1,$1+$1,$8,$9,$2,$3,0*%
G04 Aperture macros list end*
%ADD10C,1.000000*%
%ADD11C,1.250000*%
%ADD12C,0.100000*%
%ADD13RoundRect,0.150000X-0.150000X1.325000X-0.150000X-1.325000X0.150000X-1.325000X0.150000X1.325000X0*%
%ADD14RoundRect,0.147500X-0.147500X1.327500X-0.147500X-1.327500X0.147500X-1.327500X0.147500X1.327500X0*%
%ADD15RoundRect,0.150000X1.325000X0.150000X-1.325000X0.150000X-1.325000X-0.150000X1.325000X-0.150000X0*%
%ADD16RoundRect,0.147500X1.327500X0.147500X-1.327500X0.147500X-1.327500X-0.147500X1.327500X-0.147500X0*%
%ADD17O,2.400000X2.000000*%
%ADD18R,1.600000X1.600000*%
%ADD19C,1.600000*%
%ADD20O,1.600000X1.600000*%
%ADD21R,1.700000X1.700000*%
%ADD22O,3.600000X2.400000*%
%ADD23O,2.400000X3.000000*%
%ADD24O,2.800000X3.600000*%
%ADD25O,2.000000X2.400000*%
%ADD26C,1.500000*%
%ADD27C,2.000000*%
%ADD28O,2.000000X2.500000*%
%ADD29O,1.800000X2.800000*%
%ADD30R,2.000000X2.000000*%
%ADD31O,2.000000X2.000000*%
%ADD32O,1.600000X2.000000*%
%ADD33O,3.000000X4.400000*%
%ADD34O,4.400000X3.000000*%
%ADD35O,1.100000X1.600000*%
%ADD36C,1.800000*%
%ADD37R,8.000000X1.778000*%
%ADD38RoundRect,0.250000X-0.262500X-0.450000X0.262500X-0.450000X0.262500X0.450000X-0.262500X0.450000X0*%
%ADD39RoundRect,0.250000X0.250000X0.475000X-0.250000X0.475000X-0.250000X-0.475000X0.250000X-0.475000X0*%
%ADD40RoundRect,0.250000X0.475000X-0.250000X0.475000X0.250000X-0.475000X0.250000X-0.475000X-0.250000X0*%
%ADD41R,3.000000X0.600000*%
%ADD42RoundRect,0.250000X-0.250000X-0.475000X0.250000X-0.475000X0.250000X0.475000X-0.250000X0.475000X0*%
%ADD43RoundRect,0.250000X0.450000X-0.262500X0.450000X0.262500X-0.450000X0.262500X-0.450000X-0.262500X0*%
%ADD44RoundRect,0.250000X0.262500X0.450000X-0.262500X0.450000X-0.262500X-0.450000X0.262500X-0.450000X0*%
%ADD45R,0.800000X0.500000*%
%ADD46R,0.800000X0.400000*%
%ADD47R,0.500000X0.800000*%
%ADD48R,0.400000X0.800000*%
%ADD49RoundRect,0.218750X0.381250X-0.218750X0.381250X0.218750X-0.381250X0.218750X-0.381250X-0.218750X0*%
%ADD50RoundRect,0.150000X-0.750000X-0.150000X0.750000X-0.150000X0.750000X0.150000X-0.750000X0.150000X0*%
%ADD51RoundRect,0.250001X0.462499X1.074999X-0.462499X1.074999X-0.462499X-1.074999X0.462499X-1.074999X0*%
%ADD52RoundRect,0.250000X-0.475000X0.250000X-0.475000X-0.250000X0.475000X-0.250000X0.475000X0.250000X0*%
%ADD53RoundRect,0.250000X-0.450000X0.262500X-0.450000X-0.262500X0.450000X-0.262500X0.450000X0.262500X0*%
%ADD54RoundRect,0.218750X0.218750X0.381250X-0.218750X0.381250X-0.218750X-0.381250X0.218750X-0.381250X0*%
%ADD55R,2.000000X0.550000*%
%ADD56R,0.550000X2.000000*%
%ADD57RoundRect,0.250000X0.650000X-0.325000X0.650000X0.325000X-0.650000X0.325000X-0.650000X-0.325000X0*%
%ADD58RoundRect,0.250001X1.074999X-0.462499X1.074999X0.462499X-1.074999X0.462499X-1.074999X-0.462499X0*%
%ADD59RoundRect,0.150000X0.150000X-0.587500X0.150000X0.587500X-0.150000X0.587500X-0.150000X-0.587500X0*%
%ADD60RoundRect,0.250000X0.375000X0.625000X-0.375000X0.625000X-0.375000X-0.625000X0.375000X-0.625000X0*%
%ADD61RoundRect,0.250001X-1.074999X0.462499X-1.074999X-0.462499X1.074999X-0.462499X1.074999X0.462499X0*%
%ADD62R,0.600000X4.000000*%
%ADD63RoundRect,0.250000X0.325000X0.650000X-0.325000X0.650000X-0.325000X-0.650000X0.325000X-0.650000X0*%
%ADD64RoundRect,0.218750X-0.218750X-0.381250X0.218750X-0.381250X0.218750X0.381250X-0.218750X0.381250X0*%
%ADD65RoundRect,0.250000X-0.325000X-0.650000X0.325000X-0.650000X0.325000X0.650000X-0.325000X0.650000X0*%
G04 APERTURE END LIST*
D10*
X198000000Y-44000000D02*
X204000000Y-50000000D01*
X261000000Y-44000000D02*
X269000000Y-52000000D01*
X122500000Y-103500000D02*
X125000000Y-106000000D01*
X255000000Y-44000000D02*
X263000000Y-52000000D01*
X207000000Y-44000000D02*
X211500000Y-48500000D01*
X308500000Y-211500000D02*
X303500000Y-206500000D01*
X204000000Y-44000000D02*
X208500000Y-48500000D01*
X171500000Y-230500000D02*
X173000000Y-232000000D01*
X122500000Y-157500000D02*
X125000000Y-160000000D01*
X138000000Y-44000000D02*
X140500000Y-46500000D01*
X241500000Y-230500000D02*
X239500000Y-228500000D01*
X216000000Y-44000000D02*
X224000000Y-52000000D01*
X290500000Y-199500000D02*
X300500000Y-209500000D01*
X122500000Y-118500000D02*
X125000000Y-121000000D01*
X194000000Y-49000000D02*
X197000000Y-52000000D01*
X129000000Y-44000000D02*
X131500000Y-46500000D01*
X122500000Y-61500000D02*
X125000000Y-64000000D01*
X303500000Y-215500000D02*
X298500000Y-210500000D01*
X308500000Y-190500000D02*
X303500000Y-185500000D01*
X250500000Y-230500000D02*
X248500000Y-228500000D01*
X146000000Y-225000000D02*
X148500000Y-227500000D01*
X151500000Y-230500000D02*
X153000000Y-232000000D01*
X295500000Y-186500000D02*
X293500000Y-184500000D01*
X122500000Y-130500000D02*
X125000000Y-133000000D01*
X273000000Y-44000000D02*
X279000000Y-50000000D01*
X221000000Y-46000000D02*
X227000000Y-52000000D01*
X155000000Y-225000000D02*
X157500000Y-227500000D01*
X195000000Y-44000000D02*
X203000000Y-52000000D01*
X306500000Y-215500000D02*
X304500000Y-213500000D01*
X122500000Y-190500000D02*
X125000000Y-193000000D01*
X126000000Y-44000000D02*
X128500000Y-46500000D01*
X237000000Y-44000000D02*
X245000000Y-52000000D01*
X122500000Y-97500000D02*
X125000000Y-100000000D01*
X122500000Y-91500000D02*
X125000000Y-94000000D01*
X298500000Y-198500000D02*
X308500000Y-208500000D01*
X240000000Y-232000000D02*
X239500000Y-231500000D01*
X122500000Y-124500000D02*
X125000000Y-127000000D01*
X156500000Y-229500000D02*
X159000000Y-232000000D01*
X162000000Y-232000000D02*
X161500000Y-231500000D01*
X233000000Y-46000000D02*
X239000000Y-52000000D01*
X122500000Y-196500000D02*
X125000000Y-199000000D01*
X240000000Y-44000000D02*
X248000000Y-52000000D01*
X295500000Y-189500000D02*
X290500000Y-184500000D01*
X285000000Y-44000000D02*
X286500000Y-45500000D01*
X259500000Y-230500000D02*
X254500000Y-225500000D01*
X122500000Y-163500000D02*
X125000000Y-166000000D01*
X122500000Y-160500000D02*
X125000000Y-163000000D01*
X122500000Y-94500000D02*
X125000000Y-97000000D01*
D11*
X193000000Y-151500000D02*
X201000000Y-159500000D01*
D10*
X122500000Y-109500000D02*
X125000000Y-112000000D01*
X122500000Y-100500000D02*
X125000000Y-103000000D01*
X290500000Y-187500000D02*
X300500000Y-197500000D01*
X122500000Y-184500000D02*
X125000000Y-187000000D01*
X122500000Y-79500000D02*
X125000000Y-82000000D01*
X122500000Y-193500000D02*
X125000000Y-196000000D01*
X165000000Y-228500000D02*
X164500000Y-228000000D01*
X308500000Y-196500000D02*
X303500000Y-191500000D01*
X241000000Y-227000000D02*
X240500000Y-226500000D01*
D11*
X197500000Y-151000000D02*
X202000000Y-155500000D01*
D10*
X249000000Y-232000000D02*
X248500000Y-231500000D01*
X158000000Y-225000000D02*
X159500000Y-226500000D01*
X230000000Y-46000000D02*
X236000000Y-52000000D01*
X298500000Y-192500000D02*
X308500000Y-202500000D01*
X122500000Y-214500000D02*
X125000000Y-217000000D01*
X122500000Y-154500000D02*
X125000000Y-157000000D01*
X253500000Y-230500000D02*
X255000000Y-232000000D01*
X152000000Y-225000000D02*
X154500000Y-227500000D01*
X163500000Y-230500000D02*
X165000000Y-232000000D01*
D11*
X195000000Y-151000000D02*
X202000000Y-158000000D01*
D10*
X135000000Y-44000000D02*
X137500000Y-46500000D01*
X122500000Y-175500000D02*
X125000000Y-178000000D01*
X172500000Y-225500000D02*
X174000000Y-227000000D01*
X308500000Y-205500000D02*
X303500000Y-200500000D01*
X122500000Y-151500000D02*
X125000000Y-154000000D01*
X209000000Y-229000000D02*
X211500000Y-231500000D01*
X308500000Y-187500000D02*
X306500000Y-185500000D01*
X122500000Y-208500000D02*
X125000000Y-211000000D01*
X122500000Y-199500000D02*
X125000000Y-202000000D01*
X256500000Y-230500000D02*
X251500000Y-225500000D01*
D11*
X193000000Y-159000000D02*
X193500000Y-159500000D01*
D10*
X267000000Y-44000000D02*
X275000000Y-52000000D01*
X122500000Y-85500000D02*
X125000000Y-88000000D01*
X262500000Y-230500000D02*
X257500000Y-225500000D01*
X144500000Y-226500000D02*
X147000000Y-229000000D01*
X252000000Y-44000000D02*
X260000000Y-52000000D01*
X122500000Y-145500000D02*
X125000000Y-148000000D01*
X132000000Y-44000000D02*
X134500000Y-46500000D01*
X246000000Y-44000000D02*
X254000000Y-52000000D01*
X122500000Y-106500000D02*
X125000000Y-109000000D01*
X224000000Y-46000000D02*
X228500000Y-50500000D01*
X122500000Y-166500000D02*
X125000000Y-169000000D01*
X122500000Y-139500000D02*
X125000000Y-142000000D01*
X268500000Y-230500000D02*
X263500000Y-225500000D01*
X122500000Y-205500000D02*
X125000000Y-208000000D01*
X210000000Y-44000000D02*
X214500000Y-48500000D01*
X122500000Y-58500000D02*
X125000000Y-61000000D01*
X204000000Y-229000000D02*
X206500000Y-231500000D01*
X122500000Y-187500000D02*
X125000000Y-190000000D01*
X270000000Y-44000000D02*
X278000000Y-52000000D01*
X282000000Y-44000000D02*
X286000000Y-48000000D01*
X213000000Y-44000000D02*
X221000000Y-52000000D01*
X295500000Y-195500000D02*
X290500000Y-190500000D01*
X237500000Y-47500000D02*
X242000000Y-52000000D01*
X258000000Y-44000000D02*
X266000000Y-52000000D01*
X264000000Y-44000000D02*
X272000000Y-52000000D01*
X172500000Y-228500000D02*
X174000000Y-230000000D01*
X122500000Y-172500000D02*
X125000000Y-175000000D01*
X122500000Y-67500000D02*
X125000000Y-70000000D01*
X122500000Y-169500000D02*
X125000000Y-172000000D01*
X122500000Y-202500000D02*
X125000000Y-205000000D01*
X194000000Y-46000000D02*
X200000000Y-52000000D01*
X204000000Y-231500000D02*
X203500000Y-231000000D01*
X279000000Y-44000000D02*
X285000000Y-50000000D01*
X290500000Y-208500000D02*
X297500000Y-215500000D01*
X308500000Y-193500000D02*
X303500000Y-188500000D01*
X148500000Y-230500000D02*
X150000000Y-232000000D01*
X243000000Y-44000000D02*
X251000000Y-52000000D01*
X122500000Y-70500000D02*
X125000000Y-73000000D01*
X276000000Y-44000000D02*
X282000000Y-50000000D01*
X212000000Y-229500000D02*
X211500000Y-229000000D01*
X122500000Y-127500000D02*
X125000000Y-130000000D01*
X122500000Y-73500000D02*
X125000000Y-76000000D01*
X122500000Y-181500000D02*
X125000000Y-184000000D01*
X265500000Y-230500000D02*
X260500000Y-225500000D01*
X122500000Y-88500000D02*
X125000000Y-91000000D01*
X290500000Y-193500000D02*
X300500000Y-203500000D01*
X122500000Y-142500000D02*
X125000000Y-145000000D01*
X122500000Y-82500000D02*
X125000000Y-85000000D01*
X122500000Y-178500000D02*
X125000000Y-181000000D01*
X253500000Y-230500000D02*
X248500000Y-225500000D01*
X295500000Y-207500000D02*
X290500000Y-202500000D01*
X290500000Y-205500000D02*
X300500000Y-215500000D01*
X122500000Y-64500000D02*
X125000000Y-67000000D01*
X308500000Y-199500000D02*
X303500000Y-194500000D01*
X153500000Y-229500000D02*
X156000000Y-232000000D01*
X271500000Y-227500000D02*
X269500000Y-225500000D01*
X298500000Y-204500000D02*
X308500000Y-214500000D01*
X227000000Y-46000000D02*
X231500000Y-50500000D01*
X122500000Y-76500000D02*
X125000000Y-79000000D01*
X144500000Y-229500000D02*
X147000000Y-232000000D01*
X122500000Y-148500000D02*
X125000000Y-151000000D01*
X271500000Y-230500000D02*
X266500000Y-225500000D01*
X295500000Y-201500000D02*
X290500000Y-196500000D01*
X249000000Y-44000000D02*
X257000000Y-52000000D01*
X206500000Y-229000000D02*
X209000000Y-231500000D01*
X122500000Y-112500000D02*
X125000000Y-115000000D01*
D11*
X193000000Y-154000000D02*
X198500000Y-159500000D01*
D10*
X122500000Y-115500000D02*
X125000000Y-118000000D01*
D11*
X193000000Y-156500000D02*
X196000000Y-159500000D01*
D10*
X161500000Y-225500000D02*
X161000000Y-225000000D01*
X122500000Y-211500000D02*
X125000000Y-214000000D01*
X201000000Y-44000000D02*
X205500000Y-48500000D01*
X241500000Y-230500000D02*
X243000000Y-232000000D01*
X294500000Y-215500000D02*
X292500000Y-213500000D01*
X250500000Y-230500000D02*
X252000000Y-232000000D01*
D11*
X200000000Y-151000000D02*
X202000000Y-153000000D01*
D10*
X122500000Y-121500000D02*
X125000000Y-124000000D01*
X149000000Y-225000000D02*
X150500000Y-226500000D01*
D12*
X163235000Y-52154200D02*
X161985000Y-53404200D01*
X160235000Y-53404200D01*
X160235000Y-49404200D01*
X163235000Y-49404200D01*
X163235000Y-52154200D01*
G36*
X163235000Y-52154200D02*
G01*
X161985000Y-53404200D01*
X160235000Y-53404200D01*
X160235000Y-49404200D01*
X163235000Y-49404200D01*
X163235000Y-52154200D01*
G37*
X171235000Y-53404200D02*
X169485000Y-53404200D01*
X168235000Y-52154200D01*
X168235000Y-49404200D01*
X171235000Y-49404200D01*
X171235000Y-53404200D01*
G36*
X171235000Y-53404200D02*
G01*
X169485000Y-53404200D01*
X168235000Y-52154200D01*
X168235000Y-49404200D01*
X171235000Y-49404200D01*
X171235000Y-53404200D01*
G37*
X168235000Y-53404200D02*
X168235000Y-55654200D01*
X163235000Y-55654200D01*
X163235000Y-53404200D01*
X164485000Y-52154200D01*
X166985000Y-52154200D01*
X168235000Y-53404200D01*
G36*
X168235000Y-53404200D02*
G01*
X168235000Y-55654200D01*
X163235000Y-55654200D01*
X163235000Y-53404200D01*
X164485000Y-52154200D01*
X166985000Y-52154200D01*
X168235000Y-53404200D01*
G37*
D13*
X229080000Y-164695000D03*
X230350000Y-164695000D03*
X231620000Y-164695000D03*
X232890000Y-164695000D03*
X234160000Y-164695000D03*
X235430000Y-164695000D03*
X236700000Y-164695000D03*
X236700000Y-170645000D03*
X235430000Y-170645000D03*
X234160000Y-170645000D03*
X232890000Y-170645000D03*
X231620000Y-170645000D03*
D14*
X230345000Y-170645000D03*
D13*
X229080000Y-170645000D03*
D15*
X247442500Y-157790000D03*
X247442500Y-159060000D03*
X247442500Y-160330000D03*
X247442500Y-161600000D03*
X247442500Y-162870000D03*
X247442500Y-164140000D03*
X247442500Y-165410000D03*
X241492500Y-165410000D03*
X241492500Y-164140000D03*
X241492500Y-162870000D03*
X241492500Y-161600000D03*
X241492500Y-160330000D03*
D16*
X241492500Y-159055000D03*
D15*
X241492500Y-157790000D03*
D17*
X236500000Y-222400000D03*
X236500000Y-219900000D03*
X236500000Y-217400000D03*
D18*
X152205113Y-141732000D03*
D19*
X149705113Y-141732000D03*
D18*
X267544888Y-124500000D03*
D19*
X270044888Y-124500000D03*
D18*
X263300000Y-207825000D03*
D20*
X265840000Y-207825000D03*
X268380000Y-207825000D03*
X270920000Y-207825000D03*
X273460000Y-207825000D03*
X276000000Y-207825000D03*
X278540000Y-207825000D03*
X278540000Y-200205000D03*
X276000000Y-200205000D03*
X273460000Y-200205000D03*
X270920000Y-200205000D03*
X268380000Y-200205000D03*
X265840000Y-200205000D03*
X263300000Y-200205000D03*
D18*
X135300000Y-108250000D03*
D19*
X135300000Y-105750000D03*
D18*
X181025000Y-93055112D03*
D19*
X183525000Y-93055112D03*
D18*
X146675000Y-90600000D03*
D19*
X149175000Y-90600000D03*
D17*
X216100000Y-222400000D03*
X216100000Y-219900000D03*
X216100000Y-217400000D03*
D18*
X173400000Y-80010000D03*
D19*
X170900000Y-80010000D03*
D18*
X209000000Y-75050000D03*
D19*
X206500000Y-75050000D03*
D21*
X299825000Y-92875000D03*
D17*
X197700000Y-222400000D03*
X197700000Y-219900000D03*
X197700000Y-217400000D03*
X226300000Y-222400000D03*
X226300000Y-219900000D03*
X226300000Y-217400000D03*
D22*
X165735000Y-53904200D03*
D23*
X161735000Y-51404200D03*
X169735000Y-51404200D03*
D24*
X244775000Y-194575000D03*
X255075000Y-194575000D03*
X244775000Y-199575000D03*
X255075000Y-199575000D03*
D25*
X194600000Y-56100000D03*
X197100000Y-56100000D03*
X199600000Y-56100000D03*
D18*
X140832651Y-70739000D03*
D19*
X135832651Y-70739000D03*
D18*
X145900000Y-103075000D03*
D19*
X145900000Y-100575000D03*
D26*
X175755000Y-85925000D03*
X180655000Y-85925000D03*
D18*
X279125000Y-78225000D03*
D19*
X263885000Y-78225000D03*
X263885000Y-85845000D03*
X279125000Y-85845000D03*
D17*
X219500000Y-222400000D03*
X219500000Y-219900000D03*
X219500000Y-217400000D03*
X212700000Y-222400000D03*
X212700000Y-219900000D03*
X212700000Y-217400000D03*
X229700000Y-222400000D03*
X229700000Y-219900000D03*
X229700000Y-217400000D03*
D18*
X249425000Y-120125000D03*
D19*
X251925000Y-120125000D03*
D27*
X166482400Y-199500000D03*
X161482400Y-194500000D03*
X166482400Y-194500000D03*
X161482400Y-197000000D03*
X166482400Y-197000000D03*
D28*
X217370400Y-226682200D03*
X220140400Y-226682200D03*
X222910400Y-226682200D03*
X225680400Y-226682200D03*
X228450400Y-226682200D03*
X218755400Y-229522200D03*
X221525400Y-229522200D03*
X224295400Y-229522200D03*
X227065400Y-229522200D03*
D17*
X187500000Y-222400000D03*
X187500000Y-219900000D03*
X187500000Y-217400000D03*
D29*
X167538400Y-104140000D03*
X170078400Y-104140000D03*
X172618400Y-104140000D03*
X175158400Y-104140000D03*
X177698400Y-104140000D03*
X180238400Y-104140000D03*
X182778400Y-104140000D03*
X185318400Y-104140000D03*
X187858400Y-104140000D03*
X190398400Y-104140000D03*
X192938400Y-104140000D03*
X195478400Y-104140000D03*
X198018400Y-104140000D03*
X200558400Y-104140000D03*
X203098400Y-104140000D03*
X205638400Y-104140000D03*
X208178400Y-104140000D03*
X210718400Y-104140000D03*
X213258400Y-104140000D03*
X215798400Y-104140000D03*
X218338400Y-104140000D03*
X220878400Y-104140000D03*
X223418400Y-104140000D03*
X225958400Y-104140000D03*
X228498400Y-104140000D03*
X231038400Y-104140000D03*
X233578400Y-104140000D03*
X236118400Y-104140000D03*
X238658400Y-104140000D03*
X241198400Y-104140000D03*
X243738400Y-104140000D03*
X246278400Y-104140000D03*
X167538400Y-109140000D03*
X170078400Y-109140000D03*
X172618400Y-109140000D03*
X175158400Y-109140000D03*
X177698400Y-109140000D03*
X180238400Y-109140000D03*
X182778400Y-109140000D03*
X185318400Y-109140000D03*
X187858400Y-109140000D03*
X190398400Y-109140000D03*
X192938400Y-109140000D03*
X195478400Y-109140000D03*
X198018400Y-109140000D03*
X200558400Y-109140000D03*
X203098400Y-109140000D03*
X205638400Y-109140000D03*
X208178400Y-109140000D03*
X210718400Y-109140000D03*
X213258400Y-109140000D03*
X215798400Y-109140000D03*
X218338400Y-109140000D03*
X220878400Y-109140000D03*
X223418400Y-109140000D03*
X225958400Y-109140000D03*
X228498400Y-109140000D03*
X231038400Y-109140000D03*
X233578400Y-109140000D03*
X236118400Y-109140000D03*
X238658400Y-109140000D03*
X241198400Y-109140000D03*
X243738400Y-109140000D03*
X246278400Y-109140000D03*
D18*
X261850000Y-188075000D03*
D19*
X264350000Y-188075000D03*
D30*
X153924000Y-136779000D03*
D31*
X148844000Y-136779000D03*
D17*
X201100000Y-222400000D03*
X201100000Y-219900000D03*
X201100000Y-217400000D03*
D32*
X181553800Y-50916200D03*
X183553800Y-50916200D03*
X178803800Y-50916200D03*
X180803800Y-53416200D03*
X182803800Y-53416200D03*
X186803800Y-50916200D03*
X178803800Y-53416200D03*
X184803800Y-53416200D03*
X186803800Y-53416200D03*
D33*
X175553800Y-47416200D03*
X175553800Y-53916200D03*
D34*
X182803800Y-47166200D03*
D33*
X190053800Y-47416200D03*
X190053800Y-53916200D03*
D21*
X159025000Y-56700000D03*
D24*
X255075000Y-209067400D03*
X244775000Y-209067400D03*
X255075000Y-204067400D03*
X244775000Y-204067400D03*
D28*
X185366400Y-226682200D03*
X188136400Y-226682200D03*
X190906400Y-226682200D03*
X193676400Y-226682200D03*
X196446400Y-226682200D03*
X186751400Y-229522200D03*
X189521400Y-229522200D03*
X192291400Y-229522200D03*
X195061400Y-229522200D03*
D18*
X141825000Y-108250000D03*
D19*
X141825000Y-105750000D03*
D27*
X161482400Y-204000000D03*
X166482400Y-209000000D03*
X161482400Y-209000000D03*
X166482400Y-206500000D03*
X161482400Y-206500000D03*
D17*
X222900000Y-222400000D03*
X222900000Y-219900000D03*
X222900000Y-217400000D03*
D18*
X135325000Y-127275000D03*
D19*
X135325000Y-129775000D03*
D18*
X252900000Y-66900000D03*
D19*
X255400000Y-66900000D03*
D17*
X233100000Y-222400000D03*
X233100000Y-219900000D03*
X233100000Y-217400000D03*
D35*
X204995000Y-206500000D03*
X206265000Y-206500000D03*
X207535000Y-206500000D03*
X208805000Y-206500000D03*
D18*
X161175000Y-82425000D03*
D19*
X163675000Y-82425000D03*
D17*
X194300000Y-222400000D03*
X194300000Y-219900000D03*
X194300000Y-217400000D03*
D18*
X289500000Y-87700000D03*
D19*
X289500000Y-85200000D03*
D17*
X177300000Y-222400000D03*
X177300000Y-219900000D03*
X177300000Y-217400000D03*
D18*
X139950000Y-89375000D03*
D19*
X139950000Y-91875000D03*
D17*
X180700000Y-222400000D03*
X180700000Y-219900000D03*
X180700000Y-217400000D03*
D18*
X211170000Y-61590000D03*
D19*
X208670000Y-61590000D03*
D18*
X159025000Y-77025000D03*
D19*
X161525000Y-77025000D03*
D18*
X144272000Y-70739000D03*
D19*
X146772000Y-70739000D03*
D17*
X190900000Y-222400000D03*
X190900000Y-219900000D03*
X190900000Y-217400000D03*
D18*
X182525000Y-67475000D03*
D19*
X180025000Y-67475000D03*
D18*
X138425000Y-185524999D03*
D19*
X138425000Y-183024999D03*
D21*
X299825000Y-87775000D03*
D36*
X178200000Y-92250000D03*
X173200000Y-92250000D03*
D37*
X307111400Y-156362400D03*
X307111400Y-153822400D03*
X307111400Y-151282400D03*
X307111400Y-148742400D03*
X307111400Y-146202400D03*
X307111400Y-143662400D03*
X307111400Y-141122400D03*
X307111400Y-138582400D03*
X307111400Y-136042400D03*
X307111400Y-133502400D03*
X307111400Y-130962400D03*
X307111400Y-128422400D03*
X307111400Y-125882400D03*
X307111400Y-123342400D03*
X307111400Y-120802400D03*
X307111400Y-118262400D03*
X307111400Y-115722400D03*
X307111400Y-113182400D03*
X307111400Y-110642400D03*
X307111400Y-108102400D03*
X307111400Y-105562400D03*
X307111400Y-103022400D03*
X307111400Y-100482400D03*
X307111400Y-97942400D03*
X307111400Y-95402400D03*
X307111400Y-92862400D03*
X307111400Y-90322400D03*
X307111400Y-87782400D03*
X307111400Y-85242400D03*
X307111400Y-82702400D03*
D17*
X184100000Y-222400000D03*
X184100000Y-219900000D03*
X184100000Y-217400000D03*
D18*
X141100000Y-127275000D03*
D19*
X141100000Y-129775000D03*
D18*
X139625000Y-102350000D03*
D19*
X139625000Y-99850000D03*
D38*
X136587500Y-111280000D03*
X138412500Y-111280000D03*
D39*
X148962500Y-131830000D03*
X147062500Y-131830000D03*
D40*
X187450000Y-76825000D03*
X187450000Y-74925000D03*
D41*
X201925000Y-67160000D03*
X201925000Y-68430000D03*
X201925000Y-69700000D03*
X201925000Y-70970000D03*
X201925000Y-72240000D03*
X201925000Y-73510000D03*
X201925000Y-74780000D03*
X201925000Y-76050000D03*
X201925000Y-77320000D03*
X201925000Y-78590000D03*
X201925000Y-79860000D03*
X201925000Y-81130000D03*
X201925000Y-82400000D03*
X201925000Y-83670000D03*
X201925000Y-84940000D03*
X201925000Y-86210000D03*
X201925000Y-87480000D03*
X201925000Y-88750000D03*
X201925000Y-90020000D03*
X201925000Y-91290000D03*
X191925000Y-91290000D03*
X191925000Y-90020000D03*
X191925000Y-88750000D03*
X191925000Y-87480000D03*
X191925000Y-86210000D03*
X191925000Y-84940000D03*
X191925000Y-83670000D03*
X191925000Y-82400000D03*
X191925000Y-81130000D03*
X191925000Y-79860000D03*
X191925000Y-78590000D03*
X191925000Y-77320000D03*
X191925000Y-76050000D03*
X191925000Y-74780000D03*
X191925000Y-73510000D03*
X191925000Y-72240000D03*
X191925000Y-70970000D03*
X191925000Y-69700000D03*
X191925000Y-68430000D03*
X191925000Y-67160000D03*
D42*
X275600000Y-139875000D03*
X277500000Y-139875000D03*
D39*
X151850000Y-125230000D03*
X149950000Y-125230000D03*
D43*
X149275000Y-115387500D03*
X149275000Y-113562500D03*
D44*
X138412500Y-113530000D03*
X136587500Y-113530000D03*
D45*
X295500000Y-147400000D03*
D46*
X295500000Y-146600000D03*
X295500000Y-145800000D03*
D45*
X295500000Y-145000000D03*
X297300000Y-145000000D03*
D46*
X297300000Y-145800000D03*
X297300000Y-146600000D03*
D45*
X297300000Y-147400000D03*
D44*
X145025000Y-133930000D03*
X143200000Y-133930000D03*
D47*
X282675000Y-77750000D03*
D48*
X283475000Y-77750000D03*
X284275000Y-77750000D03*
D47*
X285075000Y-77750000D03*
X285075000Y-79550000D03*
D48*
X284275000Y-79550000D03*
X283475000Y-79550000D03*
D47*
X282675000Y-79550000D03*
D45*
X180150000Y-138950000D03*
D46*
X180150000Y-138150000D03*
X180150000Y-137350000D03*
D45*
X180150000Y-136550000D03*
X181950000Y-136550000D03*
D46*
X181950000Y-137350000D03*
X181950000Y-138150000D03*
D45*
X181950000Y-138950000D03*
D38*
X149987500Y-123130000D03*
X151812500Y-123130000D03*
D44*
X244692500Y-178910000D03*
X242867500Y-178910000D03*
D49*
X178800000Y-59400000D03*
X178800000Y-57275000D03*
D44*
X213237500Y-94125000D03*
X211412500Y-94125000D03*
D45*
X207675000Y-69525000D03*
D46*
X207675000Y-68725000D03*
X207675000Y-67925000D03*
D45*
X207675000Y-67125000D03*
X209475000Y-67125000D03*
D46*
X209475000Y-67925000D03*
X209475000Y-68725000D03*
D45*
X209475000Y-69525000D03*
D42*
X151275000Y-177750000D03*
X153175000Y-177750000D03*
D49*
X180800000Y-59400000D03*
X180800000Y-57275000D03*
D43*
X156375000Y-90862500D03*
X156375000Y-89037500D03*
D38*
X185387500Y-90600000D03*
X187212500Y-90600000D03*
D39*
X187450000Y-79875000D03*
X185550000Y-79875000D03*
D44*
X227932500Y-64710000D03*
X226107500Y-64710000D03*
D39*
X164575000Y-116900000D03*
X162675000Y-116900000D03*
X141312500Y-133930000D03*
X139412500Y-133930000D03*
D50*
X248950000Y-90775000D03*
X248950000Y-89505000D03*
X248950000Y-88235000D03*
X248950000Y-86965000D03*
X248950000Y-85695000D03*
X248950000Y-84425000D03*
X248950000Y-83155000D03*
X248950000Y-81885000D03*
X248950000Y-80615000D03*
X248950000Y-79345000D03*
X248950000Y-78075000D03*
X248950000Y-76805000D03*
X248950000Y-75535000D03*
X248950000Y-74265000D03*
X260150000Y-74265000D03*
X260150000Y-75535000D03*
X260150000Y-76805000D03*
X260150000Y-78075000D03*
X260150000Y-79345000D03*
X260150000Y-80615000D03*
X260150000Y-81885000D03*
X260150000Y-83155000D03*
X260150000Y-84425000D03*
X260150000Y-85695000D03*
X260150000Y-86965000D03*
X260150000Y-88235000D03*
X260150000Y-89505000D03*
X260150000Y-90775000D03*
D51*
X243512500Y-132125000D03*
X240537500Y-132125000D03*
D49*
X173800000Y-59425000D03*
X173800000Y-57300000D03*
D40*
X181125000Y-83025000D03*
X181125000Y-81125000D03*
D43*
X148307000Y-80520500D03*
X148307000Y-78695500D03*
D38*
X143980750Y-81548000D03*
X145805750Y-81548000D03*
D52*
X137450000Y-119980000D03*
X137450000Y-121880000D03*
X145500000Y-123480000D03*
X145500000Y-125380000D03*
D42*
X150762500Y-133930000D03*
X152662500Y-133930000D03*
D40*
X277275000Y-83850000D03*
X277275000Y-81950000D03*
D53*
X165200000Y-92037500D03*
X165200000Y-93862500D03*
D42*
X264950000Y-182600000D03*
X266850000Y-182600000D03*
D40*
X174300000Y-169725000D03*
X174300000Y-167825000D03*
D54*
X240862500Y-181290000D03*
X238737500Y-181290000D03*
D52*
X225990000Y-78960000D03*
X225990000Y-80860000D03*
D44*
X226212500Y-164690000D03*
X224387500Y-164690000D03*
D45*
X207675000Y-72450000D03*
X207675000Y-71450000D03*
X209475000Y-71450000D03*
X209475000Y-72450000D03*
D43*
X265800000Y-204987500D03*
X265800000Y-203162500D03*
D39*
X241200000Y-116925000D03*
X239300000Y-116925000D03*
D40*
X251700000Y-160750000D03*
X251700000Y-158850000D03*
D52*
X245475000Y-76625000D03*
X245475000Y-78525000D03*
D42*
X140305750Y-79548000D03*
X142205750Y-79548000D03*
D55*
X228760000Y-84860000D03*
X228760000Y-84060000D03*
X228760000Y-83260000D03*
X228760000Y-82460000D03*
X228760000Y-81660000D03*
X228760000Y-80860000D03*
X228760000Y-80060000D03*
X228760000Y-79260000D03*
X228760000Y-78460000D03*
X228760000Y-77660000D03*
X228760000Y-76860000D03*
D56*
X231260000Y-74360000D03*
X232060000Y-74360000D03*
X232860000Y-74360000D03*
X233660000Y-74360000D03*
X234460000Y-74360000D03*
X235260000Y-74360000D03*
X236060000Y-74360000D03*
X236860000Y-74360000D03*
X237660000Y-74360000D03*
X238460000Y-74360000D03*
X239260000Y-74360000D03*
D55*
X241760000Y-76860000D03*
X241760000Y-77660000D03*
X241760000Y-78460000D03*
X241760000Y-79260000D03*
X241760000Y-80060000D03*
X241760000Y-80860000D03*
X241760000Y-81660000D03*
X241760000Y-82460000D03*
X241760000Y-83260000D03*
X241760000Y-84060000D03*
X241760000Y-84860000D03*
D56*
X239260000Y-87360000D03*
X238460000Y-87360000D03*
X237660000Y-87360000D03*
X236860000Y-87360000D03*
X236060000Y-87360000D03*
X235260000Y-87360000D03*
X234460000Y-87360000D03*
X233660000Y-87360000D03*
X232860000Y-87360000D03*
X232060000Y-87360000D03*
X231260000Y-87360000D03*
D38*
X154312500Y-82425000D03*
X156137500Y-82425000D03*
D57*
X172160000Y-170250000D03*
X172160000Y-167300000D03*
D43*
X169350000Y-93862500D03*
X169350000Y-92037500D03*
D38*
X139450000Y-131830000D03*
X141275000Y-131830000D03*
D39*
X151850000Y-118930000D03*
X149950000Y-118930000D03*
D38*
X149987500Y-121030000D03*
X151812500Y-121030000D03*
D44*
X284662500Y-167050000D03*
X282837500Y-167050000D03*
D52*
X137450000Y-123430000D03*
X137450000Y-125330000D03*
D38*
X154312500Y-77025000D03*
X156137500Y-77025000D03*
D39*
X146450000Y-115080000D03*
X144550000Y-115080000D03*
D53*
X224380000Y-168057500D03*
X224380000Y-169882500D03*
D44*
X163312500Y-172750000D03*
X161487500Y-172750000D03*
D43*
X152275000Y-90862500D03*
X152275000Y-89037500D03*
D41*
X201500000Y-121630000D03*
X201500000Y-122900000D03*
X201500000Y-124170000D03*
X201500000Y-125440000D03*
X201500000Y-126710000D03*
X201500000Y-127980000D03*
X201500000Y-129250000D03*
X201500000Y-130520000D03*
X201500000Y-131790000D03*
X201500000Y-133060000D03*
X201500000Y-134330000D03*
X201500000Y-135600000D03*
X201500000Y-136870000D03*
X201500000Y-138140000D03*
X201500000Y-139410000D03*
X201500000Y-140680000D03*
X201500000Y-141950000D03*
X201500000Y-143220000D03*
X201500000Y-144490000D03*
X201500000Y-145760000D03*
X187500000Y-145760000D03*
X187500000Y-144490000D03*
X187500000Y-143220000D03*
X187500000Y-141950000D03*
X187500000Y-140680000D03*
X187500000Y-139410000D03*
X187500000Y-138140000D03*
X187500000Y-136870000D03*
X187500000Y-135600000D03*
X187500000Y-134330000D03*
X187500000Y-133060000D03*
X187500000Y-131790000D03*
X187500000Y-130520000D03*
X187500000Y-129250000D03*
X187500000Y-127980000D03*
X187500000Y-126710000D03*
X187500000Y-125440000D03*
X187500000Y-124170000D03*
X187500000Y-122900000D03*
X187500000Y-121630000D03*
D43*
X185325000Y-70137500D03*
X185325000Y-68312500D03*
D57*
X279800000Y-160475000D03*
X279800000Y-157525000D03*
D49*
X176800000Y-59425000D03*
X176800000Y-57300000D03*
D42*
X205775000Y-82325000D03*
X207675000Y-82325000D03*
D40*
X178750000Y-96375000D03*
X178750000Y-94475000D03*
D39*
X166130000Y-123480000D03*
X164230000Y-123480000D03*
D40*
X176400000Y-96375000D03*
X176400000Y-94475000D03*
X184825000Y-65125000D03*
X184825000Y-63225000D03*
D45*
X287750000Y-81500000D03*
D46*
X287750000Y-82300000D03*
X287750000Y-83100000D03*
D45*
X287750000Y-83900000D03*
X285950000Y-83900000D03*
D46*
X285950000Y-83100000D03*
X285950000Y-82300000D03*
D45*
X285950000Y-81500000D03*
D38*
X143980750Y-85548000D03*
X145805750Y-85548000D03*
D58*
X187525000Y-66262500D03*
X187525000Y-63287500D03*
D38*
X144587500Y-112730000D03*
X146412500Y-112730000D03*
D43*
X181625000Y-89837500D03*
X181625000Y-88012500D03*
D47*
X276175000Y-89550000D03*
D48*
X276975000Y-89550000D03*
X277775000Y-89550000D03*
D47*
X278575000Y-89550000D03*
X278575000Y-91350000D03*
D48*
X277775000Y-91350000D03*
X276975000Y-91350000D03*
D47*
X276175000Y-91350000D03*
D42*
X140305750Y-85548000D03*
X142205750Y-85548000D03*
D39*
X232125000Y-62775000D03*
X230225000Y-62775000D03*
D26*
X194525000Y-114550000D03*
D59*
X176675000Y-90012500D03*
X174775000Y-90012500D03*
X175725000Y-88137500D03*
D39*
X264375000Y-83800000D03*
X262475000Y-83800000D03*
D60*
X273500000Y-139725000D03*
X270700000Y-139725000D03*
D61*
X184575000Y-74812500D03*
X184575000Y-77787500D03*
D49*
X186800000Y-59400000D03*
X186800000Y-57275000D03*
D44*
X138412500Y-83550000D03*
X136587500Y-83550000D03*
D40*
X217425000Y-95675000D03*
X217425000Y-93775000D03*
D42*
X140305750Y-83548000D03*
X142205750Y-83548000D03*
D38*
X211412500Y-91750000D03*
X213237500Y-91750000D03*
D40*
X179600000Y-89900000D03*
X179600000Y-88000000D03*
D62*
X277660000Y-160800000D03*
X276390000Y-160800000D03*
X275120000Y-160800000D03*
X273850000Y-160800000D03*
X272580000Y-160800000D03*
X271310000Y-160800000D03*
X270040000Y-160800000D03*
X268770000Y-160800000D03*
X267500000Y-160800000D03*
X266230000Y-160800000D03*
X264960000Y-160800000D03*
X263690000Y-160800000D03*
X262420000Y-160800000D03*
X261150000Y-160800000D03*
X259880000Y-160800000D03*
X258610000Y-160800000D03*
X257340000Y-160800000D03*
X256070000Y-160800000D03*
X254800000Y-160800000D03*
X253530000Y-160800000D03*
X253530000Y-148800000D03*
X254800000Y-148800000D03*
X256070000Y-148800000D03*
X257340000Y-148800000D03*
X258610000Y-148800000D03*
X259880000Y-148800000D03*
X261150000Y-148800000D03*
X262420000Y-148800000D03*
X263690000Y-148800000D03*
X264960000Y-148800000D03*
X266230000Y-148800000D03*
X267500000Y-148800000D03*
X268770000Y-148800000D03*
X270040000Y-148800000D03*
X271310000Y-148800000D03*
X272580000Y-148800000D03*
X273850000Y-148800000D03*
X275120000Y-148800000D03*
X276390000Y-148800000D03*
X277660000Y-148800000D03*
D40*
X222530000Y-180650000D03*
X222530000Y-178750000D03*
X226430000Y-169910000D03*
X226430000Y-168010000D03*
D42*
X282850000Y-163000000D03*
X284750000Y-163000000D03*
D43*
X158350000Y-90862500D03*
X158350000Y-89037500D03*
D47*
X221300000Y-60325000D03*
D48*
X220500000Y-60325000D03*
X219700000Y-60325000D03*
D47*
X218900000Y-60325000D03*
X218900000Y-58525000D03*
D48*
X219700000Y-58525000D03*
X220500000Y-58525000D03*
D47*
X221300000Y-58525000D03*
D52*
X145500000Y-119980000D03*
X145500000Y-121880000D03*
D47*
X215300000Y-60325000D03*
D48*
X214500000Y-60325000D03*
X213700000Y-60325000D03*
D47*
X212900000Y-60325000D03*
X212900000Y-58525000D03*
D48*
X213700000Y-58525000D03*
X214500000Y-58525000D03*
D47*
X215300000Y-58525000D03*
D40*
X183200000Y-83025000D03*
X183200000Y-81125000D03*
D42*
X136550000Y-118050000D03*
X138450000Y-118050000D03*
D44*
X138412500Y-81500000D03*
X136587500Y-81500000D03*
D62*
X277665000Y-178600000D03*
X276395000Y-178600000D03*
X275125000Y-178600000D03*
X273855000Y-178600000D03*
X272585000Y-178600000D03*
X271315000Y-178600000D03*
X270045000Y-178600000D03*
X268775000Y-178600000D03*
X267505000Y-178600000D03*
X266235000Y-178600000D03*
X264965000Y-178600000D03*
X263695000Y-178600000D03*
X262425000Y-178600000D03*
X261155000Y-178600000D03*
X259885000Y-178600000D03*
X258615000Y-178600000D03*
X257345000Y-178600000D03*
X256075000Y-178600000D03*
X254805000Y-178600000D03*
X253535000Y-178600000D03*
X253535000Y-166600000D03*
X254805000Y-166600000D03*
X256075000Y-166600000D03*
X257345000Y-166600000D03*
X258615000Y-166600000D03*
X259885000Y-166600000D03*
X261155000Y-166600000D03*
X262425000Y-166600000D03*
X263695000Y-166600000D03*
X264965000Y-166600000D03*
X266235000Y-166600000D03*
X267505000Y-166600000D03*
X268775000Y-166600000D03*
X270045000Y-166600000D03*
X271315000Y-166600000D03*
X272585000Y-166600000D03*
X273855000Y-166600000D03*
X275125000Y-166600000D03*
X276395000Y-166600000D03*
X277665000Y-166600000D03*
D44*
X284662500Y-169150000D03*
X282837500Y-169150000D03*
D52*
X217060000Y-62020000D03*
X217060000Y-63920000D03*
D49*
X184800000Y-59400000D03*
X184800000Y-57275000D03*
D47*
X224620000Y-120730000D03*
D48*
X225420000Y-120730000D03*
X226220000Y-120730000D03*
D47*
X227020000Y-120730000D03*
X227020000Y-122530000D03*
D48*
X226220000Y-122530000D03*
X225420000Y-122530000D03*
D47*
X224620000Y-122530000D03*
D39*
X138450000Y-115850000D03*
X136550000Y-115850000D03*
X214400000Y-81150000D03*
X212500000Y-81150000D03*
D42*
X230325000Y-95925000D03*
X232225000Y-95925000D03*
D52*
X181550000Y-74825000D03*
X181550000Y-76725000D03*
D63*
X209125000Y-177550000D03*
X206175000Y-177550000D03*
D44*
X148887500Y-93125000D03*
X147062500Y-93125000D03*
D40*
X263275000Y-205000000D03*
X263275000Y-203100000D03*
D43*
X180800000Y-64262500D03*
X180800000Y-62437500D03*
D42*
X169725000Y-140475000D03*
X171625000Y-140475000D03*
D49*
X264075000Y-82112500D03*
X264075000Y-79987500D03*
D40*
X179025000Y-83025000D03*
X179025000Y-81125000D03*
D38*
X185387500Y-86450000D03*
X187212500Y-86450000D03*
D57*
X225000000Y-181710000D03*
X225000000Y-178760000D03*
D45*
X206870000Y-80050000D03*
D46*
X206870000Y-79250000D03*
X206870000Y-78450000D03*
D45*
X206870000Y-77650000D03*
X208670000Y-77650000D03*
D46*
X208670000Y-78450000D03*
X208670000Y-79250000D03*
D45*
X208670000Y-80050000D03*
D43*
X167250000Y-93862500D03*
X167250000Y-92037500D03*
D44*
X282837500Y-172625000D03*
X281012500Y-172625000D03*
X152625000Y-131830000D03*
X150800000Y-131830000D03*
D43*
X244275000Y-184437500D03*
X244275000Y-182612500D03*
X222370000Y-167832500D03*
X222370000Y-166007500D03*
D42*
X253550000Y-182600000D03*
X255450000Y-182600000D03*
D40*
X238225000Y-143300000D03*
X238225000Y-141400000D03*
D38*
X135287500Y-102275000D03*
X137112500Y-102275000D03*
D53*
X174050000Y-94512500D03*
X174050000Y-96337500D03*
D42*
X200025000Y-93750000D03*
X201925000Y-93750000D03*
D47*
X213720000Y-116590000D03*
D48*
X214520000Y-116590000D03*
X215320000Y-116590000D03*
D47*
X216120000Y-116590000D03*
X216120000Y-118390000D03*
D48*
X215320000Y-118390000D03*
X214520000Y-118390000D03*
D47*
X213720000Y-118390000D03*
D53*
X148307000Y-85608000D03*
X148307000Y-87433000D03*
D39*
X163375000Y-191575000D03*
X161475000Y-191575000D03*
D43*
X144200000Y-91537500D03*
X144200000Y-89712500D03*
D45*
X180150000Y-143800000D03*
D46*
X180150000Y-143000000D03*
X180150000Y-142200000D03*
D45*
X180150000Y-141400000D03*
X181950000Y-141400000D03*
D46*
X181950000Y-142200000D03*
X181950000Y-143000000D03*
D45*
X181950000Y-143800000D03*
D63*
X181550000Y-178925000D03*
X178600000Y-178925000D03*
D44*
X216682500Y-67220000D03*
X214857500Y-67220000D03*
D40*
X268750000Y-103870000D03*
X268750000Y-101970000D03*
D39*
X187825000Y-71925000D03*
X185925000Y-71925000D03*
D42*
X171300000Y-89575000D03*
X173200000Y-89575000D03*
X143162500Y-131830000D03*
X145062500Y-131830000D03*
D58*
X173400000Y-77562500D03*
X173400000Y-74587500D03*
D38*
X143980750Y-83548000D03*
X145805750Y-83548000D03*
D40*
X228470000Y-118550000D03*
X228470000Y-116650000D03*
D52*
X213550000Y-83700000D03*
X213550000Y-85600000D03*
D42*
X244100000Y-67050000D03*
X246000000Y-67050000D03*
D47*
X226275000Y-58525000D03*
D48*
X227075000Y-58525000D03*
X227875000Y-58525000D03*
D47*
X228675000Y-58525000D03*
X228675000Y-60325000D03*
D48*
X227875000Y-60325000D03*
X227075000Y-60325000D03*
D47*
X226275000Y-60325000D03*
D38*
X243162500Y-116925000D03*
X244987500Y-116925000D03*
X264687500Y-98900000D03*
X266512500Y-98900000D03*
D40*
X150282000Y-80558000D03*
X150282000Y-78658000D03*
D44*
X222237500Y-63875000D03*
X220412500Y-63875000D03*
D64*
X239367500Y-172910000D03*
X241492500Y-172910000D03*
D43*
X264125000Y-122737500D03*
X264125000Y-120912500D03*
D42*
X140305750Y-81548000D03*
X142205750Y-81548000D03*
D52*
X142075000Y-89675000D03*
X142075000Y-91575000D03*
D49*
X264625000Y-103600000D03*
X264625000Y-101475000D03*
D45*
X295500000Y-137150000D03*
D46*
X295500000Y-136350000D03*
X295500000Y-135550000D03*
D45*
X295500000Y-134750000D03*
X297300000Y-134750000D03*
D46*
X297300000Y-135550000D03*
X297300000Y-136350000D03*
D45*
X297300000Y-137150000D03*
D42*
X209150000Y-175100000D03*
X211050000Y-175100000D03*
X282800000Y-165000000D03*
X284700000Y-165000000D03*
D52*
X296230000Y-95500000D03*
X296230000Y-97400000D03*
D44*
X248212500Y-178910000D03*
X246387500Y-178910000D03*
D43*
X185200000Y-96337500D03*
X185200000Y-94512500D03*
D44*
X173162500Y-87375000D03*
X171337500Y-87375000D03*
D49*
X182800000Y-59400000D03*
X182800000Y-57275000D03*
D44*
X145805750Y-79548000D03*
X143980750Y-79548000D03*
D47*
X281925000Y-94500000D03*
D48*
X281125000Y-94500000D03*
X280325000Y-94500000D03*
D47*
X279525000Y-94500000D03*
X279525000Y-92700000D03*
D48*
X280325000Y-92700000D03*
X281125000Y-92700000D03*
D47*
X281925000Y-92700000D03*
D53*
X181525000Y-71012500D03*
X181525000Y-72837500D03*
D38*
X147100000Y-133930000D03*
X148925000Y-133930000D03*
D65*
X151275000Y-180125000D03*
X154225000Y-180125000D03*
D52*
X278475000Y-74200000D03*
X278475000Y-76100000D03*
D38*
X185387500Y-88650000D03*
X187212500Y-88650000D03*
D42*
X170900000Y-82475000D03*
X172800000Y-82475000D03*
D63*
X170225000Y-143825000D03*
X167275000Y-143825000D03*
D52*
X150282000Y-85570500D03*
X150282000Y-87470500D03*
D38*
X138837500Y-137850000D03*
X140662500Y-137850000D03*
D40*
X187890000Y-70175000D03*
X187890000Y-68275000D03*
D42*
X246350000Y-181400000D03*
X248250000Y-181400000D03*
M02*
