%TF.GenerationSoftware,KiCad,Pcbnew,7.0.8*%
%TF.CreationDate,2024-02-10T22:29:47+01:00*%
%TF.ProjectId,Neptune,4e657074-756e-4652-9e6b-696361645f70,rev?*%
%TF.SameCoordinates,Original*%
%TF.FileFunction,Drillmap*%
%TF.FilePolarity,Positive*%
%FSLAX45Y45*%
G04 Gerber Fmt 4.5, Leading zero omitted, Abs format (unit mm)*
G04 Created by KiCad (PCBNEW 7.0.8) date 2024-02-10 22:29:47*
%MOMM*%
%LPD*%
G01*
G04 APERTURE LIST*
%ADD10C,0.100000*%
%ADD11C,0.200000*%
G04 APERTURE END LIST*
D10*
X30126600Y-18859500D02*
G75*
G03*
X30126600Y-18859500I-180000J0D01*
G01*
X31000000Y-18440000D02*
X31000000Y-21690000D01*
X23560000Y-4250000D02*
G75*
G03*
X23370000Y-4440000I0J-190000D01*
G01*
X27774560Y-22849840D02*
G75*
G03*
X27774560Y-22849840I-180000J0D01*
G01*
X29350000Y-23340000D02*
X12190000Y-23340000D01*
X12190000Y-4250000D02*
G75*
G03*
X12090000Y-4350000I0J-100000D01*
G01*
X14218920Y-22357080D02*
X14218920Y-22547580D01*
X31210312Y-8190000D02*
G75*
G03*
X31050000Y-8029688I-160312J0D01*
G01*
X22010000Y-4440000D02*
X23370000Y-4440000D01*
X13004800Y-22547580D02*
G75*
G03*
X14218920Y-22547580I607060J0D01*
G01*
X12090000Y-23240000D02*
X12090000Y-4350000D01*
X21595060Y-5143160D02*
G75*
G03*
X21595060Y-5143160I-160000J0D01*
G01*
X15180220Y-22849840D02*
G75*
G03*
X15180220Y-22849840I-85000J0D01*
G01*
X31050000Y-15880002D02*
G75*
G03*
X31210312Y-15719688I0J160312D01*
G01*
X29210000Y-22355810D02*
G75*
G03*
X27995880Y-22355810I-607060J0D01*
G01*
X29600000Y-18280000D02*
G75*
G03*
X29680000Y-18360000I80000J0D01*
G01*
X24673220Y-22849840D02*
G75*
G03*
X24673220Y-22849840I-180000J0D01*
G01*
X29600000Y-7930000D02*
G75*
G03*
X29700000Y-8030000I100000J0D01*
G01*
X29600000Y-15960000D02*
X29600000Y-18280000D01*
X29275700Y-4752340D02*
G75*
G03*
X29275700Y-4752340I-180000J0D01*
G01*
X29680000Y-18360000D02*
X30920000Y-18360000D01*
X17068800Y-22849840D02*
G75*
G03*
X17068800Y-22849840I-180000J0D01*
G01*
X12974320Y-5756910D02*
X12974320Y-5947410D01*
X12090000Y-23240000D02*
G75*
G03*
X12190000Y-23340000I100000J0D01*
G01*
X31000000Y-21690000D02*
X29350000Y-23340000D01*
X31210000Y-8190000D02*
X31210000Y-15720000D01*
X29700000Y-8030000D02*
X31050000Y-8030000D01*
X12803320Y-13794740D02*
G75*
G03*
X12803320Y-13794740I-210000J0D01*
G01*
X27995880Y-5946140D02*
G75*
G03*
X29210000Y-5946140I607060J0D01*
G01*
X27995880Y-22546310D02*
G75*
G03*
X29210000Y-22546310I607060J0D01*
G01*
X29680000Y-15880000D02*
G75*
G03*
X29600000Y-15960000I0J-80000D01*
G01*
X29210000Y-22355810D02*
X29210000Y-22546310D01*
X14188440Y-5756910D02*
G75*
G03*
X12974320Y-5756910I-607060J0D01*
G01*
X31000000Y-18440000D02*
G75*
G03*
X30920000Y-18360000I-80000J0D01*
G01*
X29771000Y-22115780D02*
G75*
G03*
X29771000Y-22115780I-180000J0D01*
G01*
X31050000Y-15880000D02*
X29680000Y-15880000D01*
X29600000Y-4350000D02*
X29600000Y-7930000D01*
X14218920Y-22357080D02*
G75*
G03*
X13004800Y-22357080I-607060J0D01*
G01*
X12758080Y-5138080D02*
G75*
G03*
X12758080Y-5138080I-180000J0D01*
G01*
X18018420Y-22948900D02*
G75*
G03*
X18018420Y-22948900I-180000J0D01*
G01*
X23723600Y-22948900D02*
G75*
G03*
X23723600Y-22948900I-180000J0D01*
G01*
X23560000Y-4250000D02*
X29500000Y-4250000D01*
X29210000Y-5755640D02*
G75*
G03*
X27995880Y-5755640I-607060J0D01*
G01*
X12773320Y-22849840D02*
G75*
G03*
X12773320Y-22849840I-180000J0D01*
G01*
X16306700Y-22849840D02*
G75*
G03*
X16306700Y-22849840I-165000J0D01*
G01*
X29275700Y-6954520D02*
G75*
G03*
X29275700Y-6954520I-180000J0D01*
G01*
X12190000Y-4250000D02*
X21820000Y-4250000D01*
X27995880Y-5755640D02*
X27995880Y-5946140D01*
X20860840Y-22400260D02*
G75*
G03*
X20860840Y-22400260I-170000J0D01*
G01*
X29210000Y-5755640D02*
X29210000Y-5946140D01*
X13004800Y-22357080D02*
X13004800Y-22547580D01*
X27995880Y-22355810D02*
X27995880Y-22546310D01*
X22010000Y-4440000D02*
G75*
G03*
X21820000Y-4250000I-190000J0D01*
G01*
X12974320Y-5947410D02*
G75*
G03*
X14188440Y-5947410I607060J0D01*
G01*
X29600000Y-4350000D02*
G75*
G03*
X29500000Y-4250000I-100000J0D01*
G01*
X14188440Y-5756910D02*
X14188440Y-5947410D01*
X20863220Y-5143160D02*
G75*
G03*
X20863220Y-5143160I-180000J0D01*
G01*
D11*
X12345777Y-23656484D02*
X12345777Y-23456484D01*
X12345777Y-23456484D02*
X12393396Y-23456484D01*
X12393396Y-23456484D02*
X12421967Y-23466008D01*
X12421967Y-23466008D02*
X12441015Y-23485055D01*
X12441015Y-23485055D02*
X12450539Y-23504103D01*
X12450539Y-23504103D02*
X12460062Y-23542198D01*
X12460062Y-23542198D02*
X12460062Y-23570769D01*
X12460062Y-23570769D02*
X12450539Y-23608865D01*
X12450539Y-23608865D02*
X12441015Y-23627912D01*
X12441015Y-23627912D02*
X12421967Y-23646960D01*
X12421967Y-23646960D02*
X12393396Y-23656484D01*
X12393396Y-23656484D02*
X12345777Y-23656484D01*
X12545777Y-23656484D02*
X12545777Y-23523150D01*
X12545777Y-23561246D02*
X12555301Y-23542198D01*
X12555301Y-23542198D02*
X12564824Y-23532674D01*
X12564824Y-23532674D02*
X12583872Y-23523150D01*
X12583872Y-23523150D02*
X12602920Y-23523150D01*
X12669586Y-23656484D02*
X12669586Y-23523150D01*
X12669586Y-23456484D02*
X12660062Y-23466008D01*
X12660062Y-23466008D02*
X12669586Y-23475531D01*
X12669586Y-23475531D02*
X12679110Y-23466008D01*
X12679110Y-23466008D02*
X12669586Y-23456484D01*
X12669586Y-23456484D02*
X12669586Y-23475531D01*
X12793396Y-23656484D02*
X12774348Y-23646960D01*
X12774348Y-23646960D02*
X12764824Y-23627912D01*
X12764824Y-23627912D02*
X12764824Y-23456484D01*
X12898158Y-23656484D02*
X12879110Y-23646960D01*
X12879110Y-23646960D02*
X12869586Y-23627912D01*
X12869586Y-23627912D02*
X12869586Y-23456484D01*
X13126729Y-23656484D02*
X13126729Y-23456484D01*
X13126729Y-23456484D02*
X13193396Y-23599341D01*
X13193396Y-23599341D02*
X13260062Y-23456484D01*
X13260062Y-23456484D02*
X13260062Y-23656484D01*
X13441015Y-23656484D02*
X13441015Y-23551722D01*
X13441015Y-23551722D02*
X13431491Y-23532674D01*
X13431491Y-23532674D02*
X13412443Y-23523150D01*
X13412443Y-23523150D02*
X13374348Y-23523150D01*
X13374348Y-23523150D02*
X13355301Y-23532674D01*
X13441015Y-23646960D02*
X13421967Y-23656484D01*
X13421967Y-23656484D02*
X13374348Y-23656484D01*
X13374348Y-23656484D02*
X13355301Y-23646960D01*
X13355301Y-23646960D02*
X13345777Y-23627912D01*
X13345777Y-23627912D02*
X13345777Y-23608865D01*
X13345777Y-23608865D02*
X13355301Y-23589817D01*
X13355301Y-23589817D02*
X13374348Y-23580293D01*
X13374348Y-23580293D02*
X13421967Y-23580293D01*
X13421967Y-23580293D02*
X13441015Y-23570769D01*
X13536253Y-23523150D02*
X13536253Y-23723150D01*
X13536253Y-23532674D02*
X13555301Y-23523150D01*
X13555301Y-23523150D02*
X13593396Y-23523150D01*
X13593396Y-23523150D02*
X13612443Y-23532674D01*
X13612443Y-23532674D02*
X13621967Y-23542198D01*
X13621967Y-23542198D02*
X13631491Y-23561246D01*
X13631491Y-23561246D02*
X13631491Y-23618388D01*
X13631491Y-23618388D02*
X13621967Y-23637436D01*
X13621967Y-23637436D02*
X13612443Y-23646960D01*
X13612443Y-23646960D02*
X13593396Y-23656484D01*
X13593396Y-23656484D02*
X13555301Y-23656484D01*
X13555301Y-23656484D02*
X13536253Y-23646960D01*
X13717205Y-23637436D02*
X13726729Y-23646960D01*
X13726729Y-23646960D02*
X13717205Y-23656484D01*
X13717205Y-23656484D02*
X13707682Y-23646960D01*
X13707682Y-23646960D02*
X13717205Y-23637436D01*
X13717205Y-23637436D02*
X13717205Y-23656484D01*
X13717205Y-23532674D02*
X13726729Y-23542198D01*
X13726729Y-23542198D02*
X13717205Y-23551722D01*
X13717205Y-23551722D02*
X13707682Y-23542198D01*
X13707682Y-23542198D02*
X13717205Y-23532674D01*
X13717205Y-23532674D02*
X13717205Y-23551722D01*
M02*
