G04 #@! TF.GenerationSoftware,KiCad,Pcbnew,7.0.8*
G04 #@! TF.CreationDate,2024-01-10T23:21:27+01:00*
G04 #@! TF.ProjectId,Neptune,4e657074-756e-4652-9e6b-696361645f70,rev?*
G04 #@! TF.SameCoordinates,Original*
G04 #@! TF.FileFunction,Profile,NP*
%FSLAX46Y46*%
G04 Gerber Fmt 4.6, Leading zero omitted, Abs format (unit mm)*
G04 Created by KiCad (PCBNEW 7.0.8) date 2024-01-10 23:21:27*
%MOMM*%
%LPD*%
G01*
G04 APERTURE LIST*
G04 #@! TA.AperFunction,Profile*
%ADD10C,0.100000*%
G04 #@! TD*
G04 #@! TA.AperFunction,Profile*
%ADD11C,0.050000*%
G04 #@! TD*
G04 APERTURE END LIST*
D10*
X301266000Y-188595000D02*
G75*
G03*
X301266000Y-188595000I-1800000J0D01*
G01*
X310000000Y-184400000D02*
X310000000Y-216900000D01*
X235600000Y-42500000D02*
G75*
G03*
X233700000Y-44400000I0J-1900000D01*
G01*
X277745600Y-228498400D02*
G75*
G03*
X277745600Y-228498400I-1800000J0D01*
G01*
X293500000Y-233400000D02*
X121900000Y-233400000D01*
X121900000Y-42500000D02*
G75*
G03*
X120900000Y-43500000I0J-1000000D01*
G01*
X142189200Y-223570800D02*
X142189200Y-225475800D01*
X312103121Y-81900000D02*
G75*
G03*
X310500000Y-80296879I-1603121J0D01*
G01*
X220100000Y-44400000D02*
X233700000Y-44400000D01*
X130048000Y-225475800D02*
G75*
G03*
X142189200Y-225475800I6070600J0D01*
G01*
X120900000Y-232400000D02*
X120900000Y-43500000D01*
X215950600Y-51431600D02*
G75*
G03*
X215950600Y-51431600I-1600000J0D01*
G01*
X151802200Y-228498400D02*
G75*
G03*
X151802200Y-228498400I-850000J0D01*
G01*
X310500000Y-158800021D02*
G75*
G03*
X312103121Y-157196879I0J1603121D01*
G01*
X292100000Y-223558100D02*
G75*
G03*
X279958800Y-223558100I-6070600J0D01*
G01*
X296000000Y-182800000D02*
G75*
G03*
X296800000Y-183600000I800000J0D01*
G01*
X246732200Y-228498400D02*
G75*
G03*
X246732200Y-228498400I-1800000J0D01*
G01*
X296000000Y-79300000D02*
G75*
G03*
X297000000Y-80300000I1000000J0D01*
G01*
X296000000Y-159600000D02*
X296000000Y-182800000D01*
X292757000Y-47523400D02*
G75*
G03*
X292757000Y-47523400I-1800000J0D01*
G01*
X296800000Y-183600000D02*
X309200000Y-183600000D01*
X170688000Y-228498400D02*
G75*
G03*
X170688000Y-228498400I-1800000J0D01*
G01*
X129743200Y-57569100D02*
X129743200Y-59474100D01*
X120900000Y-232400000D02*
G75*
G03*
X121900000Y-233400000I1000000J0D01*
G01*
X310000000Y-216900000D02*
X293500000Y-233400000D01*
X312100000Y-81900000D02*
X312100000Y-157200000D01*
X297000000Y-80300000D02*
X310500000Y-80300000D01*
X128033200Y-137947400D02*
G75*
G03*
X128033200Y-137947400I-2100000J0D01*
G01*
X279958800Y-59461400D02*
G75*
G03*
X292100000Y-59461400I6070600J0D01*
G01*
X279958800Y-225463100D02*
G75*
G03*
X292100000Y-225463100I6070600J0D01*
G01*
X296800000Y-158800000D02*
G75*
G03*
X296000000Y-159600000I0J-800000D01*
G01*
X292100000Y-223558100D02*
X292100000Y-225463100D01*
X141884400Y-57569100D02*
G75*
G03*
X129743200Y-57569100I-6070600J0D01*
G01*
X310000000Y-184400000D02*
G75*
G03*
X309200000Y-183600000I-800000J0D01*
G01*
X297710000Y-221157800D02*
G75*
G03*
X297710000Y-221157800I-1800000J0D01*
G01*
X310500000Y-158800000D02*
X296800000Y-158800000D01*
X296000000Y-43500000D02*
X296000000Y-79300000D01*
X142189200Y-223570800D02*
G75*
G03*
X130048000Y-223570800I-6070600J0D01*
G01*
X127580800Y-51380800D02*
G75*
G03*
X127580800Y-51380800I-1800000J0D01*
G01*
X180184200Y-229489000D02*
G75*
G03*
X180184200Y-229489000I-1800000J0D01*
G01*
X237236000Y-229489000D02*
G75*
G03*
X237236000Y-229489000I-1800000J0D01*
G01*
X235600000Y-42500000D02*
X295000000Y-42500000D01*
X292100000Y-57556400D02*
G75*
G03*
X279958800Y-57556400I-6070600J0D01*
G01*
X127733200Y-228498400D02*
G75*
G03*
X127733200Y-228498400I-1800000J0D01*
G01*
X163067000Y-228498400D02*
G75*
G03*
X163067000Y-228498400I-1650000J0D01*
G01*
X292757000Y-69545200D02*
G75*
G03*
X292757000Y-69545200I-1800000J0D01*
G01*
X121900000Y-42500000D02*
X218200000Y-42500000D01*
X279958800Y-57556400D02*
X279958800Y-59461400D01*
X208608400Y-224002600D02*
G75*
G03*
X208608400Y-224002600I-1700000J0D01*
G01*
X292100000Y-57556400D02*
X292100000Y-59461400D01*
X130048000Y-223570800D02*
X130048000Y-225475800D01*
X279958800Y-223558100D02*
X279958800Y-225463100D01*
X220100000Y-44400000D02*
G75*
G03*
X218200000Y-42500000I-1900000J0D01*
G01*
X129743200Y-59474100D02*
G75*
G03*
X141884400Y-59474100I6070600J0D01*
G01*
X296000000Y-43500000D02*
G75*
G03*
X295000000Y-42500000I-1000000J0D01*
G01*
X141884400Y-57569100D02*
X141884400Y-59474100D01*
X208632200Y-51431600D02*
G75*
G03*
X208632200Y-51431600I-1800000J0D01*
G01*
D11*
X166636388Y-46904200D02*
G75*
G03*
X166636388Y-46904200I-901388J0D01*
G01*
X160902400Y-106680000D02*
G75*
G03*
X160902400Y-106680000I-2000000J0D01*
G01*
X256914400Y-106680000D02*
G75*
G03*
X256914400Y-106680000I-2000000J0D01*
G01*
M02*
