M48
; DRILL file {KiCad 7.0.8} date 2024 January 10, Wednesday 23:21:29
; FORMAT={-:-/ absolute / metric / decimal}
; #@! TF.CreationDate,2024-01-10T23:21:29+01:00
; #@! TF.GenerationSoftware,Kicad,Pcbnew,7.0.8
; #@! TF.FileFunction,Plated,1,4,PTH
FMAT,2
METRIC
; #@! TA.AperFunction,Plated,PTH,ViaDrill
T1C0.300
; #@! TA.AperFunction,Plated,PTH,ViaDrill
T2C0.400
; #@! TA.AperFunction,Plated,PTH,ViaDrill
T3C0.600
; #@! TA.AperFunction,Plated,PTH,ComponentDrill
T4C0.700
; #@! TA.AperFunction,Plated,PTH,ComponentDrill
T5C0.800
; #@! TA.AperFunction,Plated,PTH,ComponentDrill
T6C0.900
; #@! TA.AperFunction,Plated,PTH,ComponentDrill
T7C1.000
; #@! TA.AperFunction,Plated,PTH,ComponentDrill
T8C1.200
; #@! TA.AperFunction,Plated,PTH,ComponentDrill
T9C1.250
; #@! TA.AperFunction,Plated,PTH,ComponentDrill
T10C1.500
%
G90
G05
T1
X134.262Y-91.55
X134.8Y-98.875
X137.8Y-137.85
X138.112Y-96.837
X140.345Y-78.028
X141.059Y-77.668
X142.225Y-175.925
X142.327Y-77.224
X142.5Y-174.625
X142.6Y-77.975
X143.025Y-177.0
X145.475Y-87.3
X145.806Y-80.523
X146.0Y-186.9
X146.85Y-186.8
X147.35Y-123.975
X148.0Y-184.45
X148.069Y-185.427
X148.275Y-186.2
X148.825Y-183.6
X149.375Y-171.125
X149.775Y-187.349
X151.45Y-164.061
X151.675Y-189.575
X152.4Y-163.95
X152.417Y-154.616
X152.55Y-168.125
X152.554Y-155.404
X152.6Y-128.4
X152.6Y-150.1
X152.875Y-171.625
X153.128Y-168.749
X153.329Y-155.601
X153.4Y-163.85
X153.5Y-186.325
X153.951Y-185.028
X154.5Y-163.275
X154.525Y-172.375
X154.575Y-184.45
X154.75Y-91.35
X154.75Y-150.8
X155.425Y-150.15
X155.425Y-152.4
X155.797Y-172.7
X155.826Y-184.868
X155.9Y-162.975
X156.1Y-190.225
X156.15Y-184.125
X156.175Y-150.725
X156.525Y-195.875
X156.575Y-192.95
X156.625Y-183.275
X156.674Y-164.263
X156.799Y-150.0
X156.8Y-99.625
X156.8Y-195.05
X156.95Y-91.35
X157.025Y-162.975
X157.45Y-182.625
X157.455Y-164.436
X157.475Y-150.725
X157.55Y-192.075
X157.775Y-190.8
X158.1Y-150.099
X158.175Y-99.625
X158.225Y-165.025
X158.4Y-127.6
X158.625Y-121.75
X158.967Y-190.242
X159.1Y-91.35
X159.175Y-150.25
X159.4Y-120.025
X159.875Y-164.1
X160.05Y-202.225
X160.2Y-99.625
X160.225Y-164.975
X161.143Y-189.976
X161.2Y-138.8
X161.25Y-91.35
X161.3Y-103.05
X161.45Y-120.25
X161.625Y-96.225
X161.8Y-132.4
X162.2Y-137.6
X162.326Y-189.4
X162.6Y-89.487
X162.8Y-120.2
X162.85Y-131.4
X163.0Y-138.1
X163.6Y-117.55
X163.6Y-130.725
X163.999Y-137.024
X164.0Y-138.0
X164.104Y-164.854
X164.175Y-116.175
X164.5Y-130.7
X164.8Y-137.3
X164.825Y-128.425
X164.975Y-165.049
X165.468Y-136.4
X165.7Y-165.5
X165.775Y-116.825
X166.0Y-120.4
X166.092Y-137.492
X166.15Y-177.85
X166.35Y-158.75
X166.666Y-77.097
X166.825Y-136.2
X166.86Y-145.71
X167.0Y-179.925
X167.05Y-172.0
X167.25Y-175.375
X167.275Y-171.125
X167.35Y-76.684
X167.45Y-158.725
X167.6Y-114.1
X167.607Y-117.532
X167.725Y-136.742
X167.75Y-94.525
X167.75Y-172.625
X167.883Y-184.617
X167.975Y-176.6
X168.45Y-175.8
X168.51Y-94.278
X168.525Y-158.749
X168.817Y-137.417
X168.825Y-183.125
X168.85Y-136.5
X169.05Y-182.225
X169.388Y-178.039
X169.692Y-184.495
X169.697Y-181.575
X169.7Y-178.775
X169.85Y-78.575
X169.85Y-204.15
X169.98Y-183.749
X170.3Y-137.7
X170.368Y-77.966
X170.371Y-136.746
X170.525Y-116.825
X170.725Y-118.599
X170.95Y-92.0
X170.983Y-204.424
X171.6Y-116.774
X171.778Y-67.841
X172.366Y-67.217
X172.8Y-196.6
X172.95Y-198.125
X172.987Y-95.312
X173.0Y-92.0
X173.225Y-199.275
X173.95Y-117.35
X175.1Y-92.0
X175.525Y-120.125
X176.2Y-74.1
X176.525Y-86.475
X176.549Y-76.9
X176.575Y-120.15
X176.6Y-78.0
X177.7Y-195.15
X177.87Y-68.43
X178.0Y-215.3
X178.4Y-124.025
X178.817Y-75.958
X178.95Y-194.374
X179.0Y-69.031
X179.0Y-199.0
X179.02Y-73.51
X179.1Y-123.375
X179.2Y-196.4
X179.475Y-77.925
X179.775Y-122.75
X179.8Y-82.025
X179.913Y-193.749
X180.086Y-69.469
X180.1Y-189.9
X180.187Y-191.387
X180.25Y-192.292
X180.579Y-174.671
X180.7Y-175.675
X181.4Y-81.35
X181.45Y-173.775
X181.483Y-174.692
X182.333Y-172.892
X182.354Y-173.796
X182.675Y-178.6
X182.709Y-76.717
X182.9Y-74.525
X183.153Y-171.947
X183.206Y-172.882
X183.3Y-193.749
X183.675Y-188.2
X184.079Y-171.989
X184.1Y-214.5
X184.124Y-166.65
X184.147Y-171.174
X184.225Y-183.025
X184.275Y-155.475
X184.374Y-179.207
X184.375Y-197.775
X184.4Y-135.6
X184.749Y-167.55
X184.8Y-61.175
X184.875Y-136.4
X185.012Y-171.062
X185.05Y-153.325
X185.084Y-137.466
X185.1Y-154.4
X185.1Y-197.025
X185.36Y-187.41
X185.513Y-193.387
X185.575Y-167.725
X185.6Y-61.423
X185.625Y-76.7
X185.85Y-195.774
X185.975Y-178.3
X186.55Y-189.125
X186.595Y-183.701
X186.6Y-115.15
X186.62Y-69.758
X186.8Y-61.5
X186.95Y-191.975
X187.1Y-83.05
X187.117Y-153.158
X187.165Y-155.36
X187.25Y-189.576
X187.3Y-195.775
X187.5Y-214.5
X187.599Y-61.473
X187.6Y-187.725
X187.79Y-73.358
X188.067Y-153.225
X188.15Y-195.775
X188.175Y-190.2
X188.341Y-84.328
X188.4Y-81.6
X188.9Y-61.875
X188.953Y-153.847
X189.024Y-177.525
X189.1Y-114.45
X189.225Y-120.775
X189.225Y-149.4
X189.257Y-167.374
X189.325Y-138.14
X189.326Y-139.4
X189.625Y-129.25
X189.652Y-177.03
X189.7Y-61.875
X189.7Y-141.1
X189.824Y-151.3
X189.84Y-152.24
X189.924Y-183.25
X190.0Y-153.6
X190.1Y-142.595
X190.9Y-214.5
X191.125Y-127.979
X191.4Y-195.5
X191.725Y-136.85
X191.825Y-126.709
X191.85Y-199.124
X191.9Y-138.05
X192.0Y-178.8
X192.05Y-179.75
X192.25Y-188.2
X192.55Y-125.439
X192.612Y-115.037
X192.625Y-130.52
X192.724Y-131.79
X193.2Y-146.85
X193.425Y-140.475
X193.725Y-134.954
X193.85Y-83.675
X193.883Y-146.183
X194.0Y-72.25
X194.025Y-115.05
X194.2Y-106.25
X194.25Y-132.415
X194.3Y-214.5
X194.475Y-82.775
X194.575Y-133.812
X194.825Y-75.925
X195.125Y-77.174
X195.125Y-81.875
X195.125Y-145.475
X195.25Y-183.4
X195.3Y-181.8
X195.35Y-71.45
X195.4Y-180.2
X195.425Y-198.5
X195.478Y-115.3
X195.5Y-194.6
X195.6Y-188.2
X195.7Y-181.0
X195.75Y-144.85
X195.751Y-179.482
X195.775Y-72.725
X195.775Y-78.45
X195.825Y-83.225
X196.075Y-70.175
X196.125Y-75.28
X196.262Y-144.236
X196.383Y-135.133
X196.45Y-79.125
X196.45Y-81.575
X196.75Y-68.9
X197.075Y-82.58
X197.1Y-143.611
X197.104Y-185.696
X197.146Y-134.396
X197.156Y-171.325
X197.231Y-139.877
X197.625Y-141.15
X197.75Y-76.55
X197.774Y-79.925
X197.825Y-71.875
X198.0Y-131.145
X198.0Y-171.625
X198.031Y-139.882
X198.15Y-182.375
X198.418Y-141.255
X198.45Y-135.65
X198.575Y-100.925
X198.6Y-183.2
X198.65Y-77.825
X199.014Y-171.625
X199.019Y-181.756
X199.075Y-121.3
X199.1Y-199.124
X199.226Y-179.576
X199.3Y-122.9
X199.3Y-129.25
X199.4Y-80.5
X199.8Y-196.6
X199.85Y-82.001
X199.85Y-180.2
X199.975Y-183.474
X200.028Y-171.625
X200.3Y-198.5
X200.75Y-180.9
X200.8Y-196.775
X200.975Y-118.2
X201.042Y-171.625
X201.099Y-179.1
X201.1Y-215.275
X202.056Y-171.625
X202.237Y-178.6
X203.07Y-171.625
X203.6Y-126.8
X203.6Y-195.249
X203.625Y-124.175
X203.7Y-197.4
X203.9Y-130.375
X203.9Y-132.125
X204.084Y-171.625
X204.125Y-73.525
X204.425Y-124.8
X204.45Y-125.8
X204.625Y-126.8
X205.098Y-171.625
X205.275Y-125.425
X205.5Y-195.0
X205.975Y-115.325
X206.112Y-171.625
X206.4Y-106.65
X206.7Y-194.8
X207.125Y-171.625
X207.7Y-193.874
X208.037Y-180.938
X208.2Y-189.3
X208.575Y-82.05
X208.9Y-168.625
X208.975Y-114.575
X209.0Y-189.4
X209.475Y-190.825
X209.525Y-115.325
X210.15Y-169.076
X210.475Y-117.175
X210.775Y-192.75
X210.825Y-72.45
X210.875Y-202.175
X210.975Y-78.675
X211.136Y-191.1
X211.15Y-169.525
X211.15Y-190.15
X211.175Y-81.8
X211.525Y-65.175
X211.65Y-71.45
X211.65Y-77.349
X211.8Y-122.5
X211.825Y-75.925
X211.849Y-78.7
X211.85Y-88.1
X211.999Y-113.675
X212.125Y-203.176
X212.45Y-76.725
X212.55Y-66.05
X212.624Y-111.0
X212.725Y-84.924
X212.725Y-117.175
X212.812Y-190.263
X212.925Y-86.625
X213.225Y-171.825
X213.225Y-202.025
X213.325Y-115.2
X213.424Y-119.95
X213.462Y-200.587
X213.55Y-118.45
X213.7Y-94.487
X213.883Y-110.96
X214.175Y-121.7
X214.225Y-194.55
X214.525Y-114.475
X214.675Y-91.675
X214.8Y-122.375
X214.825Y-203.2
X215.1Y-115.15
X215.15Y-174.9
X215.15Y-182.576
X215.15Y-197.725
X215.35Y-92.225
X215.49Y-123.835
X215.499Y-90.35
X215.5Y-81.775
X215.55Y-65.325
X215.55Y-113.35
X215.55Y-122.974
X215.575Y-66.325
X215.678Y-85.925
X215.8Y-183.201
X215.83Y-188.945
X215.9Y-202.325
X216.05Y-88.2
X216.1Y-94.25
X216.1Y-132.9
X216.125Y-121.725
X216.175Y-89.726
X216.2Y-186.575
X216.25Y-115.174
X216.35Y-99.75
X216.667Y-119.683
X216.725Y-132.275
X216.75Y-133.7
X216.75Y-183.201
X216.875Y-189.575
X216.9Y-74.95
X216.9Y-84.325
X216.95Y-113.35
X216.975Y-87.325
X216.975Y-89.102
X217.025Y-202.05
X217.135Y-176.624
X217.268Y-187.9
X217.4Y-94.1
X217.5Y-185.875
X217.75Y-100.525
X217.85Y-86.3
X217.875Y-195.125
X218.0Y-188.624
X218.1Y-115.95
X218.1Y-117.2
X218.117Y-132.691
X218.125Y-133.5
X218.375Y-168.775
X218.375Y-194.499
X218.825Y-94.1
X218.975Y-197.725
X219.3Y-185.425
X219.461Y-133.064
X219.525Y-118.975
X219.625Y-122.175
X219.75Y-86.3
X219.9Y-132.375
X220.188Y-114.637
X220.256Y-186.339
X220.4Y-202.1
X220.654Y-192.535
X220.725Y-101.025
X220.925Y-67.675
X221.05Y-119.075
X221.15Y-117.2
X221.2Y-118.15
X221.4Y-141.0
X221.487Y-60.6
X221.6Y-203.45
X221.604Y-133.996
X221.8Y-202.05
X221.825Y-67.55
X222.001Y-197.201
X222.087Y-66.587
X222.175Y-124.975
X222.299Y-133.299
X222.3Y-95.1
X222.444Y-197.866
X222.525Y-114.65
X222.55Y-142.701
X222.684Y-150.816
X222.9Y-140.376
X222.925Y-198.6
X223.004Y-136.272
X223.1Y-65.75
X223.1Y-66.692
X223.2Y-143.951
X223.2Y-145.201
X223.425Y-147.75
X223.45Y-146.475
X223.525Y-149.45
X223.548Y-133.583
X223.75Y-115.95
X223.825Y-136.225
X224.0Y-65.729
X224.025Y-64.775
X224.125Y-124.65
X224.125Y-152.1
X224.3Y-126.275
X224.499Y-98.224
X224.575Y-99.15
X224.675Y-60.625
X224.9Y-123.8
X225.0Y-181.7
X225.032Y-79.468
X225.229Y-98.675
X225.3Y-179.7
X225.416Y-68.124
X225.45Y-115.95
X225.475Y-138.475
X225.775Y-153.675
X225.8Y-211.725
X225.854Y-99.175
X225.958Y-113.225
X225.975Y-132.059
X226.0Y-60.1
X226.08Y-176.7
X226.46Y-79.376
X226.5Y-78.533
X226.529Y-80.625
X226.577Y-156.377
X226.8Y-60.1
X226.801Y-137.871
X226.925Y-139.828
X226.95Y-120.45
X226.95Y-211.075
X227.0Y-194.5
X227.025Y-200.55
X227.05Y-192.8
X227.075Y-197.201
X227.299Y-66.0
X227.55Y-106.95
X227.575Y-197.85
X227.6Y-60.1
X227.625Y-139.05
X227.734Y-66.766
X227.85Y-194.6
X227.907Y-201.476
X228.212Y-195.439
X228.225Y-210.825
X228.325Y-200.575
X228.344Y-145.761
X228.358Y-147.542
X228.4Y-60.1
X228.65Y-72.55
X228.7Y-66.75
X228.713Y-143.563
X229.0Y-65.675
X229.05Y-195.85
X229.104Y-200.38
X229.125Y-136.775
X229.262Y-141.637
X229.55Y-210.8
X229.573Y-112.6
X229.59Y-111.71
X229.768Y-61.032
X229.817Y-71.217
X229.873Y-147.9
X229.898Y-65.673
X230.202Y-191.909
X230.275Y-101.012
X230.375Y-78.124
X230.4Y-75.9
X230.4Y-194.225
X230.633Y-190.556
X230.699Y-67.275
X230.7Y-210.825
X230.745Y-70.1
X230.749Y-195.05
X230.8Y-98.375
X230.975Y-191.278
X231.0Y-76.7
X231.537Y-156.587
X231.556Y-190.556
X231.6Y-146.6
X231.649Y-194.05
X231.788Y-70.1
X231.825Y-211.075
X231.843Y-99.325
X231.874Y-188.195
X231.875Y-189.0
X231.875Y-189.8
X232.118Y-64.15
X232.275Y-113.85
X232.325Y-76.8
X232.325Y-184.9
X232.327Y-193.178
X232.429Y-67.275
X232.603Y-157.453
X233.0Y-75.849
X233.0Y-184.275
X233.068Y-59.968
X233.087Y-59.012
X233.2Y-98.799
X233.224Y-183.321
X233.307Y-145.947
X233.354Y-65.75
X233.849Y-182.63
X234.019Y-157.144
X234.025Y-64.225
X234.025Y-153.2
X234.141Y-60.667
X234.2Y-98.799
X234.29Y-159.79
X234.5Y-72.125
X234.549Y-193.363
X234.561Y-158.725
X234.575Y-173.374
X234.625Y-74.8
X234.7Y-185.525
X234.725Y-189.05
X234.725Y-190.075
X234.729Y-64.702
X234.825Y-114.75
X234.899Y-87.149
X234.9Y-187.125
X234.924Y-147.031
X234.925Y-60.85
X234.925Y-188.1
X234.987Y-98.606
X235.0Y-119.75
X235.05Y-77.305
X235.425Y-64.25
X235.55Y-72.125
X235.6Y-65.339
X235.625Y-98.125
X235.769Y-76.219
X235.909Y-75.174
X236.45Y-65.875
X236.7Y-87.1
X236.925Y-72.15
X237.175Y-65.5
X237.2Y-211.4
X237.283Y-60.908
X237.425Y-114.175
X237.524Y-75.0
X237.7Y-77.47
X237.85Y-65.975
X237.951Y-201.6
X238.0Y-72.1
X238.042Y-60.567
X238.1Y-79.002
X238.125Y-132.975
X238.149Y-80.251
X238.175Y-81.5
X238.187Y-143.733
X238.2Y-76.834
X238.2Y-82.751
X238.2Y-86.375
X238.35Y-139.225
X238.55Y-65.425
X238.675Y-202.15
X238.737Y-74.763
X238.738Y-82.126
X238.75Y-153.6
X238.775Y-83.375
X238.825Y-80.876
X238.875Y-79.626
X238.875Y-154.675
X238.9Y-78.375
X239.075Y-152.754
X239.125Y-158.35
X239.175Y-66.025
X239.4Y-87.4
X239.45Y-202.725
X239.575Y-153.489
X239.692Y-155.817
X239.7Y-73.3
X239.825Y-65.075
X239.875Y-113.55
X239.924Y-139.436
X240.122Y-65.922
X240.125Y-155.05
X240.275Y-85.625
X240.9Y-183.375
X240.92Y-65.96
X241.05Y-142.675
X241.2Y-87.9
X241.4Y-114.475
X241.587Y-155.012
X241.7Y-87.0
X241.75Y-83.95
X241.824Y-139.598
X241.982Y-138.499
X242.132Y-65.632
X242.15Y-182.875
X242.2Y-88.1
X242.2Y-174.0
X242.275Y-75.5
X242.35Y-92.85
X242.375Y-141.037
X242.425Y-113.525
X242.6Y-179.65
X242.76Y-138.767
X242.8Y-144.9
X243.375Y-178.45
X243.45Y-174.0
X244.0Y-132.7
X244.4Y-166.6
X244.688Y-178.675
X245.1Y-134.1
X245.625Y-66.075
X246.325Y-83.825
X247.0Y-174.6
X247.1Y-84.625
X247.14Y-167.435
X247.55Y-169.8
X247.873Y-175.4
X247.9Y-85.325
X248.6Y-84.4
X248.935Y-167.435
X249.0Y-103.8
X249.122Y-175.383
X249.4Y-165.7
X249.9Y-183.3
X249.975Y-110.675
X250.025Y-171.3
X250.225Y-167.25
X250.4Y-170.325
X250.528Y-185.317
X250.625Y-183.826
X250.875Y-172.25
X250.875Y-169.524
X251.3Y-185.524
X251.65Y-86.35
X251.85Y-87.35
X251.85Y-88.4
X252.275Y-174.6
X252.45Y-116.0
X252.6Y-114.55
X252.9Y-88.4
X254.8Y-148.8
X254.825Y-81.025
X255.278Y-117.397
X256.07Y-148.85
X256.35Y-86.95
X256.625Y-66.65
X256.8Y-81.325
X257.1Y-85.7
X257.25Y-67.45
X257.3Y-157.2
X257.34Y-148.8
X257.345Y-169.1
X257.575Y-66.625
X257.725Y-88.225
X257.775Y-90.775
X258.1Y-81.885
X258.1Y-158.1
X258.2Y-156.3
X258.2Y-169.7
X258.4Y-170.6
X258.5Y-66.375
X258.95Y-181.5
X259.2Y-170.8
X259.255Y-158.124
X259.3Y-66.4
X259.524Y-172.2
X259.95Y-181.5
X260.15Y-66.4
X260.7Y-171.1
X261.1Y-98.95
X261.15Y-181.275
X261.2Y-158.2
X261.375Y-172.0
X261.75Y-113.831
X261.8Y-157.4
X261.875Y-67.275
X262.015Y-68.115
X262.24Y-100.536
X262.4Y-170.2
X262.4Y-174.4
X262.468Y-68.807
X262.875Y-100.05
X263.0Y-82.4
X263.1Y-158.1
X263.214Y-172.497
X263.25Y-157.0
X263.3Y-152.2
X263.3Y-171.7
X263.7Y-170.1
X263.875Y-80.4
X263.985Y-172.714
X264.0Y-171.0
X264.1Y-151.7
X264.425Y-140.575
X264.599Y-112.177
X264.6Y-100.45
X264.651Y-170.4
X264.7Y-95.852
X265.0Y-152.761
X265.051Y-112.836
X265.2Y-96.477
X265.388Y-100.712
X265.4Y-169.9
X265.55Y-139.45
X265.672Y-95.228
X265.85Y-97.25
X265.875Y-151.85
X265.882Y-157.384
X266.2Y-152.9
X266.4Y-156.775
X266.6Y-169.9
X266.663Y-139.55
X266.9Y-152.3
X266.93Y-108.07
X266.975Y-109.35
X267.1Y-97.6
X267.1Y-110.61
X267.25Y-102.365
X267.375Y-89.425
X267.4Y-156.325
X267.5Y-151.4
X267.5Y-158.2
X267.5Y-169.2
X267.5Y-181.0
X267.815Y-152.135
X268.077Y-155.677
X268.65Y-117.723
X268.8Y-158.1
X268.8Y-181.0
X269.1Y-120.925
X269.15Y-181.85
X269.975Y-97.875
X270.0Y-158.1
X270.05Y-182.15
X270.125Y-99.15
X270.15Y-115.3
X270.325Y-100.45
X270.45Y-184.174
X270.462Y-187.537
X270.65Y-121.375
X271.125Y-182.3
X271.3Y-158.1
X271.85Y-121.15
X272.025Y-102.25
X272.2Y-158.1
X272.4Y-182.1
X272.664Y-157.311
X272.9Y-163.7
X272.975Y-121.125
X273.377Y-99.6
X273.55Y-182.15
X273.9Y-156.6
X273.904Y-157.621
X274.075Y-122.225
X274.55Y-182.2
X274.6Y-155.9
X274.625Y-102.25
X274.825Y-123.1
X275.173Y-89.703
X275.243Y-90.76
X275.45Y-122.225
X276.025Y-102.085
X276.275Y-123.1
X276.925Y-122.225
X277.1Y-151.7
X277.284Y-102.8
X277.5Y-157.0
X277.55Y-123.075
X277.7Y-158.0
X277.782Y-92.682
X277.8Y-152.3
X278.275Y-122.225
X278.6Y-101.95
X278.95Y-123.075
X279.053Y-92.652
X279.142Y-153.108
X279.275Y-104.25
X279.625Y-122.225
X279.85Y-165.1
X280.084Y-152.076
X280.322Y-93.16
X280.325Y-123.075
X280.35Y-164.4
X280.35Y-165.8
X280.4Y-154.7
X280.55Y-105.05
X280.95Y-122.225
X281.1Y-151.325
X281.108Y-137.292
X281.226Y-103.7
X281.275Y-91.825
X281.592Y-96.925
X281.625Y-123.05
X281.7Y-152.7
X281.95Y-102.375
X282.325Y-78.5
X282.358Y-122.229
X282.45Y-82.075
X282.611Y-154.024
X282.81Y-81.289
X282.875Y-96.95
X282.929Y-101.471
X282.983Y-123.107
X283.4Y-80.75
X283.65Y-122.2
X283.675Y-97.35
X283.725Y-83.75
X284.225Y-80.475
X284.319Y-123.125
X284.373Y-83.099
X284.45Y-84.525
X284.924Y-102.45
X284.974Y-112.875
X285.05Y-122.2
X285.197Y-80.347
X285.726Y-123.125
X286.25Y-105.625
X286.25Y-113.1
X286.351Y-122.175
X286.375Y-110.475
X286.396Y-136.571
X286.976Y-123.125
X287.134Y-104.741
X287.825Y-103.575
X288.196Y-139.254
X288.3Y-140.3
X288.796Y-112.079
X289.201Y-103.631
X289.508Y-111.017
X289.675Y-142.625
X289.725Y-92.575
X290.275Y-110.0
X290.825Y-93.325
X292.3Y-93.405
X292.725Y-153.198
X292.9Y-150.451
X292.95Y-151.75
X293.075Y-94.875
X293.451Y-151.121
X293.5Y-110.625
X293.675Y-109.25
X293.688Y-107.987
X293.725Y-106.825
X293.8Y-97.925
X294.375Y-111.875
X294.5Y-106.3
X294.585Y-98.66
X295.225Y-105.55
X295.375Y-94.35
X295.609Y-88.991
X295.925Y-87.6
X296.8Y-148.8
X297.2Y-90.35
X297.525Y-105.475
X297.925Y-91.537
X298.05Y-106.95
X298.15Y-148.325
X298.226Y-108.05
X298.85Y-139.8
X299.175Y-92.275
X299.45Y-150.5
X299.825Y-137.2
X299.85Y-134.8
X300.0Y-93.05
X300.45Y-99.575
X300.625Y-148.725
X301.075Y-142.875
X301.2Y-132.1
X301.2Y-147.4
X301.275Y-126.825
X301.3Y-144.9
X301.625Y-124.15
X301.925Y-84.775
T2
X122.0Y-60.0
X122.0Y-66.0
X122.0Y-72.0
X122.0Y-78.0
X122.0Y-84.0
X122.0Y-90.0
X122.0Y-96.0
X122.0Y-102.0
X122.0Y-108.0
X122.0Y-114.0
X122.0Y-120.0
X122.0Y-126.0
X122.0Y-132.0
X122.0Y-138.0
X122.0Y-144.0
X122.0Y-150.0
X122.0Y-156.0
X122.0Y-162.0
X122.0Y-168.0
X122.0Y-174.0
X122.0Y-180.0
X122.0Y-186.0
X122.0Y-192.0
X122.0Y-198.0
X122.0Y-204.0
X122.0Y-210.0
X122.0Y-216.0
X124.5Y-47.5
X126.0Y-57.0
X126.0Y-63.0
X126.0Y-69.0
X126.0Y-75.0
X126.0Y-81.0
X126.0Y-87.0
X126.0Y-93.0
X126.0Y-99.0
X126.0Y-105.0
X126.0Y-111.0
X126.0Y-117.0
X126.0Y-123.0
X126.0Y-129.0
X126.0Y-147.0
X126.0Y-153.0
X126.0Y-159.0
X126.0Y-165.0
X126.0Y-171.0
X126.0Y-177.0
X126.0Y-183.0
X126.0Y-189.0
X126.0Y-195.0
X126.0Y-201.0
X126.0Y-207.0
X126.0Y-213.0
X127.5Y-43.5
X130.5Y-47.5
X133.5Y-43.5
X135.25Y-113.53
X135.345Y-116.33
X135.5Y-119.98
X135.5Y-121.53
X136.5Y-47.5
X136.588Y-82.525
X136.625Y-103.9
X136.725Y-100.05
X137.4Y-86.1
X138.425Y-165.325
X138.425Y-174.15
X139.5Y-43.5
X139.5Y-120.73
X139.65Y-112.575
X139.95Y-115.875
X140.45Y-123.53
X141.075Y-112.775
X141.1Y-117.53
X141.775Y-119.155
X142.55Y-124.73
X143.1Y-113.53
X143.1Y-115.08
X143.256Y-67.575
X143.425Y-194.0
X143.5Y-118.73
X143.6Y-119.93
X143.6Y-128.25
X143.65Y-122.73
X144.95Y-127.78
X145.5Y-232.5
X145.95Y-135.95
X147.2Y-119.98
X147.2Y-121.43
X147.5Y-224.5
X147.65Y-115.13
X147.65Y-180.125
X147.875Y-113.53
X149.575Y-200.15
X149.606Y-60.452
X149.606Y-61.595
X149.606Y-62.738
X149.657Y-83.058
X149.975Y-122.075
X150.282Y-78.658
X150.282Y-80.558
X150.282Y-85.57
X150.282Y-87.471
X150.525Y-115.4
X151.5Y-232.5
X151.79Y-64.313
X152.257Y-80.52
X153.314Y-67.564
X153.5Y-224.5
X154.45Y-191.425
X154.65Y-196.6
X154.925Y-205.5
X156.025Y-179.75
X156.591Y-61.087
X157.5Y-232.5
X157.607Y-61.087
X158.325Y-171.875
X158.877Y-61.087
X159.5Y-224.5
X159.825Y-172.75
X159.825Y-177.25
X159.893Y-61.087
X161.544Y-66.548
X161.8Y-126.8
X162.425Y-181.375
X163.449Y-65.532
X163.5Y-232.5
X163.8Y-75.5
X163.9Y-193.075
X164.225Y-123.425
X164.3Y-171.05
X164.9Y-177.9
X165.5Y-224.5
X165.608Y-68.627
X167.275Y-123.4
X168.0Y-142.1
X168.475Y-155.425
X169.5Y-232.5
X169.6Y-142.1
X170.125Y-168.875
X170.825Y-196.025
X171.125Y-155.425
X171.5Y-224.5
X172.6Y-139.4
X173.8Y-173.175
X174.125Y-170.066
X174.3Y-167.825
X175.075Y-90.325
X175.2Y-143.45
X176.85Y-118.3
X176.875Y-95.225
X177.475Y-206.49
X179.761Y-127.636
X180.34Y-86.233
X181.0Y-135.75
X181.316Y-90.297
X182.65Y-120.325
X182.967Y-90.485
X183.0Y-232.0
X183.975Y-131.925
X184.999Y-86.741
X184.999Y-90.447
X185.95Y-95.15
X185.95Y-206.4
X186.7Y-66.9
X187.325Y-85.956
X187.487Y-75.729
X188.625Y-86.925
X189.0Y-232.0
X190.9Y-121.375
X191.95Y-116.775
X192.575Y-150.35
X192.575Y-152.875
X193.5Y-43.5
X194.375Y-67.6
X195.5Y-52.5
X196.53Y-121.55
X196.675Y-195.05
X197.799Y-81.525
X198.5Y-206.5
X199.15Y-190.65
X199.5Y-43.5
X201.5Y-52.5
X203.3Y-116.775
X203.5Y-227.0
X203.825Y-190.4
X204.3Y-84.45
X204.3Y-180.5
X204.325Y-88.35
X204.325Y-94.225
X204.425Y-79.925
X204.85Y-121.625
X205.5Y-43.5
X205.65Y-179.625
X205.737Y-88.3
X205.737Y-94.2
X205.74Y-84.45
X205.85Y-190.525
X206.025Y-126.075
X206.6Y-180.5
X207.5Y-190.6
X209.15Y-180.675
X209.5Y-227.0
X210.2Y-179.4
X210.9Y-154.45
X211.0Y-52.5
X211.5Y-43.5
X212.15Y-128.35
X212.8Y-75.65
X213.075Y-156.575
X213.35Y-181.95
X213.55Y-205.475
X213.925Y-176.375
X214.55Y-188.475
X214.7Y-172.825
X215.05Y-137.825
X215.2Y-62.9
X217.75Y-83.8
X218.125Y-152.825
X218.147Y-137.972
X219.5Y-52.5
X219.825Y-179.6
X220.1Y-176.65
X220.5Y-167.925
X221.0Y-70.4
X225.0Y-205.175
X225.5Y-52.5
X226.0Y-204.5
X226.5Y-232.0
X227.5Y-74.1
X228.95Y-95.375
X229.5Y-156.55
X231.5Y-52.5
X231.975Y-78.8
X232.5Y-232.0
X233.2Y-57.875
X235.7Y-89.7
X237.5Y-52.5
X238.025Y-97.825
X238.5Y-43.5
X238.575Y-141.55
X238.975Y-163.075
X238.984Y-159.796
X241.0Y-179.7
X242.03Y-77.59
X242.05Y-67.2
X242.8Y-159.06
X242.8Y-161.6
X243.162Y-116.275
X243.5Y-52.5
X243.625Y-130.4
X244.0Y-224.5
X244.25Y-168.725
X244.5Y-43.5
X248.225Y-116.25
X249.5Y-52.5
X249.65Y-181.55
X250.0Y-224.5
X250.125Y-173.1
X250.4Y-177.575
X250.5Y-43.5
X253.3Y-79.625
X253.5Y-175.4
X254.6Y-133.6
X254.6Y-134.8
X254.6Y-153.2
X255.5Y-52.5
X255.5Y-89.5
X256.0Y-224.5
X256.2Y-155.9
X256.5Y-43.5
X256.6Y-152.7
X257.375Y-181.925
X257.425Y-184.0
X257.5Y-89.5
X258.0Y-231.5
X261.3Y-152.475
X261.5Y-52.5
X262.0Y-224.5
X262.5Y-43.5
X263.025Y-184.0
X263.05Y-187.575
X263.632Y-87.843
X264.0Y-231.5
X264.5Y-169.3
X265.42Y-91.99
X266.461Y-61.9
X267.5Y-52.5
X268.0Y-224.5
X268.2Y-182.6
X268.5Y-43.5
X270.0Y-231.5
X270.35Y-101.725
X270.5Y-105.525
X271.575Y-114.425
X271.7Y-152.675
X271.95Y-116.55
X272.9Y-169.6
X273.4Y-174.15
X273.5Y-52.5
X274.5Y-43.5
X276.55Y-57.575
X277.125Y-83.95
X277.626Y-178.749
X277.665Y-174.2
X278.731Y-168.794
X279.025Y-172.3
X279.152Y-156.056
X279.5Y-52.5
X280.4Y-161.8
X280.5Y-43.5
X280.7Y-64.95
X286.35Y-106.65
X286.35Y-108.9
X286.5Y-43.5
X287.475Y-71.7
X292.7Y-159.0
X292.7Y-163.3
X292.7Y-168.3
X292.7Y-173.0
X292.7Y-178.3
X292.7Y-183.4
X294.0Y-52.6
X294.0Y-58.6
X294.0Y-64.6
X294.0Y-70.6
X294.0Y-76.6
X294.65Y-102.625
X296.45Y-138.1
X297.0Y-191.0
X297.0Y-197.0
X297.0Y-203.0
X297.0Y-209.0
X299.2Y-141.847
X302.0Y-193.0
X302.0Y-199.0
X302.0Y-205.0
X302.0Y-211.0
T3
X136.05Y-140.075
X152.525Y-72.2
X153.6Y-105.575
X154.5Y-72.2
X173.775Y-156.2
X174.925Y-208.09
X201.2Y-59.5
X202.3Y-58.4
X203.9Y-152.75
X203.9Y-158.25
X208.825Y-129.225
X215.4Y-152.9
X218.8Y-207.2
X220.2Y-152.9
X237.375Y-162.075
X273.925Y-61.95
X275.95Y-188.35
X277.95Y-182.65
X300.0Y-156.4
X300.3Y-82.702
X300.875Y-128.425
T4
X205.05Y-206.5
X206.275Y-206.5
X207.535Y-206.5
X208.75Y-206.5
T5
X133.45Y-84.275
X133.45Y-86.775
X135.3Y-105.75
X135.3Y-108.25
X135.833Y-70.739
X137.45Y-127.475
X137.45Y-129.975
X138.425Y-183.025
X138.425Y-185.525
X139.55Y-100.55
X139.55Y-103.05
X139.929Y-89.219
X139.929Y-91.719
X140.833Y-70.739
X141.825Y-105.75
X141.825Y-108.25
X144.272Y-70.739
X145.771Y-89.281
X145.771Y-91.781
X146.772Y-70.739
X147.0Y-100.575
X147.0Y-103.075
X149.705Y-141.732
X152.205Y-141.732
X152.257Y-83.058
X152.925Y-75.184
X154.757Y-83.058
X155.425Y-75.184
X159.044Y-75.184
X161.544Y-75.184
X163.514Y-82.296
X166.014Y-82.296
X170.536Y-80.01
X173.036Y-80.01
X178.05Y-85.925
X180.025Y-67.475
X182.525Y-67.475
X182.95Y-85.925
X187.875Y-90.464
X187.875Y-92.964
X196.2Y-94.05
X198.7Y-94.05
X207.25Y-75.55
X209.4Y-61.2
X209.75Y-75.55
X211.9Y-61.2
X241.4Y-185.925
X243.9Y-185.925
X249.6Y-120.425
X252.1Y-120.425
X252.55Y-66.85
X255.05Y-66.85
X263.3Y-200.205
X263.3Y-207.825
X263.885Y-78.225
X263.885Y-85.845
X265.84Y-200.205
X265.84Y-207.825
X267.545Y-124.5
X268.38Y-200.205
X268.38Y-207.825
X270.045Y-124.5
X270.92Y-200.205
X270.92Y-207.825
X273.46Y-200.205
X273.46Y-207.825
X276.0Y-200.205
X276.0Y-207.825
X278.54Y-200.205
X278.54Y-207.825
X279.125Y-78.225
X279.125Y-85.845
X289.5Y-85.2
X289.5Y-87.7
X291.0Y-155.82
X291.0Y-158.32
T6
X178.05Y-92.25
X178.804Y-50.916
X178.804Y-53.416
X180.804Y-53.416
X181.554Y-50.916
X182.804Y-53.416
X183.05Y-92.25
X183.554Y-50.916
X184.804Y-53.416
X186.804Y-50.916
X186.804Y-53.416
T7
X133.45Y-75.65
X133.45Y-80.73
X148.844Y-136.779
X153.924Y-136.779
X161.482Y-194.5
X161.482Y-197.0
X161.482Y-204.0
X161.482Y-206.5
X161.482Y-209.0
X166.482Y-194.5
X166.482Y-197.0
X166.482Y-199.5
X166.482Y-206.5
X166.482Y-209.0
X167.538Y-104.14
X167.538Y-109.14
X170.078Y-104.14
X170.078Y-109.14
X172.618Y-104.14
X172.618Y-109.14
X175.158Y-104.14
X175.158Y-109.14
X177.698Y-104.14
X177.698Y-109.14
X180.238Y-104.14
X180.238Y-109.14
X182.778Y-104.14
X182.778Y-109.14
X185.318Y-104.14
X185.318Y-109.14
X187.858Y-104.14
X187.858Y-109.14
X190.398Y-104.14
X190.398Y-109.14
X192.938Y-104.14
X192.938Y-109.14
X195.478Y-104.14
X195.478Y-109.14
X198.018Y-104.14
X198.018Y-109.14
X200.558Y-104.14
X200.558Y-109.14
X203.098Y-104.14
X203.098Y-109.14
X205.638Y-104.14
X205.638Y-109.14
X208.178Y-104.14
X208.178Y-109.14
X210.718Y-104.14
X210.718Y-109.14
X213.258Y-104.14
X213.258Y-109.14
X215.798Y-104.14
X215.798Y-109.14
X218.338Y-104.14
X218.338Y-109.14
X220.878Y-104.14
X220.878Y-109.14
X223.418Y-104.14
X223.418Y-109.14
X225.958Y-104.14
X225.958Y-109.14
X228.498Y-104.14
X228.498Y-109.14
X231.038Y-104.14
X231.038Y-109.14
X233.578Y-104.14
X233.578Y-109.14
X236.118Y-104.14
X236.118Y-109.14
X238.658Y-104.14
X238.658Y-109.14
X241.198Y-104.14
X241.198Y-109.14
X243.738Y-104.14
X243.738Y-109.14
X246.278Y-104.14
X246.278Y-109.14
X300.925Y-87.75
T8
X177.3Y-217.4
X177.3Y-219.9
X177.3Y-222.4
X180.7Y-217.4
X180.7Y-219.9
X180.7Y-222.4
X184.1Y-217.4
X184.1Y-219.9
X184.1Y-222.4
X187.5Y-217.4
X187.5Y-219.9
X187.5Y-222.4
X190.9Y-217.4
X190.9Y-219.9
X190.9Y-222.4
X194.3Y-217.4
X194.3Y-219.9
X194.3Y-222.4
X194.6Y-56.1
X197.1Y-56.1
X197.7Y-217.4
X197.7Y-219.9
X197.7Y-222.4
X199.6Y-56.1
X201.1Y-217.4
X201.1Y-219.9
X201.1Y-222.4
X212.7Y-217.4
X212.7Y-219.9
X212.7Y-222.4
X216.1Y-217.4
X216.1Y-219.9
X216.1Y-222.4
X219.5Y-217.4
X219.5Y-219.9
X219.5Y-222.4
X222.9Y-217.4
X222.9Y-219.9
X222.9Y-222.4
X226.3Y-217.4
X226.3Y-219.9
X226.3Y-222.4
X229.7Y-217.4
X229.7Y-219.9
X229.7Y-222.4
X233.1Y-217.4
X233.1Y-219.9
X233.1Y-222.4
X236.5Y-217.4
X236.5Y-219.9
X236.5Y-222.4
T9
X185.366Y-226.682
X186.751Y-229.522
X188.136Y-226.682
X189.521Y-229.522
X190.906Y-226.682
X192.291Y-229.522
X193.676Y-226.682
X195.061Y-229.522
X196.446Y-226.682
X217.37Y-226.682
X218.755Y-229.522
X220.14Y-226.682
X221.525Y-229.522
X222.91Y-226.682
X224.295Y-229.522
X225.68Y-226.682
X227.065Y-229.522
X228.45Y-226.682
T10
X244.775Y-194.575
X244.775Y-199.575
X244.775Y-204.067
X244.775Y-209.067
X255.075Y-194.575
X255.075Y-199.575
X255.075Y-204.067
X255.075Y-209.067
T5
X175.554Y-46.516G85X175.554Y-48.316
G05
X175.554Y-53.016G85X175.554Y-54.816
G05
X181.904Y-47.166G85X183.704Y-47.166
G05
X190.054Y-46.516G85X190.054Y-48.316
G05
X190.054Y-53.016G85X190.054Y-54.816
G05
T7
X161.735Y-51.104G85X161.735Y-51.704
G05
X164.935Y-53.904G85X166.535Y-53.904
G05
X169.735Y-51.104G85X169.735Y-51.704
G05
T0
M30
