%TF.GenerationSoftware,KiCad,Pcbnew,7.0.8*%
%TF.CreationDate,2024-02-10T12:17:18+00:00*%
%TF.ProjectId,Neptune-32x-315-5805-bypass,4e657074-756e-4652-9d33-32782d333135,rev?*%
%TF.SameCoordinates,Original*%
%TF.FileFunction,Paste,Top*%
%TF.FilePolarity,Positive*%
%FSLAX46Y46*%
G04 Gerber Fmt 4.6, Leading zero omitted, Abs format (unit mm)*
G04 Created by KiCad (PCBNEW 7.0.8) date 2024-02-10 12:17:18*
%MOMM*%
%LPD*%
G01*
G04 APERTURE LIST*
%ADD10R,1.000000X0.300000*%
%ADD11R,0.300000X1.000000*%
G04 APERTURE END LIST*
D10*
%TO.C,IC1*%
X97572800Y-64505600D03*
X97572800Y-65305600D03*
X97572800Y-66105600D03*
X97572800Y-66905600D03*
X97572800Y-67705600D03*
X97572800Y-68505600D03*
X97572800Y-69305600D03*
X97572800Y-70105600D03*
X97572800Y-70905600D03*
X97572800Y-71705600D03*
X97572800Y-72505600D03*
X97572800Y-73305600D03*
X97572800Y-74105600D03*
X97572800Y-74905600D03*
X97572800Y-75705600D03*
X97572800Y-76505600D03*
X97572800Y-77305600D03*
X97572800Y-78105600D03*
X97572800Y-78905600D03*
X97572800Y-79705600D03*
X97572800Y-80505600D03*
X97572800Y-81305600D03*
X97572800Y-82105600D03*
X97572800Y-82905600D03*
D11*
X99072800Y-84205600D03*
X99872800Y-84205600D03*
X100672800Y-84205600D03*
X101472800Y-84205600D03*
X102272800Y-84205600D03*
X103072800Y-84205600D03*
X103872800Y-84205600D03*
X104672800Y-84205600D03*
X105472800Y-84205600D03*
X106272800Y-84205600D03*
X107072800Y-84205600D03*
X107872800Y-84205600D03*
X108672800Y-84205600D03*
X109472800Y-84205600D03*
X110272800Y-84205600D03*
X111072800Y-84205600D03*
D10*
X112572800Y-82905600D03*
X112572800Y-82105600D03*
X112572800Y-81305600D03*
X112572800Y-80505600D03*
X112572800Y-79705600D03*
X112572800Y-78905600D03*
X112572800Y-78105600D03*
X112572800Y-77305600D03*
X112572800Y-76505600D03*
X112572800Y-75705600D03*
X112572800Y-74905600D03*
X112572800Y-74105600D03*
X112572800Y-73305600D03*
X112572800Y-72505600D03*
X112572800Y-71705600D03*
X112572800Y-70905600D03*
X112572800Y-70105600D03*
X112572800Y-69305600D03*
X112572800Y-68505600D03*
X112572800Y-67705600D03*
X112572800Y-66905600D03*
X112572800Y-66105600D03*
X112572800Y-65305600D03*
X112572800Y-64505600D03*
D11*
X111072800Y-63205600D03*
X110272800Y-63205600D03*
X109472800Y-63205600D03*
X108672800Y-63205600D03*
X107872800Y-63205600D03*
X107072800Y-63205600D03*
X106272800Y-63205600D03*
X105472800Y-63205600D03*
X104672800Y-63205600D03*
X103872800Y-63205600D03*
X103072800Y-63205600D03*
X102272800Y-63205600D03*
X101472800Y-63205600D03*
X100672800Y-63205600D03*
X99872800Y-63205600D03*
X99072800Y-63205600D03*
%TD*%
M02*
