%TF.GenerationSoftware,KiCad,Pcbnew,7.0.8*%
%TF.CreationDate,2024-01-22T11:28:36+00:00*%
%TF.ProjectId,Neptune-32x-315-5805-bypass,4e657074-756e-4652-9d33-32782d333135,rev?*%
%TF.SameCoordinates,Original*%
%TF.FileFunction,Copper,L2,Bot*%
%TF.FilePolarity,Positive*%
%FSLAX46Y46*%
G04 Gerber Fmt 4.6, Leading zero omitted, Abs format (unit mm)*
G04 Created by KiCad (PCBNEW 7.0.8) date 2024-01-22 11:28:36*
%MOMM*%
%LPD*%
G01*
G04 APERTURE LIST*
%TA.AperFunction,ComponentPad*%
%ADD10O,1.300000X0.660000*%
%TD*%
%TA.AperFunction,ComponentPad*%
%ADD11O,0.660000X1.300000*%
%TD*%
%TA.AperFunction,ViaPad*%
%ADD12C,0.800000*%
%TD*%
%TA.AperFunction,Conductor*%
%ADD13C,0.127000*%
%TD*%
G04 APERTURE END LIST*
D10*
%TO.P,IC1,1,RA4*%
%TO.N,VA4*%
X95019200Y-68580000D03*
%TO.P,IC1,2,RA3*%
%TO.N,VA3*%
X95019200Y-69380000D03*
%TO.P,IC1,3,RA2*%
%TO.N,VA2*%
X95019200Y-70180000D03*
%TO.P,IC1,4,RA1*%
%TO.N,VA1*%
X95019200Y-70980000D03*
%TO.P,IC1,5,GND*%
%TO.N,unconnected-(IC1-GND-Pad5)*%
X95019200Y-71780000D03*
%TO.P,IC1,6,VA23*%
%TO.N,VA23*%
X95019200Y-72580000D03*
%TO.P,IC1,7,VA22*%
%TO.N,VA22*%
X95019200Y-73380000D03*
%TO.P,IC1,8,OVA21*%
%TO.N,VA21*%
X95019200Y-74180000D03*
%TO.P,IC1,9,OVA20*%
%TO.N,VA20*%
X95019200Y-74980000D03*
%TO.P,IC1,10,OVA19*%
%TO.N,VA19*%
X95019200Y-75780000D03*
%TO.P,IC1,11,VA18*%
%TO.N,VA18*%
X95019200Y-76580000D03*
%TO.P,IC1,12,GND*%
%TO.N,unconnected-(IC1-GND-Pad12)*%
X95019200Y-77380000D03*
%TO.P,IC1,13,VA17*%
%TO.N,VA17*%
X95019200Y-78180000D03*
%TO.P,IC1,14,VA16*%
%TO.N,VA16*%
X95019200Y-78980000D03*
%TO.P,IC1,15,VA15*%
%TO.N,VA15*%
X95019200Y-79780000D03*
%TO.P,IC1,16,VA14*%
%TO.N,VA14*%
X95019200Y-80580000D03*
%TO.P,IC1,17,VA13*%
%TO.N,VA13*%
X95019200Y-81380000D03*
%TO.P,IC1,18,VA12*%
%TO.N,VA12*%
X95019200Y-82180000D03*
%TO.P,IC1,19,VA11*%
%TO.N,VA11*%
X95019200Y-82980000D03*
%TO.P,IC1,20,VA10*%
%TO.N,VA10*%
X95019200Y-83780000D03*
%TO.P,IC1,21,VA9*%
%TO.N,VA9*%
X95019200Y-84580000D03*
%TO.P,IC1,22,VA8*%
%TO.N,VA8*%
X95019200Y-85380000D03*
%TO.P,IC1,23,VA7*%
%TO.N,VA7*%
X95019200Y-86180000D03*
%TO.P,IC1,24,VA6*%
%TO.N,VA6*%
X95019200Y-86980000D03*
D11*
%TO.P,IC1,25,VA5*%
%TO.N,VA5*%
X97169200Y-88930000D03*
%TO.P,IC1,26,VA4*%
%TO.N,VA4*%
X97969200Y-88930000D03*
%TO.P,IC1,27,VA3*%
%TO.N,VA3*%
X98769200Y-88930000D03*
%TO.P,IC1,28,VA2*%
%TO.N,VA2*%
X99569200Y-88930000D03*
%TO.P,IC1,29,VA1*%
%TO.N,VA1*%
X100369200Y-88930000D03*
%TO.P,IC1,30,SHA21*%
%TO.N,unconnected-(IC1-SHA21-Pad30)*%
X101169200Y-88930000D03*
%TO.P,IC1,31,SHA20*%
%TO.N,unconnected-(IC1-SHA20-Pad31)*%
X101969200Y-88930000D03*
%TO.P,IC1,32,CKIO*%
%TO.N,unconnected-(IC1-CKIO-Pad32)*%
X102769200Y-88930000D03*
%TO.P,IC1,33,GND*%
%TO.N,unconnected-(IC1-GND-Pad33)*%
X103569200Y-88930000D03*
%TO.P,IC1,34,VDD*%
%TO.N,unconnected-(IC1-VDD-Pad34)*%
X104369200Y-88930000D03*
%TO.P,IC1,35,BREQ*%
%TO.N,unconnected-(IC1-BREQ-Pad35)*%
X105169200Y-88930000D03*
%TO.P,IC1,36,OBACK*%
%TO.N,unconnected-(IC1-OBACK-Pad36)*%
X105969200Y-88930000D03*
%TO.P,IC1,37,OBACK*%
%TO.N,unconnected-(IC1-OBACK-Pad37)*%
X106769200Y-88930000D03*
%TO.P,IC1,38,SHA19*%
%TO.N,unconnected-(IC1-SHA19-Pad38)*%
X107569200Y-88930000D03*
%TO.P,IC1,39,SHA18*%
%TO.N,unconnected-(IC1-SHA18-Pad39)*%
X108369200Y-88930000D03*
%TO.P,IC1,40,SHA1*%
%TO.N,unconnected-(IC1-SHA1-Pad40)*%
X109169200Y-88930000D03*
D10*
%TO.P,IC1,41,SHA2*%
%TO.N,unconnected-(IC1-SHA2-Pad41)*%
X111319200Y-86980000D03*
%TO.P,IC1,42,SHA3*%
%TO.N,unconnected-(IC1-SHA3-Pad42)*%
X111319200Y-86180000D03*
%TO.P,IC1,43,SHA4*%
%TO.N,unconnected-(IC1-SHA4-Pad43)*%
X111319200Y-85380000D03*
%TO.P,IC1,44,SHA5*%
%TO.N,unconnected-(IC1-SHA5-Pad44)*%
X111319200Y-84580000D03*
%TO.P,IC1,45,SHA6*%
%TO.N,unconnected-(IC1-SHA6-Pad45)*%
X111319200Y-83780000D03*
%TO.P,IC1,46,SHA7*%
%TO.N,unconnected-(IC1-SHA7-Pad46)*%
X111319200Y-82980000D03*
%TO.P,IC1,47,SHA8*%
%TO.N,unconnected-(IC1-SHA8-Pad47)*%
X111319200Y-82180000D03*
%TO.P,IC1,48,SHA9*%
%TO.N,unconnected-(IC1-SHA9-Pad48)*%
X111319200Y-81380000D03*
%TO.P,IC1,49,SHA10*%
%TO.N,unconnected-(IC1-SHA10-Pad49)*%
X111319200Y-80580000D03*
%TO.P,IC1,50,SHA11*%
%TO.N,unconnected-(IC1-SHA11-Pad50)*%
X111319200Y-79780000D03*
%TO.P,IC1,51,SHA12*%
%TO.N,unconnected-(IC1-SHA12-Pad51)*%
X111319200Y-78980000D03*
%TO.P,IC1,52,SHA13*%
%TO.N,unconnected-(IC1-SHA13-Pad52)*%
X111319200Y-78180000D03*
%TO.P,IC1,53,GND*%
%TO.N,unconnected-(IC1-GND-Pad53)*%
X111319200Y-77380000D03*
%TO.P,IC1,54,SHA14*%
%TO.N,unconnected-(IC1-SHA14-Pad54)*%
X111319200Y-76580000D03*
%TO.P,IC1,55,SHA15*%
%TO.N,unconnected-(IC1-SHA15-Pad55)*%
X111319200Y-75780000D03*
%TO.P,IC1,56,SHA16*%
%TO.N,unconnected-(IC1-SHA16-Pad56)*%
X111319200Y-74980000D03*
%TO.P,IC1,57,SHA17*%
%TO.N,unconnected-(IC1-SHA17-Pad57)*%
X111319200Y-74180000D03*
%TO.P,IC1,58,~{SEL}*%
%TO.N,unconnected-(IC1-~{SEL}-Pad58)*%
X111319200Y-73380000D03*
%TO.P,IC1,59,GND*%
%TO.N,unconnected-(IC1-GND-Pad59)*%
X111319200Y-72580000D03*
%TO.P,IC1,60,RA23*%
%TO.N,VA23*%
X111319200Y-71780000D03*
%TO.P,IC1,61,RA22*%
%TO.N,VA22*%
X111319200Y-70980000D03*
%TO.P,IC1,62,RA21*%
%TO.N,VA21*%
X111319200Y-70180000D03*
%TO.P,IC1,63,RA20*%
%TO.N,VA20*%
X111319200Y-69380000D03*
%TO.P,IC1,64,RA19*%
%TO.N,VA19*%
X111319200Y-68580000D03*
D11*
%TO.P,IC1,65,RA18*%
%TO.N,VA18*%
X109169200Y-66630000D03*
%TO.P,IC1,66,RA17*%
%TO.N,VA17*%
X108369200Y-66630000D03*
%TO.P,IC1,67,RA16*%
%TO.N,VA16*%
X107569200Y-66630000D03*
%TO.P,IC1,68,RA15*%
%TO.N,VA15*%
X106769200Y-66630000D03*
%TO.P,IC1,69,RA14*%
%TO.N,VA14*%
X105969200Y-66630000D03*
%TO.P,IC1,70,RA13*%
%TO.N,VA13*%
X105169200Y-66630000D03*
%TO.P,IC1,71,GND*%
%TO.N,unconnected-(IC1-GND-Pad71)*%
X104369200Y-66630000D03*
%TO.P,IC1,72,VDD*%
%TO.N,unconnected-(IC1-VDD-Pad72)*%
X103569200Y-66630000D03*
%TO.P,IC1,73,RA12*%
%TO.N,VA12*%
X102769200Y-66630000D03*
%TO.P,IC1,74,RA11*%
%TO.N,VA11*%
X101969200Y-66630000D03*
%TO.P,IC1,75,RA10*%
%TO.N,VA10*%
X101169200Y-66630000D03*
%TO.P,IC1,76,RA9*%
%TO.N,VA9*%
X100369200Y-66630000D03*
%TO.P,IC1,77,RA8*%
%TO.N,VA8*%
X99569200Y-66630000D03*
%TO.P,IC1,78,RA7*%
%TO.N,VA7*%
X98769200Y-66630000D03*
%TO.P,IC1,79,RA6*%
%TO.N,VA6*%
X97969200Y-66630000D03*
%TO.P,IC1,80,RA5*%
%TO.N,VA5*%
X97169200Y-66630000D03*
%TD*%
D12*
%TO.N,VA6*%
X97119700Y-68104100D03*
%TO.N,VA7*%
X97642600Y-71683700D03*
%TO.N,VA8*%
X96919000Y-72978400D03*
%TO.N,VA9*%
X100258700Y-79888000D03*
%TO.N,VA10*%
X100843100Y-78662600D03*
%TO.N,VA11*%
X101089800Y-77405200D03*
%TO.N,VA12*%
X101990100Y-75594500D03*
%TO.N,VA13*%
X102393500Y-74547400D03*
%TO.N,VA14*%
X103134400Y-73252200D03*
%TO.N,VA15*%
X104193500Y-72276300D03*
%TO.N,VA16*%
X105619300Y-72037700D03*
%TO.N,VA17*%
X108080100Y-71695800D03*
%TO.N,VA18*%
X109169200Y-71218200D03*
%TO.N,VA20*%
X110021700Y-68003300D03*
%TO.N,VA21*%
X110040100Y-67079700D03*
%TO.N,VA22*%
X96483800Y-75103800D03*
%TO.N,VA23*%
X96632300Y-76025100D03*
%TO.N,VA1*%
X97257000Y-83200200D03*
%TO.N,VA2*%
X97215700Y-84120600D03*
%TO.N,VA3*%
X98331200Y-69787300D03*
%TO.N,VA4*%
X97924400Y-85804200D03*
%TD*%
D13*
%TO.N,VA6*%
X97760000Y-67463800D02*
X97119700Y-68104100D01*
X97969200Y-67463800D02*
X97760000Y-67463800D01*
X97969200Y-66630000D02*
X97969200Y-67463800D01*
%TO.N,VA7*%
X98769200Y-66630000D02*
X98769200Y-67463800D01*
X98916800Y-70409500D02*
X97642600Y-71683700D01*
X98916800Y-67611400D02*
X98916800Y-70409500D01*
X98769200Y-67463800D02*
X98916800Y-67611400D01*
%TO.N,VA8*%
X97180000Y-72978400D02*
X96919000Y-72978400D01*
X99569200Y-70589200D02*
X97180000Y-72978400D01*
X99569200Y-66630000D02*
X99569200Y-70589200D01*
%TO.N,VA9*%
X95019200Y-84580000D02*
X95853000Y-84580000D01*
X99743700Y-79888000D02*
X100258700Y-79888000D01*
X96284400Y-83347300D02*
X99743700Y-79888000D01*
X96284400Y-84148600D02*
X96284400Y-83347300D01*
X95853000Y-84580000D02*
X96284400Y-84148600D01*
%TO.N,VA10*%
X95019200Y-83780000D02*
X95853000Y-83780000D01*
X100619400Y-78662600D02*
X100843100Y-78662600D01*
X95853000Y-83429000D02*
X100619400Y-78662600D01*
X95853000Y-83780000D02*
X95853000Y-83429000D01*
%TO.N,VA11*%
X95853000Y-82642000D02*
X95853000Y-82980000D01*
X101089800Y-77405200D02*
X95853000Y-82642000D01*
X95019200Y-82980000D02*
X95853000Y-82980000D01*
%TO.N,VA12*%
X95853000Y-81731600D02*
X95853000Y-82180000D01*
X101990100Y-75594500D02*
X95853000Y-81731600D01*
X95019200Y-82180000D02*
X95853000Y-82180000D01*
%TO.N,VA13*%
X95019200Y-81380000D02*
X95853000Y-81380000D01*
X101406300Y-75826700D02*
X95853000Y-81380000D01*
X101406300Y-75352800D02*
X101406300Y-75826700D01*
X102211700Y-74547400D02*
X101406300Y-75352800D01*
X102393500Y-74547400D02*
X102211700Y-74547400D01*
%TO.N,VA14*%
X95019200Y-80580000D02*
X95853000Y-80580000D01*
X102863200Y-73252200D02*
X103134400Y-73252200D01*
X95853000Y-80262400D02*
X102863200Y-73252200D01*
X95853000Y-80580000D02*
X95853000Y-80262400D01*
%TO.N,VA15*%
X95853000Y-79697700D02*
X95853000Y-79780000D01*
X103274400Y-72276300D02*
X95853000Y-79697700D01*
X104193500Y-72276300D02*
X103274400Y-72276300D01*
X95019200Y-79780000D02*
X95853000Y-79780000D01*
%TO.N,VA16*%
X95862600Y-78980000D02*
X95019200Y-78980000D01*
X103150100Y-71692500D02*
X95862600Y-78980000D01*
X105274100Y-71692500D02*
X103150100Y-71692500D01*
X105619300Y-72037700D02*
X105274100Y-71692500D01*
%TO.N,VA17*%
X102589700Y-71443300D02*
X95853000Y-78180000D01*
X107827600Y-71443300D02*
X102589700Y-71443300D01*
X108080100Y-71695800D02*
X107827600Y-71443300D01*
X95019200Y-78180000D02*
X95853000Y-78180000D01*
%TO.N,VA18*%
X109062800Y-71111800D02*
X109169200Y-71218200D01*
X102371200Y-71111800D02*
X109062800Y-71111800D01*
X96830600Y-76652400D02*
X102371200Y-71111800D01*
X95925400Y-76652400D02*
X96830600Y-76652400D01*
X95853000Y-76580000D02*
X95925400Y-76652400D01*
X95019200Y-76580000D02*
X95853000Y-76580000D01*
%TO.N,VA19*%
X111319200Y-68580000D02*
X110485400Y-68580000D01*
X95019200Y-75780000D02*
X95853000Y-75780000D01*
X110478200Y-68587200D02*
X110485400Y-68580000D01*
X102912900Y-68587200D02*
X110478200Y-68587200D01*
X97338000Y-74162100D02*
X102912900Y-68587200D01*
X96600000Y-74162100D02*
X97338000Y-74162100D01*
X95853000Y-74909100D02*
X96600000Y-74162100D01*
X95853000Y-75780000D02*
X95853000Y-74909100D01*
%TO.N,VA20*%
X103147100Y-68003300D02*
X110021700Y-68003300D01*
X97235600Y-73914800D02*
X103147100Y-68003300D01*
X96497600Y-73914800D02*
X97235600Y-73914800D01*
X95432400Y-74980000D02*
X96497600Y-73914800D01*
X95019200Y-74980000D02*
X95432400Y-74980000D01*
%TO.N,VA21*%
X95019200Y-74180000D02*
X95853000Y-74180000D01*
X96470600Y-73562400D02*
X95853000Y-74180000D01*
X97238100Y-73562400D02*
X96470600Y-73562400D01*
X103252900Y-67547600D02*
X97238100Y-73562400D01*
X109572200Y-67547600D02*
X103252900Y-67547600D01*
X110040100Y-67079700D02*
X109572200Y-67547600D01*
%TO.N,VA22*%
X111319200Y-70980000D02*
X110485400Y-70980000D01*
X109886600Y-70381200D02*
X110485400Y-70980000D01*
X101468600Y-70381200D02*
X109886600Y-70381200D01*
X96746000Y-75103800D02*
X101468600Y-70381200D01*
X96483800Y-75103800D02*
X96746000Y-75103800D01*
%TO.N,VA23*%
X102028800Y-70628600D02*
X96632300Y-76025100D01*
X109446500Y-70628600D02*
X102028800Y-70628600D01*
X110485400Y-71667500D02*
X109446500Y-70628600D01*
X110485400Y-71780000D02*
X110485400Y-71667500D01*
X111319200Y-71780000D02*
X110485400Y-71780000D01*
%TO.N,VA1*%
X100369200Y-86312400D02*
X97257000Y-83200200D01*
X100369200Y-88930000D02*
X100369200Y-86312400D01*
%TO.N,VA2*%
X99569200Y-88930000D02*
X99569200Y-88096200D01*
X99569200Y-86474100D02*
X97215700Y-84120600D01*
X99569200Y-88096200D02*
X99569200Y-86474100D01*
%TO.N,VA3*%
X95019200Y-69380000D02*
X95853000Y-69380000D01*
X96260300Y-69787300D02*
X98331200Y-69787300D01*
X95853000Y-69380000D02*
X96260300Y-69787300D01*
%TO.N,VA4*%
X97969200Y-85849000D02*
X97924400Y-85804200D01*
X97969200Y-88930000D02*
X97969200Y-85849000D01*
%TD*%
M02*
