M48
; DRILL file {KiCad 7.0.8} date 2024 January 22, Monday 11:28:38
; FORMAT={-:-/ absolute / metric / decimal}
; #@! TF.CreationDate,2024-01-22T11:28:38+00:00
; #@! TF.GenerationSoftware,Kicad,Pcbnew,7.0.8
; #@! TF.FileFunction,Plated,1,2,PTH
FMAT,2
METRIC
; #@! TA.AperFunction,Plated,PTH,ViaDrill
T1C0.400
; #@! TA.AperFunction,Plated,PTH,ComponentDrill
T2C0.400
%
G90
G05
T1
X96.484Y-75.104
X96.632Y-76.025
X96.919Y-72.978
X97.12Y-68.104
X97.216Y-84.121
X97.257Y-83.2
X97.643Y-71.684
X97.924Y-85.804
X98.331Y-69.787
X100.259Y-79.888
X100.843Y-78.663
X101.09Y-77.405
X101.99Y-75.594
X102.393Y-74.547
X103.134Y-73.252
X104.194Y-72.276
X105.619Y-72.038
X108.08Y-71.696
X109.169Y-71.218
X110.022Y-68.003
X110.04Y-67.08
T2
X95.019Y-68.58
X95.019Y-69.38
X95.019Y-70.18
X95.019Y-70.98
X95.019Y-71.78
X95.019Y-72.58
X95.019Y-73.38
X95.019Y-74.18
X95.019Y-74.98
X95.019Y-75.78
X95.019Y-76.58
X95.019Y-77.38
X95.019Y-78.18
X95.019Y-78.98
X95.019Y-79.78
X95.019Y-80.58
X95.019Y-81.38
X95.019Y-82.18
X95.019Y-82.98
X95.019Y-83.78
X95.019Y-84.58
X95.019Y-85.38
X95.019Y-86.18
X95.019Y-86.98
X97.169Y-66.63
X97.169Y-88.93
X97.969Y-66.63
X97.969Y-88.93
X98.769Y-66.63
X98.769Y-88.93
X99.569Y-66.63
X99.569Y-88.93
X100.369Y-66.63
X100.369Y-88.93
X101.169Y-66.63
X101.169Y-88.93
X101.969Y-66.63
X101.969Y-88.93
X102.769Y-66.63
X102.769Y-88.93
X103.569Y-66.63
X103.569Y-88.93
X104.369Y-66.63
X104.369Y-88.93
X105.169Y-66.63
X105.169Y-88.93
X105.969Y-66.63
X105.969Y-88.93
X106.769Y-66.63
X106.769Y-88.93
X107.569Y-66.63
X107.569Y-88.93
X108.369Y-66.63
X108.369Y-88.93
X109.169Y-66.63
X109.169Y-88.93
X111.319Y-68.58
X111.319Y-69.38
X111.319Y-70.18
X111.319Y-70.98
X111.319Y-71.78
X111.319Y-72.58
X111.319Y-73.38
X111.319Y-74.18
X111.319Y-74.98
X111.319Y-75.78
X111.319Y-76.58
X111.319Y-77.38
X111.319Y-78.18
X111.319Y-78.98
X111.319Y-79.78
X111.319Y-80.58
X111.319Y-81.38
X111.319Y-82.18
X111.319Y-82.98
X111.319Y-83.78
X111.319Y-84.58
X111.319Y-85.38
X111.319Y-86.18
X111.319Y-86.98
T0
M30
