%TF.GenerationSoftware,KiCad,Pcbnew,7.0.8*%
%TF.CreationDate,2024-02-10T12:17:18+00:00*%
%TF.ProjectId,Neptune-32x-315-5805-bypass,4e657074-756e-4652-9d33-32782d333135,rev?*%
%TF.SameCoordinates,Original*%
%TF.FileFunction,Copper,L2,Bot*%
%TF.FilePolarity,Positive*%
%FSLAX46Y46*%
G04 Gerber Fmt 4.6, Leading zero omitted, Abs format (unit mm)*
G04 Created by KiCad (PCBNEW 7.0.8) date 2024-02-10 12:17:18*
%MOMM*%
%LPD*%
G01*
G04 APERTURE LIST*
%TA.AperFunction,ViaPad*%
%ADD10C,0.800000*%
%TD*%
%TA.AperFunction,Conductor*%
%ADD11C,0.127000*%
%TD*%
G04 APERTURE END LIST*
D10*
%TO.N,VA5*%
X98179600Y-63762100D03*
X100015700Y-65336800D03*
%TO.N,VA6*%
X102778500Y-79862800D03*
X99556200Y-82221000D03*
%TO.N,VA7*%
X103374500Y-78326400D03*
X98621500Y-82042800D03*
%TO.N,VA8*%
X103908600Y-77485000D03*
X98618700Y-81046000D03*
%TO.N,VA9*%
X102272800Y-64326500D03*
X100431700Y-66222500D03*
%TO.N,VA10*%
X103072800Y-65238800D03*
X100942500Y-67369100D03*
%TO.N,VA11*%
X104151100Y-76436300D03*
X98613200Y-78928200D03*
%TO.N,VA12*%
X104672800Y-75156100D03*
X99016000Y-78018500D03*
%TO.N,VA13*%
X106048900Y-73241200D03*
X98604600Y-76957600D03*
%TO.N,VA14*%
X106632700Y-72377200D03*
X99101800Y-76149300D03*
%TO.N,VA15*%
X107283300Y-71163400D03*
X98869500Y-75221600D03*
%TO.N,VA16*%
X108209300Y-70931700D03*
X98858500Y-73985900D03*
%TO.N,VA17*%
X108645200Y-69764000D03*
X99927100Y-71660000D03*
%TO.N,VA18*%
X109565600Y-69764000D03*
X98593900Y-72550600D03*
%TO.N,VA19*%
X111517500Y-64510900D03*
X99158200Y-67353700D03*
%TO.N,VA20*%
X109921200Y-68596300D03*
X99821100Y-70492300D03*
%TO.N,VA21*%
X110918000Y-68855400D03*
X98599800Y-70138400D03*
%TO.N,VA22*%
X111503100Y-66994000D03*
X98599400Y-68863600D03*
%TO.N,VA23*%
X111511700Y-68082400D03*
X99524400Y-68651500D03*
%TO.N,VA1*%
X102452400Y-69168100D03*
X99786200Y-69571900D03*
%TO.N,VA2*%
X100051500Y-74009500D03*
X101671900Y-75856100D03*
%TO.N,VA3*%
X101825700Y-74935700D03*
X100721300Y-73339600D03*
%TD*%
D11*
%TO.N,VA5*%
X99754300Y-65336800D02*
X100015700Y-65336800D01*
X98179600Y-63762100D02*
X99754300Y-65336800D01*
%TO.N,VA6*%
X100420300Y-82221000D02*
X99556200Y-82221000D01*
X102778500Y-79862800D02*
X100420300Y-82221000D01*
%TO.N,VA7*%
X102337900Y-78326400D02*
X103374500Y-78326400D01*
X98621500Y-82042800D02*
X102337900Y-78326400D01*
%TO.N,VA8*%
X103657900Y-77735700D02*
X103908600Y-77485000D01*
X101929000Y-77735700D02*
X103657900Y-77735700D01*
X98618700Y-81046000D02*
X101929000Y-77735700D01*
%TO.N,VA9*%
X100431700Y-66167600D02*
X100431700Y-66222500D01*
X102272800Y-64326500D02*
X100431700Y-66167600D01*
%TO.N,VA10*%
X100942500Y-67369100D02*
X103072800Y-65238800D01*
%TO.N,VA11*%
X99411700Y-78928200D02*
X98613200Y-78928200D01*
X100851600Y-77488300D02*
X99411700Y-78928200D01*
X102987500Y-77488300D02*
X100851600Y-77488300D01*
X104039500Y-76436300D02*
X102987500Y-77488300D01*
X104151100Y-76436300D02*
X104039500Y-76436300D01*
%TO.N,VA12*%
X104605800Y-75156100D02*
X104672800Y-75156100D01*
X102556900Y-77205000D02*
X104605800Y-75156100D01*
X99829500Y-77205000D02*
X102556900Y-77205000D01*
X99016000Y-78018500D02*
X99829500Y-77205000D01*
%TO.N,VA13*%
X105667200Y-73241200D02*
X106048900Y-73241200D01*
X101950800Y-76957600D02*
X105667200Y-73241200D01*
X98604600Y-76957600D02*
X101950800Y-76957600D01*
%TO.N,VA14*%
X99476400Y-76523900D02*
X99101800Y-76149300D01*
X101830000Y-76523900D02*
X99476400Y-76523900D01*
X105976700Y-72377200D02*
X101830000Y-76523900D01*
X106632700Y-72377200D02*
X105976700Y-72377200D01*
%TO.N,VA15*%
X99465300Y-74625800D02*
X98869500Y-75221600D01*
X99465300Y-73770200D02*
X99465300Y-74625800D01*
X99809800Y-73425700D02*
X99465300Y-73770200D01*
X99809900Y-73425700D02*
X99809800Y-73425700D01*
X99809900Y-73425500D02*
X99809900Y-73425700D01*
X100479600Y-72755800D02*
X99809900Y-73425500D01*
X104546400Y-72755800D02*
X100479600Y-72755800D01*
X105783000Y-71519200D02*
X104546400Y-72755800D01*
X106927500Y-71519200D02*
X105783000Y-71519200D01*
X107283300Y-71163400D02*
X106927500Y-71519200D01*
%TO.N,VA16*%
X100353100Y-72491300D02*
X98858500Y-73985900D01*
X104461200Y-72491300D02*
X100353100Y-72491300D01*
X106020800Y-70931700D02*
X104461200Y-72491300D01*
X106689600Y-70931700D02*
X106020800Y-70931700D01*
X106689600Y-70931600D02*
X106689600Y-70931700D01*
X107041600Y-70579600D02*
X106689600Y-70931600D01*
X107525100Y-70579600D02*
X107041600Y-70579600D01*
X107877200Y-70931700D02*
X107525100Y-70579600D01*
X108209300Y-70931700D02*
X107877200Y-70931700D01*
%TO.N,VA17*%
X102364200Y-71660000D02*
X99927100Y-71660000D01*
X104260200Y-69764000D02*
X102364200Y-71660000D01*
X108645200Y-69764000D02*
X104260200Y-69764000D01*
%TO.N,VA18*%
X98900600Y-72243900D02*
X98593900Y-72550600D01*
X104358900Y-72243900D02*
X98900600Y-72243900D01*
X106270500Y-70332300D02*
X104358900Y-72243900D01*
X107627500Y-70332300D02*
X106270500Y-70332300D01*
X107643000Y-70347800D02*
X107627500Y-70332300D01*
X108981800Y-70347800D02*
X107643000Y-70347800D01*
X109565600Y-69764000D02*
X108981800Y-70347800D01*
%TO.N,VA19*%
X102968900Y-64510900D02*
X111517500Y-64510900D01*
X100126100Y-67353700D02*
X102968900Y-64510900D01*
X99158200Y-67353700D02*
X100126100Y-67353700D01*
%TO.N,VA20*%
X102221200Y-70492300D02*
X99821100Y-70492300D01*
X104117200Y-68596300D02*
X102221200Y-70492300D01*
X109921200Y-68596300D02*
X104117200Y-68596300D01*
%TO.N,VA21*%
X99537600Y-71076200D02*
X98599800Y-70138400D01*
X102248600Y-71076200D02*
X99537600Y-71076200D01*
X104144600Y-69180200D02*
X102248600Y-71076200D01*
X110593200Y-69180200D02*
X104144600Y-69180200D01*
X110918000Y-68855400D02*
X110593200Y-69180200D01*
%TO.N,VA22*%
X98599400Y-68749800D02*
X98599400Y-68863600D01*
X99351900Y-67997300D02*
X98599400Y-68749800D01*
X109345000Y-67997300D02*
X99351900Y-67997300D01*
X110348300Y-66994000D02*
X109345000Y-67997300D01*
X111503100Y-66994000D02*
X110348300Y-66994000D01*
%TO.N,VA23*%
X99931300Y-68244600D02*
X99524400Y-68651500D01*
X109447400Y-68244600D02*
X99931300Y-68244600D01*
X109679500Y-68012500D02*
X109447400Y-68244600D01*
X111441800Y-68012500D02*
X109679500Y-68012500D01*
X111511700Y-68082400D02*
X111441800Y-68012500D01*
%TO.N,VA1*%
X100190000Y-69168100D02*
X99786200Y-69571900D01*
X102452400Y-69168100D02*
X100190000Y-69168100D01*
%TO.N,VA2*%
X100051500Y-74235700D02*
X100051500Y-74009500D01*
X101671900Y-75856100D02*
X100051500Y-74235700D01*
%TO.N,VA3*%
X101825700Y-74444000D02*
X100721300Y-73339600D01*
X101825700Y-74935700D02*
X101825700Y-74444000D01*
%TD*%
M02*
