%TF.GenerationSoftware,KiCad,Pcbnew,7.0.8*%
%TF.CreationDate,2024-01-22T11:28:38+00:00*%
%TF.ProjectId,Neptune-32x-315-5805-bypass,4e657074-756e-4652-9d33-32782d333135,rev?*%
%TF.SameCoordinates,Original*%
%TF.FileFunction,Drillmap*%
%TF.FilePolarity,Positive*%
%FSLAX45Y45*%
G04 Gerber Fmt 4.5, Leading zero omitted, Abs format (unit mm)*
G04 Created by KiCad (PCBNEW 7.0.8) date 2024-01-22 11:28:38*
%MOMM*%
%LPD*%
G01*
G04 APERTURE LIST*
%ADD10C,0.100000*%
%ADD11C,0.200000*%
G04 APERTURE END LIST*
D10*
X11142980Y-6652260D02*
X11142980Y-8905240D01*
X9491980Y-6652260D02*
X11142980Y-6652260D01*
X11142980Y-8905240D02*
X9491980Y-8905240D01*
X9491980Y-8905240D02*
X9491980Y-6652260D01*
D11*
X9747757Y-9221724D02*
X9747757Y-9021724D01*
X9747757Y-9021724D02*
X9795376Y-9021724D01*
X9795376Y-9021724D02*
X9823947Y-9031248D01*
X9823947Y-9031248D02*
X9842995Y-9050295D01*
X9842995Y-9050295D02*
X9852519Y-9069343D01*
X9852519Y-9069343D02*
X9862043Y-9107438D01*
X9862043Y-9107438D02*
X9862043Y-9136010D01*
X9862043Y-9136010D02*
X9852519Y-9174105D01*
X9852519Y-9174105D02*
X9842995Y-9193152D01*
X9842995Y-9193152D02*
X9823947Y-9212200D01*
X9823947Y-9212200D02*
X9795376Y-9221724D01*
X9795376Y-9221724D02*
X9747757Y-9221724D01*
X9947757Y-9221724D02*
X9947757Y-9088390D01*
X9947757Y-9126486D02*
X9957281Y-9107438D01*
X9957281Y-9107438D02*
X9966804Y-9097914D01*
X9966804Y-9097914D02*
X9985852Y-9088390D01*
X9985852Y-9088390D02*
X10004900Y-9088390D01*
X10071566Y-9221724D02*
X10071566Y-9088390D01*
X10071566Y-9021724D02*
X10062043Y-9031248D01*
X10062043Y-9031248D02*
X10071566Y-9040771D01*
X10071566Y-9040771D02*
X10081090Y-9031248D01*
X10081090Y-9031248D02*
X10071566Y-9021724D01*
X10071566Y-9021724D02*
X10071566Y-9040771D01*
X10195376Y-9221724D02*
X10176328Y-9212200D01*
X10176328Y-9212200D02*
X10166804Y-9193152D01*
X10166804Y-9193152D02*
X10166804Y-9021724D01*
X10300138Y-9221724D02*
X10281090Y-9212200D01*
X10281090Y-9212200D02*
X10271566Y-9193152D01*
X10271566Y-9193152D02*
X10271566Y-9021724D01*
X10528709Y-9221724D02*
X10528709Y-9021724D01*
X10528709Y-9021724D02*
X10595376Y-9164581D01*
X10595376Y-9164581D02*
X10662043Y-9021724D01*
X10662043Y-9021724D02*
X10662043Y-9221724D01*
X10842995Y-9221724D02*
X10842995Y-9116962D01*
X10842995Y-9116962D02*
X10833471Y-9097914D01*
X10833471Y-9097914D02*
X10814424Y-9088390D01*
X10814424Y-9088390D02*
X10776328Y-9088390D01*
X10776328Y-9088390D02*
X10757281Y-9097914D01*
X10842995Y-9212200D02*
X10823947Y-9221724D01*
X10823947Y-9221724D02*
X10776328Y-9221724D01*
X10776328Y-9221724D02*
X10757281Y-9212200D01*
X10757281Y-9212200D02*
X10747757Y-9193152D01*
X10747757Y-9193152D02*
X10747757Y-9174105D01*
X10747757Y-9174105D02*
X10757281Y-9155057D01*
X10757281Y-9155057D02*
X10776328Y-9145533D01*
X10776328Y-9145533D02*
X10823947Y-9145533D01*
X10823947Y-9145533D02*
X10842995Y-9136010D01*
X10938233Y-9088390D02*
X10938233Y-9288390D01*
X10938233Y-9097914D02*
X10957281Y-9088390D01*
X10957281Y-9088390D02*
X10995376Y-9088390D01*
X10995376Y-9088390D02*
X11014424Y-9097914D01*
X11014424Y-9097914D02*
X11023947Y-9107438D01*
X11023947Y-9107438D02*
X11033471Y-9126486D01*
X11033471Y-9126486D02*
X11033471Y-9183629D01*
X11033471Y-9183629D02*
X11023947Y-9202676D01*
X11023947Y-9202676D02*
X11014424Y-9212200D01*
X11014424Y-9212200D02*
X10995376Y-9221724D01*
X10995376Y-9221724D02*
X10957281Y-9221724D01*
X10957281Y-9221724D02*
X10938233Y-9212200D01*
X11119185Y-9202676D02*
X11128709Y-9212200D01*
X11128709Y-9212200D02*
X11119185Y-9221724D01*
X11119185Y-9221724D02*
X11109662Y-9212200D01*
X11109662Y-9212200D02*
X11119185Y-9202676D01*
X11119185Y-9202676D02*
X11119185Y-9221724D01*
X11119185Y-9097914D02*
X11128709Y-9107438D01*
X11128709Y-9107438D02*
X11119185Y-9116962D01*
X11119185Y-9116962D02*
X11109662Y-9107438D01*
X11109662Y-9107438D02*
X11119185Y-9097914D01*
X11119185Y-9097914D02*
X11119185Y-9116962D01*
M02*
