%TF.GenerationSoftware,KiCad,Pcbnew,7.0.8*%
%TF.CreationDate,2024-01-22T11:28:38+00:00*%
%TF.ProjectId,Neptune-32x-315-5805-bypass,4e657074-756e-4652-9d33-32782d333135,rev?*%
%TF.SameCoordinates,Original*%
%TF.FileFunction,Drillmap*%
%TF.FilePolarity,Positive*%
%FSLAX45Y45*%
G04 Gerber Fmt 4.5, Leading zero omitted, Abs format (unit mm)*
G04 Created by KiCad (PCBNEW 7.0.8) date 2024-01-22 11:28:38*
%MOMM*%
%LPD*%
G01*
G04 APERTURE LIST*
%ADD10C,0.100000*%
%ADD11C,0.200000*%
%ADD12C,0.040000*%
G04 APERTURE END LIST*
D10*
X11142980Y-6652260D02*
X11142980Y-8905240D01*
X9491980Y-6652260D02*
X11142980Y-6652260D01*
X11142980Y-8905240D02*
X9491980Y-8905240D01*
X9491980Y-8905240D02*
X9491980Y-6652260D01*
D11*
D12*
X9628380Y-7490380D02*
X9668380Y-7530380D01*
X9668380Y-7490380D02*
X9628380Y-7530380D01*
X9643230Y-7582510D02*
X9683230Y-7622510D01*
X9683230Y-7582510D02*
X9643230Y-7622510D01*
X9671900Y-7277840D02*
X9711900Y-7317840D01*
X9711900Y-7277840D02*
X9671900Y-7317840D01*
X9691970Y-6790410D02*
X9731970Y-6830410D01*
X9731970Y-6790410D02*
X9691970Y-6830410D01*
X9701570Y-8392060D02*
X9741570Y-8432060D01*
X9741570Y-8392060D02*
X9701570Y-8432060D01*
X9705700Y-8300020D02*
X9745700Y-8340020D01*
X9745700Y-8300020D02*
X9705700Y-8340020D01*
X9744260Y-7148370D02*
X9784260Y-7188370D01*
X9784260Y-7148370D02*
X9744260Y-7188370D01*
X9772440Y-8560420D02*
X9812440Y-8600420D01*
X9812440Y-8560420D02*
X9772440Y-8600420D01*
X9813120Y-6958730D02*
X9853120Y-6998730D01*
X9853120Y-6958730D02*
X9813120Y-6998730D01*
X10005870Y-7968800D02*
X10045870Y-8008800D01*
X10045870Y-7968800D02*
X10005870Y-8008800D01*
X10064310Y-7846260D02*
X10104310Y-7886260D01*
X10104310Y-7846260D02*
X10064310Y-7886260D01*
X10088980Y-7720520D02*
X10128980Y-7760520D01*
X10128980Y-7720520D02*
X10088980Y-7760520D01*
X10179010Y-7539450D02*
X10219010Y-7579450D01*
X10219010Y-7539450D02*
X10179010Y-7579450D01*
X10219350Y-7434740D02*
X10259350Y-7474740D01*
X10259350Y-7434740D02*
X10219350Y-7474740D01*
X10293440Y-7305220D02*
X10333440Y-7345220D01*
X10333440Y-7305220D02*
X10293440Y-7345220D01*
X10399350Y-7207630D02*
X10439350Y-7247630D01*
X10439350Y-7207630D02*
X10399350Y-7247630D01*
X10541930Y-7183770D02*
X10581930Y-7223770D01*
X10581930Y-7183770D02*
X10541930Y-7223770D01*
X10788010Y-7149580D02*
X10828010Y-7189580D01*
X10828010Y-7149580D02*
X10788010Y-7189580D01*
X10896920Y-7101820D02*
X10936920Y-7141820D01*
X10936920Y-7101820D02*
X10896920Y-7141820D01*
X10982170Y-6780330D02*
X11022170Y-6820330D01*
X11022170Y-6780330D02*
X10982170Y-6820330D01*
X10984010Y-6687970D02*
X11024010Y-6727970D01*
X11024010Y-6687970D02*
X10984010Y-6727970D01*
X9521920Y-6858000D02*
G75*
G03*
X9521920Y-6858000I-20000J0D01*
G01*
X9521920Y-6938000D02*
G75*
G03*
X9521920Y-6938000I-20000J0D01*
G01*
X9521920Y-7018000D02*
G75*
G03*
X9521920Y-7018000I-20000J0D01*
G01*
X9521920Y-7098000D02*
G75*
G03*
X9521920Y-7098000I-20000J0D01*
G01*
X9521920Y-7178000D02*
G75*
G03*
X9521920Y-7178000I-20000J0D01*
G01*
X9521920Y-7258000D02*
G75*
G03*
X9521920Y-7258000I-20000J0D01*
G01*
X9521920Y-7338000D02*
G75*
G03*
X9521920Y-7338000I-20000J0D01*
G01*
X9521920Y-7418000D02*
G75*
G03*
X9521920Y-7418000I-20000J0D01*
G01*
X9521920Y-7498000D02*
G75*
G03*
X9521920Y-7498000I-20000J0D01*
G01*
X9521920Y-7578000D02*
G75*
G03*
X9521920Y-7578000I-20000J0D01*
G01*
X9521920Y-7658000D02*
G75*
G03*
X9521920Y-7658000I-20000J0D01*
G01*
X9521920Y-7738000D02*
G75*
G03*
X9521920Y-7738000I-20000J0D01*
G01*
X9521920Y-7818000D02*
G75*
G03*
X9521920Y-7818000I-20000J0D01*
G01*
X9521920Y-7898000D02*
G75*
G03*
X9521920Y-7898000I-20000J0D01*
G01*
X9521920Y-7978000D02*
G75*
G03*
X9521920Y-7978000I-20000J0D01*
G01*
X9521920Y-8058000D02*
G75*
G03*
X9521920Y-8058000I-20000J0D01*
G01*
X9521920Y-8138000D02*
G75*
G03*
X9521920Y-8138000I-20000J0D01*
G01*
X9521920Y-8218000D02*
G75*
G03*
X9521920Y-8218000I-20000J0D01*
G01*
X9521920Y-8298000D02*
G75*
G03*
X9521920Y-8298000I-20000J0D01*
G01*
X9521920Y-8378000D02*
G75*
G03*
X9521920Y-8378000I-20000J0D01*
G01*
X9521920Y-8458000D02*
G75*
G03*
X9521920Y-8458000I-20000J0D01*
G01*
X9521920Y-8538000D02*
G75*
G03*
X9521920Y-8538000I-20000J0D01*
G01*
X9521920Y-8618000D02*
G75*
G03*
X9521920Y-8618000I-20000J0D01*
G01*
X9521920Y-8698000D02*
G75*
G03*
X9521920Y-8698000I-20000J0D01*
G01*
X9736920Y-6663000D02*
G75*
G03*
X9736920Y-6663000I-20000J0D01*
G01*
X9736920Y-8893000D02*
G75*
G03*
X9736920Y-8893000I-20000J0D01*
G01*
X9816920Y-6663000D02*
G75*
G03*
X9816920Y-6663000I-20000J0D01*
G01*
X9816920Y-8893000D02*
G75*
G03*
X9816920Y-8893000I-20000J0D01*
G01*
X9896920Y-6663000D02*
G75*
G03*
X9896920Y-6663000I-20000J0D01*
G01*
X9896920Y-8893000D02*
G75*
G03*
X9896920Y-8893000I-20000J0D01*
G01*
X9976920Y-6663000D02*
G75*
G03*
X9976920Y-6663000I-20000J0D01*
G01*
X9976920Y-8893000D02*
G75*
G03*
X9976920Y-8893000I-20000J0D01*
G01*
X10056920Y-6663000D02*
G75*
G03*
X10056920Y-6663000I-20000J0D01*
G01*
X10056920Y-8893000D02*
G75*
G03*
X10056920Y-8893000I-20000J0D01*
G01*
X10136920Y-6663000D02*
G75*
G03*
X10136920Y-6663000I-20000J0D01*
G01*
X10136920Y-8893000D02*
G75*
G03*
X10136920Y-8893000I-20000J0D01*
G01*
X10216920Y-6663000D02*
G75*
G03*
X10216920Y-6663000I-20000J0D01*
G01*
X10216920Y-8893000D02*
G75*
G03*
X10216920Y-8893000I-20000J0D01*
G01*
X10296920Y-6663000D02*
G75*
G03*
X10296920Y-6663000I-20000J0D01*
G01*
X10296920Y-8893000D02*
G75*
G03*
X10296920Y-8893000I-20000J0D01*
G01*
X10376920Y-6663000D02*
G75*
G03*
X10376920Y-6663000I-20000J0D01*
G01*
X10376920Y-8893000D02*
G75*
G03*
X10376920Y-8893000I-20000J0D01*
G01*
X10456920Y-6663000D02*
G75*
G03*
X10456920Y-6663000I-20000J0D01*
G01*
X10456920Y-8893000D02*
G75*
G03*
X10456920Y-8893000I-20000J0D01*
G01*
X10536920Y-6663000D02*
G75*
G03*
X10536920Y-6663000I-20000J0D01*
G01*
X10536920Y-8893000D02*
G75*
G03*
X10536920Y-8893000I-20000J0D01*
G01*
X10616920Y-6663000D02*
G75*
G03*
X10616920Y-6663000I-20000J0D01*
G01*
X10616920Y-8893000D02*
G75*
G03*
X10616920Y-8893000I-20000J0D01*
G01*
X10696920Y-6663000D02*
G75*
G03*
X10696920Y-6663000I-20000J0D01*
G01*
X10696920Y-8893000D02*
G75*
G03*
X10696920Y-8893000I-20000J0D01*
G01*
X10776920Y-6663000D02*
G75*
G03*
X10776920Y-6663000I-20000J0D01*
G01*
X10776920Y-8893000D02*
G75*
G03*
X10776920Y-8893000I-20000J0D01*
G01*
X10856920Y-6663000D02*
G75*
G03*
X10856920Y-6663000I-20000J0D01*
G01*
X10856920Y-8893000D02*
G75*
G03*
X10856920Y-8893000I-20000J0D01*
G01*
X10936920Y-6663000D02*
G75*
G03*
X10936920Y-6663000I-20000J0D01*
G01*
X10936920Y-8893000D02*
G75*
G03*
X10936920Y-8893000I-20000J0D01*
G01*
X11151920Y-6858000D02*
G75*
G03*
X11151920Y-6858000I-20000J0D01*
G01*
X11151920Y-6938000D02*
G75*
G03*
X11151920Y-6938000I-20000J0D01*
G01*
X11151920Y-7018000D02*
G75*
G03*
X11151920Y-7018000I-20000J0D01*
G01*
X11151920Y-7098000D02*
G75*
G03*
X11151920Y-7098000I-20000J0D01*
G01*
X11151920Y-7178000D02*
G75*
G03*
X11151920Y-7178000I-20000J0D01*
G01*
X11151920Y-7258000D02*
G75*
G03*
X11151920Y-7258000I-20000J0D01*
G01*
X11151920Y-7338000D02*
G75*
G03*
X11151920Y-7338000I-20000J0D01*
G01*
X11151920Y-7418000D02*
G75*
G03*
X11151920Y-7418000I-20000J0D01*
G01*
X11151920Y-7498000D02*
G75*
G03*
X11151920Y-7498000I-20000J0D01*
G01*
X11151920Y-7578000D02*
G75*
G03*
X11151920Y-7578000I-20000J0D01*
G01*
X11151920Y-7658000D02*
G75*
G03*
X11151920Y-7658000I-20000J0D01*
G01*
X11151920Y-7738000D02*
G75*
G03*
X11151920Y-7738000I-20000J0D01*
G01*
X11151920Y-7818000D02*
G75*
G03*
X11151920Y-7818000I-20000J0D01*
G01*
X11151920Y-7898000D02*
G75*
G03*
X11151920Y-7898000I-20000J0D01*
G01*
X11151920Y-7978000D02*
G75*
G03*
X11151920Y-7978000I-20000J0D01*
G01*
X11151920Y-8058000D02*
G75*
G03*
X11151920Y-8058000I-20000J0D01*
G01*
X11151920Y-8138000D02*
G75*
G03*
X11151920Y-8138000I-20000J0D01*
G01*
X11151920Y-8218000D02*
G75*
G03*
X11151920Y-8218000I-20000J0D01*
G01*
X11151920Y-8298000D02*
G75*
G03*
X11151920Y-8298000I-20000J0D01*
G01*
X11151920Y-8378000D02*
G75*
G03*
X11151920Y-8378000I-20000J0D01*
G01*
X11151920Y-8458000D02*
G75*
G03*
X11151920Y-8458000I-20000J0D01*
G01*
X11151920Y-8538000D02*
G75*
G03*
X11151920Y-8538000I-20000J0D01*
G01*
X11151920Y-8618000D02*
G75*
G03*
X11151920Y-8618000I-20000J0D01*
G01*
X11151920Y-8698000D02*
G75*
G03*
X11151920Y-8698000I-20000J0D01*
G01*
D11*
X9747757Y-9221724D02*
X9747757Y-9021724D01*
X9747757Y-9021724D02*
X9795376Y-9021724D01*
X9795376Y-9021724D02*
X9823947Y-9031248D01*
X9823947Y-9031248D02*
X9842995Y-9050295D01*
X9842995Y-9050295D02*
X9852519Y-9069343D01*
X9852519Y-9069343D02*
X9862043Y-9107438D01*
X9862043Y-9107438D02*
X9862043Y-9136010D01*
X9862043Y-9136010D02*
X9852519Y-9174105D01*
X9852519Y-9174105D02*
X9842995Y-9193152D01*
X9842995Y-9193152D02*
X9823947Y-9212200D01*
X9823947Y-9212200D02*
X9795376Y-9221724D01*
X9795376Y-9221724D02*
X9747757Y-9221724D01*
X9947757Y-9221724D02*
X9947757Y-9088390D01*
X9947757Y-9126486D02*
X9957281Y-9107438D01*
X9957281Y-9107438D02*
X9966804Y-9097914D01*
X9966804Y-9097914D02*
X9985852Y-9088390D01*
X9985852Y-9088390D02*
X10004900Y-9088390D01*
X10071566Y-9221724D02*
X10071566Y-9088390D01*
X10071566Y-9021724D02*
X10062043Y-9031248D01*
X10062043Y-9031248D02*
X10071566Y-9040771D01*
X10071566Y-9040771D02*
X10081090Y-9031248D01*
X10081090Y-9031248D02*
X10071566Y-9021724D01*
X10071566Y-9021724D02*
X10071566Y-9040771D01*
X10195376Y-9221724D02*
X10176328Y-9212200D01*
X10176328Y-9212200D02*
X10166804Y-9193152D01*
X10166804Y-9193152D02*
X10166804Y-9021724D01*
X10300138Y-9221724D02*
X10281090Y-9212200D01*
X10281090Y-9212200D02*
X10271566Y-9193152D01*
X10271566Y-9193152D02*
X10271566Y-9021724D01*
X10528709Y-9221724D02*
X10528709Y-9021724D01*
X10528709Y-9021724D02*
X10595376Y-9164581D01*
X10595376Y-9164581D02*
X10662043Y-9021724D01*
X10662043Y-9021724D02*
X10662043Y-9221724D01*
X10842995Y-9221724D02*
X10842995Y-9116962D01*
X10842995Y-9116962D02*
X10833471Y-9097914D01*
X10833471Y-9097914D02*
X10814424Y-9088390D01*
X10814424Y-9088390D02*
X10776328Y-9088390D01*
X10776328Y-9088390D02*
X10757281Y-9097914D01*
X10842995Y-9212200D02*
X10823947Y-9221724D01*
X10823947Y-9221724D02*
X10776328Y-9221724D01*
X10776328Y-9221724D02*
X10757281Y-9212200D01*
X10757281Y-9212200D02*
X10747757Y-9193152D01*
X10747757Y-9193152D02*
X10747757Y-9174105D01*
X10747757Y-9174105D02*
X10757281Y-9155057D01*
X10757281Y-9155057D02*
X10776328Y-9145533D01*
X10776328Y-9145533D02*
X10823947Y-9145533D01*
X10823947Y-9145533D02*
X10842995Y-9136010D01*
X10938233Y-9088390D02*
X10938233Y-9288390D01*
X10938233Y-9097914D02*
X10957281Y-9088390D01*
X10957281Y-9088390D02*
X10995376Y-9088390D01*
X10995376Y-9088390D02*
X11014424Y-9097914D01*
X11014424Y-9097914D02*
X11023947Y-9107438D01*
X11023947Y-9107438D02*
X11033471Y-9126486D01*
X11033471Y-9126486D02*
X11033471Y-9183629D01*
X11033471Y-9183629D02*
X11023947Y-9202676D01*
X11023947Y-9202676D02*
X11014424Y-9212200D01*
X11014424Y-9212200D02*
X10995376Y-9221724D01*
X10995376Y-9221724D02*
X10957281Y-9221724D01*
X10957281Y-9221724D02*
X10938233Y-9212200D01*
X11119185Y-9202676D02*
X11128709Y-9212200D01*
X11128709Y-9212200D02*
X11119185Y-9221724D01*
X11119185Y-9221724D02*
X11109662Y-9212200D01*
X11109662Y-9212200D02*
X11119185Y-9202676D01*
X11119185Y-9202676D02*
X11119185Y-9221724D01*
X11119185Y-9097914D02*
X11128709Y-9107438D01*
X11128709Y-9107438D02*
X11119185Y-9116962D01*
X11119185Y-9116962D02*
X11109662Y-9107438D01*
X11109662Y-9107438D02*
X11119185Y-9097914D01*
X11119185Y-9097914D02*
X11119185Y-9116962D01*
D12*
X9446980Y-9530240D02*
X9486980Y-9570240D01*
X9486980Y-9530240D02*
X9446980Y-9570240D01*
D11*
X9785852Y-9441724D02*
X9804900Y-9441724D01*
X9804900Y-9441724D02*
X9823947Y-9451248D01*
X9823947Y-9451248D02*
X9833471Y-9460771D01*
X9833471Y-9460771D02*
X9842995Y-9479819D01*
X9842995Y-9479819D02*
X9852519Y-9517914D01*
X9852519Y-9517914D02*
X9852519Y-9565533D01*
X9852519Y-9565533D02*
X9842995Y-9603629D01*
X9842995Y-9603629D02*
X9833471Y-9622676D01*
X9833471Y-9622676D02*
X9823947Y-9632200D01*
X9823947Y-9632200D02*
X9804900Y-9641724D01*
X9804900Y-9641724D02*
X9785852Y-9641724D01*
X9785852Y-9641724D02*
X9766804Y-9632200D01*
X9766804Y-9632200D02*
X9757281Y-9622676D01*
X9757281Y-9622676D02*
X9747757Y-9603629D01*
X9747757Y-9603629D02*
X9738233Y-9565533D01*
X9738233Y-9565533D02*
X9738233Y-9517914D01*
X9738233Y-9517914D02*
X9747757Y-9479819D01*
X9747757Y-9479819D02*
X9757281Y-9460771D01*
X9757281Y-9460771D02*
X9766804Y-9451248D01*
X9766804Y-9451248D02*
X9785852Y-9441724D01*
X9938233Y-9622676D02*
X9947757Y-9632200D01*
X9947757Y-9632200D02*
X9938233Y-9641724D01*
X9938233Y-9641724D02*
X9928709Y-9632200D01*
X9928709Y-9632200D02*
X9938233Y-9622676D01*
X9938233Y-9622676D02*
X9938233Y-9641724D01*
X10119185Y-9508390D02*
X10119185Y-9641724D01*
X10071566Y-9432200D02*
X10023947Y-9575057D01*
X10023947Y-9575057D02*
X10147757Y-9575057D01*
X10262043Y-9441724D02*
X10281090Y-9441724D01*
X10281090Y-9441724D02*
X10300138Y-9451248D01*
X10300138Y-9451248D02*
X10309662Y-9460771D01*
X10309662Y-9460771D02*
X10319185Y-9479819D01*
X10319185Y-9479819D02*
X10328709Y-9517914D01*
X10328709Y-9517914D02*
X10328709Y-9565533D01*
X10328709Y-9565533D02*
X10319185Y-9603629D01*
X10319185Y-9603629D02*
X10309662Y-9622676D01*
X10309662Y-9622676D02*
X10300138Y-9632200D01*
X10300138Y-9632200D02*
X10281090Y-9641724D01*
X10281090Y-9641724D02*
X10262043Y-9641724D01*
X10262043Y-9641724D02*
X10242995Y-9632200D01*
X10242995Y-9632200D02*
X10233471Y-9622676D01*
X10233471Y-9622676D02*
X10223947Y-9603629D01*
X10223947Y-9603629D02*
X10214424Y-9565533D01*
X10214424Y-9565533D02*
X10214424Y-9517914D01*
X10214424Y-9517914D02*
X10223947Y-9479819D01*
X10223947Y-9479819D02*
X10233471Y-9460771D01*
X10233471Y-9460771D02*
X10242995Y-9451248D01*
X10242995Y-9451248D02*
X10262043Y-9441724D01*
X10452519Y-9441724D02*
X10471566Y-9441724D01*
X10471566Y-9441724D02*
X10490614Y-9451248D01*
X10490614Y-9451248D02*
X10500138Y-9460771D01*
X10500138Y-9460771D02*
X10509662Y-9479819D01*
X10509662Y-9479819D02*
X10519185Y-9517914D01*
X10519185Y-9517914D02*
X10519185Y-9565533D01*
X10519185Y-9565533D02*
X10509662Y-9603629D01*
X10509662Y-9603629D02*
X10500138Y-9622676D01*
X10500138Y-9622676D02*
X10490614Y-9632200D01*
X10490614Y-9632200D02*
X10471566Y-9641724D01*
X10471566Y-9641724D02*
X10452519Y-9641724D01*
X10452519Y-9641724D02*
X10433471Y-9632200D01*
X10433471Y-9632200D02*
X10423947Y-9622676D01*
X10423947Y-9622676D02*
X10414424Y-9603629D01*
X10414424Y-9603629D02*
X10404900Y-9565533D01*
X10404900Y-9565533D02*
X10404900Y-9517914D01*
X10404900Y-9517914D02*
X10414424Y-9479819D01*
X10414424Y-9479819D02*
X10423947Y-9460771D01*
X10423947Y-9460771D02*
X10433471Y-9451248D01*
X10433471Y-9451248D02*
X10452519Y-9441724D01*
X10604900Y-9641724D02*
X10604900Y-9508390D01*
X10604900Y-9527438D02*
X10614424Y-9517914D01*
X10614424Y-9517914D02*
X10633471Y-9508390D01*
X10633471Y-9508390D02*
X10662043Y-9508390D01*
X10662043Y-9508390D02*
X10681090Y-9517914D01*
X10681090Y-9517914D02*
X10690614Y-9536962D01*
X10690614Y-9536962D02*
X10690614Y-9641724D01*
X10690614Y-9536962D02*
X10700138Y-9517914D01*
X10700138Y-9517914D02*
X10719185Y-9508390D01*
X10719185Y-9508390D02*
X10747757Y-9508390D01*
X10747757Y-9508390D02*
X10766805Y-9517914D01*
X10766805Y-9517914D02*
X10776328Y-9536962D01*
X10776328Y-9536962D02*
X10776328Y-9641724D01*
X10871566Y-9641724D02*
X10871566Y-9508390D01*
X10871566Y-9527438D02*
X10881090Y-9517914D01*
X10881090Y-9517914D02*
X10900138Y-9508390D01*
X10900138Y-9508390D02*
X10928709Y-9508390D01*
X10928709Y-9508390D02*
X10947757Y-9517914D01*
X10947757Y-9517914D02*
X10957281Y-9536962D01*
X10957281Y-9536962D02*
X10957281Y-9641724D01*
X10957281Y-9536962D02*
X10966805Y-9517914D01*
X10966805Y-9517914D02*
X10985852Y-9508390D01*
X10985852Y-9508390D02*
X11014424Y-9508390D01*
X11014424Y-9508390D02*
X11033471Y-9517914D01*
X11033471Y-9517914D02*
X11042995Y-9536962D01*
X11042995Y-9536962D02*
X11042995Y-9641724D01*
X11433471Y-9432200D02*
X11262043Y-9689343D01*
X11690614Y-9441724D02*
X11709662Y-9441724D01*
X11709662Y-9441724D02*
X11728709Y-9451248D01*
X11728709Y-9451248D02*
X11738233Y-9460771D01*
X11738233Y-9460771D02*
X11747757Y-9479819D01*
X11747757Y-9479819D02*
X11757281Y-9517914D01*
X11757281Y-9517914D02*
X11757281Y-9565533D01*
X11757281Y-9565533D02*
X11747757Y-9603629D01*
X11747757Y-9603629D02*
X11738233Y-9622676D01*
X11738233Y-9622676D02*
X11728709Y-9632200D01*
X11728709Y-9632200D02*
X11709662Y-9641724D01*
X11709662Y-9641724D02*
X11690614Y-9641724D01*
X11690614Y-9641724D02*
X11671566Y-9632200D01*
X11671566Y-9632200D02*
X11662043Y-9622676D01*
X11662043Y-9622676D02*
X11652519Y-9603629D01*
X11652519Y-9603629D02*
X11642995Y-9565533D01*
X11642995Y-9565533D02*
X11642995Y-9517914D01*
X11642995Y-9517914D02*
X11652519Y-9479819D01*
X11652519Y-9479819D02*
X11662043Y-9460771D01*
X11662043Y-9460771D02*
X11671566Y-9451248D01*
X11671566Y-9451248D02*
X11690614Y-9441724D01*
X11842995Y-9622676D02*
X11852519Y-9632200D01*
X11852519Y-9632200D02*
X11842995Y-9641724D01*
X11842995Y-9641724D02*
X11833471Y-9632200D01*
X11833471Y-9632200D02*
X11842995Y-9622676D01*
X11842995Y-9622676D02*
X11842995Y-9641724D01*
X11976328Y-9441724D02*
X11995376Y-9441724D01*
X11995376Y-9441724D02*
X12014424Y-9451248D01*
X12014424Y-9451248D02*
X12023947Y-9460771D01*
X12023947Y-9460771D02*
X12033471Y-9479819D01*
X12033471Y-9479819D02*
X12042995Y-9517914D01*
X12042995Y-9517914D02*
X12042995Y-9565533D01*
X12042995Y-9565533D02*
X12033471Y-9603629D01*
X12033471Y-9603629D02*
X12023947Y-9622676D01*
X12023947Y-9622676D02*
X12014424Y-9632200D01*
X12014424Y-9632200D02*
X11995376Y-9641724D01*
X11995376Y-9641724D02*
X11976328Y-9641724D01*
X11976328Y-9641724D02*
X11957281Y-9632200D01*
X11957281Y-9632200D02*
X11947757Y-9622676D01*
X11947757Y-9622676D02*
X11938233Y-9603629D01*
X11938233Y-9603629D02*
X11928709Y-9565533D01*
X11928709Y-9565533D02*
X11928709Y-9517914D01*
X11928709Y-9517914D02*
X11938233Y-9479819D01*
X11938233Y-9479819D02*
X11947757Y-9460771D01*
X11947757Y-9460771D02*
X11957281Y-9451248D01*
X11957281Y-9451248D02*
X11976328Y-9441724D01*
X12233471Y-9641724D02*
X12119186Y-9641724D01*
X12176328Y-9641724D02*
X12176328Y-9441724D01*
X12176328Y-9441724D02*
X12157281Y-9470295D01*
X12157281Y-9470295D02*
X12138233Y-9489343D01*
X12138233Y-9489343D02*
X12119186Y-9498867D01*
X12414424Y-9441724D02*
X12319186Y-9441724D01*
X12319186Y-9441724D02*
X12309662Y-9536962D01*
X12309662Y-9536962D02*
X12319186Y-9527438D01*
X12319186Y-9527438D02*
X12338233Y-9517914D01*
X12338233Y-9517914D02*
X12385852Y-9517914D01*
X12385852Y-9517914D02*
X12404900Y-9527438D01*
X12404900Y-9527438D02*
X12414424Y-9536962D01*
X12414424Y-9536962D02*
X12423947Y-9556010D01*
X12423947Y-9556010D02*
X12423947Y-9603629D01*
X12423947Y-9603629D02*
X12414424Y-9622676D01*
X12414424Y-9622676D02*
X12404900Y-9632200D01*
X12404900Y-9632200D02*
X12385852Y-9641724D01*
X12385852Y-9641724D02*
X12338233Y-9641724D01*
X12338233Y-9641724D02*
X12319186Y-9632200D01*
X12319186Y-9632200D02*
X12309662Y-9622676D01*
X12490614Y-9441724D02*
X12623947Y-9441724D01*
X12623947Y-9441724D02*
X12538233Y-9641724D01*
X12690614Y-9441724D02*
X12690614Y-9479819D01*
X12766805Y-9441724D02*
X12766805Y-9479819D01*
X13062043Y-9717914D02*
X13052519Y-9708390D01*
X13052519Y-9708390D02*
X13033471Y-9679819D01*
X13033471Y-9679819D02*
X13023948Y-9660771D01*
X13023948Y-9660771D02*
X13014424Y-9632200D01*
X13014424Y-9632200D02*
X13004900Y-9584581D01*
X13004900Y-9584581D02*
X13004900Y-9546486D01*
X13004900Y-9546486D02*
X13014424Y-9498867D01*
X13014424Y-9498867D02*
X13023948Y-9470295D01*
X13023948Y-9470295D02*
X13033471Y-9451248D01*
X13033471Y-9451248D02*
X13052519Y-9422676D01*
X13052519Y-9422676D02*
X13062043Y-9413152D01*
X13128709Y-9460771D02*
X13138233Y-9451248D01*
X13138233Y-9451248D02*
X13157281Y-9441724D01*
X13157281Y-9441724D02*
X13204900Y-9441724D01*
X13204900Y-9441724D02*
X13223948Y-9451248D01*
X13223948Y-9451248D02*
X13233471Y-9460771D01*
X13233471Y-9460771D02*
X13242995Y-9479819D01*
X13242995Y-9479819D02*
X13242995Y-9498867D01*
X13242995Y-9498867D02*
X13233471Y-9527438D01*
X13233471Y-9527438D02*
X13119186Y-9641724D01*
X13119186Y-9641724D02*
X13242995Y-9641724D01*
X13433471Y-9641724D02*
X13319186Y-9641724D01*
X13376328Y-9641724D02*
X13376328Y-9441724D01*
X13376328Y-9441724D02*
X13357281Y-9470295D01*
X13357281Y-9470295D02*
X13338233Y-9489343D01*
X13338233Y-9489343D02*
X13319186Y-9498867D01*
X13671567Y-9641724D02*
X13671567Y-9441724D01*
X13757281Y-9641724D02*
X13757281Y-9536962D01*
X13757281Y-9536962D02*
X13747757Y-9517914D01*
X13747757Y-9517914D02*
X13728710Y-9508390D01*
X13728710Y-9508390D02*
X13700138Y-9508390D01*
X13700138Y-9508390D02*
X13681090Y-9517914D01*
X13681090Y-9517914D02*
X13671567Y-9527438D01*
X13881090Y-9641724D02*
X13862043Y-9632200D01*
X13862043Y-9632200D02*
X13852519Y-9622676D01*
X13852519Y-9622676D02*
X13842995Y-9603629D01*
X13842995Y-9603629D02*
X13842995Y-9546486D01*
X13842995Y-9546486D02*
X13852519Y-9527438D01*
X13852519Y-9527438D02*
X13862043Y-9517914D01*
X13862043Y-9517914D02*
X13881090Y-9508390D01*
X13881090Y-9508390D02*
X13909662Y-9508390D01*
X13909662Y-9508390D02*
X13928710Y-9517914D01*
X13928710Y-9517914D02*
X13938233Y-9527438D01*
X13938233Y-9527438D02*
X13947757Y-9546486D01*
X13947757Y-9546486D02*
X13947757Y-9603629D01*
X13947757Y-9603629D02*
X13938233Y-9622676D01*
X13938233Y-9622676D02*
X13928710Y-9632200D01*
X13928710Y-9632200D02*
X13909662Y-9641724D01*
X13909662Y-9641724D02*
X13881090Y-9641724D01*
X14062043Y-9641724D02*
X14042995Y-9632200D01*
X14042995Y-9632200D02*
X14033471Y-9613152D01*
X14033471Y-9613152D02*
X14033471Y-9441724D01*
X14214424Y-9632200D02*
X14195376Y-9641724D01*
X14195376Y-9641724D02*
X14157281Y-9641724D01*
X14157281Y-9641724D02*
X14138233Y-9632200D01*
X14138233Y-9632200D02*
X14128710Y-9613152D01*
X14128710Y-9613152D02*
X14128710Y-9536962D01*
X14128710Y-9536962D02*
X14138233Y-9517914D01*
X14138233Y-9517914D02*
X14157281Y-9508390D01*
X14157281Y-9508390D02*
X14195376Y-9508390D01*
X14195376Y-9508390D02*
X14214424Y-9517914D01*
X14214424Y-9517914D02*
X14223948Y-9536962D01*
X14223948Y-9536962D02*
X14223948Y-9556010D01*
X14223948Y-9556010D02*
X14128710Y-9575057D01*
X14300138Y-9632200D02*
X14319186Y-9641724D01*
X14319186Y-9641724D02*
X14357281Y-9641724D01*
X14357281Y-9641724D02*
X14376329Y-9632200D01*
X14376329Y-9632200D02*
X14385852Y-9613152D01*
X14385852Y-9613152D02*
X14385852Y-9603629D01*
X14385852Y-9603629D02*
X14376329Y-9584581D01*
X14376329Y-9584581D02*
X14357281Y-9575057D01*
X14357281Y-9575057D02*
X14328710Y-9575057D01*
X14328710Y-9575057D02*
X14309662Y-9565533D01*
X14309662Y-9565533D02*
X14300138Y-9546486D01*
X14300138Y-9546486D02*
X14300138Y-9536962D01*
X14300138Y-9536962D02*
X14309662Y-9517914D01*
X14309662Y-9517914D02*
X14328710Y-9508390D01*
X14328710Y-9508390D02*
X14357281Y-9508390D01*
X14357281Y-9508390D02*
X14376329Y-9517914D01*
X14452519Y-9717914D02*
X14462043Y-9708390D01*
X14462043Y-9708390D02*
X14481091Y-9679819D01*
X14481091Y-9679819D02*
X14490614Y-9660771D01*
X14490614Y-9660771D02*
X14500138Y-9632200D01*
X14500138Y-9632200D02*
X14509662Y-9584581D01*
X14509662Y-9584581D02*
X14509662Y-9546486D01*
X14509662Y-9546486D02*
X14500138Y-9498867D01*
X14500138Y-9498867D02*
X14490614Y-9470295D01*
X14490614Y-9470295D02*
X14481091Y-9451248D01*
X14481091Y-9451248D02*
X14462043Y-9422676D01*
X14462043Y-9422676D02*
X14452519Y-9413152D01*
D12*
X9486980Y-9814240D02*
G75*
G03*
X9486980Y-9814240I-20000J0D01*
G01*
D11*
X9785852Y-9705724D02*
X9804900Y-9705724D01*
X9804900Y-9705724D02*
X9823947Y-9715248D01*
X9823947Y-9715248D02*
X9833471Y-9724771D01*
X9833471Y-9724771D02*
X9842995Y-9743819D01*
X9842995Y-9743819D02*
X9852519Y-9781914D01*
X9852519Y-9781914D02*
X9852519Y-9829533D01*
X9852519Y-9829533D02*
X9842995Y-9867629D01*
X9842995Y-9867629D02*
X9833471Y-9886676D01*
X9833471Y-9886676D02*
X9823947Y-9896200D01*
X9823947Y-9896200D02*
X9804900Y-9905724D01*
X9804900Y-9905724D02*
X9785852Y-9905724D01*
X9785852Y-9905724D02*
X9766804Y-9896200D01*
X9766804Y-9896200D02*
X9757281Y-9886676D01*
X9757281Y-9886676D02*
X9747757Y-9867629D01*
X9747757Y-9867629D02*
X9738233Y-9829533D01*
X9738233Y-9829533D02*
X9738233Y-9781914D01*
X9738233Y-9781914D02*
X9747757Y-9743819D01*
X9747757Y-9743819D02*
X9757281Y-9724771D01*
X9757281Y-9724771D02*
X9766804Y-9715248D01*
X9766804Y-9715248D02*
X9785852Y-9705724D01*
X9938233Y-9886676D02*
X9947757Y-9896200D01*
X9947757Y-9896200D02*
X9938233Y-9905724D01*
X9938233Y-9905724D02*
X9928709Y-9896200D01*
X9928709Y-9896200D02*
X9938233Y-9886676D01*
X9938233Y-9886676D02*
X9938233Y-9905724D01*
X10119185Y-9772390D02*
X10119185Y-9905724D01*
X10071566Y-9696200D02*
X10023947Y-9839057D01*
X10023947Y-9839057D02*
X10147757Y-9839057D01*
X10262043Y-9705724D02*
X10281090Y-9705724D01*
X10281090Y-9705724D02*
X10300138Y-9715248D01*
X10300138Y-9715248D02*
X10309662Y-9724771D01*
X10309662Y-9724771D02*
X10319185Y-9743819D01*
X10319185Y-9743819D02*
X10328709Y-9781914D01*
X10328709Y-9781914D02*
X10328709Y-9829533D01*
X10328709Y-9829533D02*
X10319185Y-9867629D01*
X10319185Y-9867629D02*
X10309662Y-9886676D01*
X10309662Y-9886676D02*
X10300138Y-9896200D01*
X10300138Y-9896200D02*
X10281090Y-9905724D01*
X10281090Y-9905724D02*
X10262043Y-9905724D01*
X10262043Y-9905724D02*
X10242995Y-9896200D01*
X10242995Y-9896200D02*
X10233471Y-9886676D01*
X10233471Y-9886676D02*
X10223947Y-9867629D01*
X10223947Y-9867629D02*
X10214424Y-9829533D01*
X10214424Y-9829533D02*
X10214424Y-9781914D01*
X10214424Y-9781914D02*
X10223947Y-9743819D01*
X10223947Y-9743819D02*
X10233471Y-9724771D01*
X10233471Y-9724771D02*
X10242995Y-9715248D01*
X10242995Y-9715248D02*
X10262043Y-9705724D01*
X10452519Y-9705724D02*
X10471566Y-9705724D01*
X10471566Y-9705724D02*
X10490614Y-9715248D01*
X10490614Y-9715248D02*
X10500138Y-9724771D01*
X10500138Y-9724771D02*
X10509662Y-9743819D01*
X10509662Y-9743819D02*
X10519185Y-9781914D01*
X10519185Y-9781914D02*
X10519185Y-9829533D01*
X10519185Y-9829533D02*
X10509662Y-9867629D01*
X10509662Y-9867629D02*
X10500138Y-9886676D01*
X10500138Y-9886676D02*
X10490614Y-9896200D01*
X10490614Y-9896200D02*
X10471566Y-9905724D01*
X10471566Y-9905724D02*
X10452519Y-9905724D01*
X10452519Y-9905724D02*
X10433471Y-9896200D01*
X10433471Y-9896200D02*
X10423947Y-9886676D01*
X10423947Y-9886676D02*
X10414424Y-9867629D01*
X10414424Y-9867629D02*
X10404900Y-9829533D01*
X10404900Y-9829533D02*
X10404900Y-9781914D01*
X10404900Y-9781914D02*
X10414424Y-9743819D01*
X10414424Y-9743819D02*
X10423947Y-9724771D01*
X10423947Y-9724771D02*
X10433471Y-9715248D01*
X10433471Y-9715248D02*
X10452519Y-9705724D01*
X10604900Y-9905724D02*
X10604900Y-9772390D01*
X10604900Y-9791438D02*
X10614424Y-9781914D01*
X10614424Y-9781914D02*
X10633471Y-9772390D01*
X10633471Y-9772390D02*
X10662043Y-9772390D01*
X10662043Y-9772390D02*
X10681090Y-9781914D01*
X10681090Y-9781914D02*
X10690614Y-9800962D01*
X10690614Y-9800962D02*
X10690614Y-9905724D01*
X10690614Y-9800962D02*
X10700138Y-9781914D01*
X10700138Y-9781914D02*
X10719185Y-9772390D01*
X10719185Y-9772390D02*
X10747757Y-9772390D01*
X10747757Y-9772390D02*
X10766805Y-9781914D01*
X10766805Y-9781914D02*
X10776328Y-9800962D01*
X10776328Y-9800962D02*
X10776328Y-9905724D01*
X10871566Y-9905724D02*
X10871566Y-9772390D01*
X10871566Y-9791438D02*
X10881090Y-9781914D01*
X10881090Y-9781914D02*
X10900138Y-9772390D01*
X10900138Y-9772390D02*
X10928709Y-9772390D01*
X10928709Y-9772390D02*
X10947757Y-9781914D01*
X10947757Y-9781914D02*
X10957281Y-9800962D01*
X10957281Y-9800962D02*
X10957281Y-9905724D01*
X10957281Y-9800962D02*
X10966805Y-9781914D01*
X10966805Y-9781914D02*
X10985852Y-9772390D01*
X10985852Y-9772390D02*
X11014424Y-9772390D01*
X11014424Y-9772390D02*
X11033471Y-9781914D01*
X11033471Y-9781914D02*
X11042995Y-9800962D01*
X11042995Y-9800962D02*
X11042995Y-9905724D01*
X11433471Y-9696200D02*
X11262043Y-9953343D01*
X11690614Y-9705724D02*
X11709662Y-9705724D01*
X11709662Y-9705724D02*
X11728709Y-9715248D01*
X11728709Y-9715248D02*
X11738233Y-9724771D01*
X11738233Y-9724771D02*
X11747757Y-9743819D01*
X11747757Y-9743819D02*
X11757281Y-9781914D01*
X11757281Y-9781914D02*
X11757281Y-9829533D01*
X11757281Y-9829533D02*
X11747757Y-9867629D01*
X11747757Y-9867629D02*
X11738233Y-9886676D01*
X11738233Y-9886676D02*
X11728709Y-9896200D01*
X11728709Y-9896200D02*
X11709662Y-9905724D01*
X11709662Y-9905724D02*
X11690614Y-9905724D01*
X11690614Y-9905724D02*
X11671566Y-9896200D01*
X11671566Y-9896200D02*
X11662043Y-9886676D01*
X11662043Y-9886676D02*
X11652519Y-9867629D01*
X11652519Y-9867629D02*
X11642995Y-9829533D01*
X11642995Y-9829533D02*
X11642995Y-9781914D01*
X11642995Y-9781914D02*
X11652519Y-9743819D01*
X11652519Y-9743819D02*
X11662043Y-9724771D01*
X11662043Y-9724771D02*
X11671566Y-9715248D01*
X11671566Y-9715248D02*
X11690614Y-9705724D01*
X11842995Y-9886676D02*
X11852519Y-9896200D01*
X11852519Y-9896200D02*
X11842995Y-9905724D01*
X11842995Y-9905724D02*
X11833471Y-9896200D01*
X11833471Y-9896200D02*
X11842995Y-9886676D01*
X11842995Y-9886676D02*
X11842995Y-9905724D01*
X11976328Y-9705724D02*
X11995376Y-9705724D01*
X11995376Y-9705724D02*
X12014424Y-9715248D01*
X12014424Y-9715248D02*
X12023947Y-9724771D01*
X12023947Y-9724771D02*
X12033471Y-9743819D01*
X12033471Y-9743819D02*
X12042995Y-9781914D01*
X12042995Y-9781914D02*
X12042995Y-9829533D01*
X12042995Y-9829533D02*
X12033471Y-9867629D01*
X12033471Y-9867629D02*
X12023947Y-9886676D01*
X12023947Y-9886676D02*
X12014424Y-9896200D01*
X12014424Y-9896200D02*
X11995376Y-9905724D01*
X11995376Y-9905724D02*
X11976328Y-9905724D01*
X11976328Y-9905724D02*
X11957281Y-9896200D01*
X11957281Y-9896200D02*
X11947757Y-9886676D01*
X11947757Y-9886676D02*
X11938233Y-9867629D01*
X11938233Y-9867629D02*
X11928709Y-9829533D01*
X11928709Y-9829533D02*
X11928709Y-9781914D01*
X11928709Y-9781914D02*
X11938233Y-9743819D01*
X11938233Y-9743819D02*
X11947757Y-9724771D01*
X11947757Y-9724771D02*
X11957281Y-9715248D01*
X11957281Y-9715248D02*
X11976328Y-9705724D01*
X12233471Y-9905724D02*
X12119186Y-9905724D01*
X12176328Y-9905724D02*
X12176328Y-9705724D01*
X12176328Y-9705724D02*
X12157281Y-9734295D01*
X12157281Y-9734295D02*
X12138233Y-9753343D01*
X12138233Y-9753343D02*
X12119186Y-9762867D01*
X12414424Y-9705724D02*
X12319186Y-9705724D01*
X12319186Y-9705724D02*
X12309662Y-9800962D01*
X12309662Y-9800962D02*
X12319186Y-9791438D01*
X12319186Y-9791438D02*
X12338233Y-9781914D01*
X12338233Y-9781914D02*
X12385852Y-9781914D01*
X12385852Y-9781914D02*
X12404900Y-9791438D01*
X12404900Y-9791438D02*
X12414424Y-9800962D01*
X12414424Y-9800962D02*
X12423947Y-9820010D01*
X12423947Y-9820010D02*
X12423947Y-9867629D01*
X12423947Y-9867629D02*
X12414424Y-9886676D01*
X12414424Y-9886676D02*
X12404900Y-9896200D01*
X12404900Y-9896200D02*
X12385852Y-9905724D01*
X12385852Y-9905724D02*
X12338233Y-9905724D01*
X12338233Y-9905724D02*
X12319186Y-9896200D01*
X12319186Y-9896200D02*
X12309662Y-9886676D01*
X12490614Y-9705724D02*
X12623947Y-9705724D01*
X12623947Y-9705724D02*
X12538233Y-9905724D01*
X12690614Y-9705724D02*
X12690614Y-9743819D01*
X12766805Y-9705724D02*
X12766805Y-9743819D01*
X13062043Y-9981914D02*
X13052519Y-9972390D01*
X13052519Y-9972390D02*
X13033471Y-9943819D01*
X13033471Y-9943819D02*
X13023948Y-9924771D01*
X13023948Y-9924771D02*
X13014424Y-9896200D01*
X13014424Y-9896200D02*
X13004900Y-9848581D01*
X13004900Y-9848581D02*
X13004900Y-9810486D01*
X13004900Y-9810486D02*
X13014424Y-9762867D01*
X13014424Y-9762867D02*
X13023948Y-9734295D01*
X13023948Y-9734295D02*
X13033471Y-9715248D01*
X13033471Y-9715248D02*
X13052519Y-9686676D01*
X13052519Y-9686676D02*
X13062043Y-9677152D01*
X13166805Y-9791438D02*
X13147757Y-9781914D01*
X13147757Y-9781914D02*
X13138233Y-9772390D01*
X13138233Y-9772390D02*
X13128709Y-9753343D01*
X13128709Y-9753343D02*
X13128709Y-9743819D01*
X13128709Y-9743819D02*
X13138233Y-9724771D01*
X13138233Y-9724771D02*
X13147757Y-9715248D01*
X13147757Y-9715248D02*
X13166805Y-9705724D01*
X13166805Y-9705724D02*
X13204900Y-9705724D01*
X13204900Y-9705724D02*
X13223948Y-9715248D01*
X13223948Y-9715248D02*
X13233471Y-9724771D01*
X13233471Y-9724771D02*
X13242995Y-9743819D01*
X13242995Y-9743819D02*
X13242995Y-9753343D01*
X13242995Y-9753343D02*
X13233471Y-9772390D01*
X13233471Y-9772390D02*
X13223948Y-9781914D01*
X13223948Y-9781914D02*
X13204900Y-9791438D01*
X13204900Y-9791438D02*
X13166805Y-9791438D01*
X13166805Y-9791438D02*
X13147757Y-9800962D01*
X13147757Y-9800962D02*
X13138233Y-9810486D01*
X13138233Y-9810486D02*
X13128709Y-9829533D01*
X13128709Y-9829533D02*
X13128709Y-9867629D01*
X13128709Y-9867629D02*
X13138233Y-9886676D01*
X13138233Y-9886676D02*
X13147757Y-9896200D01*
X13147757Y-9896200D02*
X13166805Y-9905724D01*
X13166805Y-9905724D02*
X13204900Y-9905724D01*
X13204900Y-9905724D02*
X13223948Y-9896200D01*
X13223948Y-9896200D02*
X13233471Y-9886676D01*
X13233471Y-9886676D02*
X13242995Y-9867629D01*
X13242995Y-9867629D02*
X13242995Y-9829533D01*
X13242995Y-9829533D02*
X13233471Y-9810486D01*
X13233471Y-9810486D02*
X13223948Y-9800962D01*
X13223948Y-9800962D02*
X13204900Y-9791438D01*
X13366805Y-9705724D02*
X13385852Y-9705724D01*
X13385852Y-9705724D02*
X13404900Y-9715248D01*
X13404900Y-9715248D02*
X13414424Y-9724771D01*
X13414424Y-9724771D02*
X13423948Y-9743819D01*
X13423948Y-9743819D02*
X13433471Y-9781914D01*
X13433471Y-9781914D02*
X13433471Y-9829533D01*
X13433471Y-9829533D02*
X13423948Y-9867629D01*
X13423948Y-9867629D02*
X13414424Y-9886676D01*
X13414424Y-9886676D02*
X13404900Y-9896200D01*
X13404900Y-9896200D02*
X13385852Y-9905724D01*
X13385852Y-9905724D02*
X13366805Y-9905724D01*
X13366805Y-9905724D02*
X13347757Y-9896200D01*
X13347757Y-9896200D02*
X13338233Y-9886676D01*
X13338233Y-9886676D02*
X13328709Y-9867629D01*
X13328709Y-9867629D02*
X13319186Y-9829533D01*
X13319186Y-9829533D02*
X13319186Y-9781914D01*
X13319186Y-9781914D02*
X13328709Y-9743819D01*
X13328709Y-9743819D02*
X13338233Y-9724771D01*
X13338233Y-9724771D02*
X13347757Y-9715248D01*
X13347757Y-9715248D02*
X13366805Y-9705724D01*
X13671567Y-9905724D02*
X13671567Y-9705724D01*
X13757281Y-9905724D02*
X13757281Y-9800962D01*
X13757281Y-9800962D02*
X13747757Y-9781914D01*
X13747757Y-9781914D02*
X13728710Y-9772390D01*
X13728710Y-9772390D02*
X13700138Y-9772390D01*
X13700138Y-9772390D02*
X13681090Y-9781914D01*
X13681090Y-9781914D02*
X13671567Y-9791438D01*
X13881090Y-9905724D02*
X13862043Y-9896200D01*
X13862043Y-9896200D02*
X13852519Y-9886676D01*
X13852519Y-9886676D02*
X13842995Y-9867629D01*
X13842995Y-9867629D02*
X13842995Y-9810486D01*
X13842995Y-9810486D02*
X13852519Y-9791438D01*
X13852519Y-9791438D02*
X13862043Y-9781914D01*
X13862043Y-9781914D02*
X13881090Y-9772390D01*
X13881090Y-9772390D02*
X13909662Y-9772390D01*
X13909662Y-9772390D02*
X13928710Y-9781914D01*
X13928710Y-9781914D02*
X13938233Y-9791438D01*
X13938233Y-9791438D02*
X13947757Y-9810486D01*
X13947757Y-9810486D02*
X13947757Y-9867629D01*
X13947757Y-9867629D02*
X13938233Y-9886676D01*
X13938233Y-9886676D02*
X13928710Y-9896200D01*
X13928710Y-9896200D02*
X13909662Y-9905724D01*
X13909662Y-9905724D02*
X13881090Y-9905724D01*
X14062043Y-9905724D02*
X14042995Y-9896200D01*
X14042995Y-9896200D02*
X14033471Y-9877152D01*
X14033471Y-9877152D02*
X14033471Y-9705724D01*
X14214424Y-9896200D02*
X14195376Y-9905724D01*
X14195376Y-9905724D02*
X14157281Y-9905724D01*
X14157281Y-9905724D02*
X14138233Y-9896200D01*
X14138233Y-9896200D02*
X14128710Y-9877152D01*
X14128710Y-9877152D02*
X14128710Y-9800962D01*
X14128710Y-9800962D02*
X14138233Y-9781914D01*
X14138233Y-9781914D02*
X14157281Y-9772390D01*
X14157281Y-9772390D02*
X14195376Y-9772390D01*
X14195376Y-9772390D02*
X14214424Y-9781914D01*
X14214424Y-9781914D02*
X14223948Y-9800962D01*
X14223948Y-9800962D02*
X14223948Y-9820010D01*
X14223948Y-9820010D02*
X14128710Y-9839057D01*
X14300138Y-9896200D02*
X14319186Y-9905724D01*
X14319186Y-9905724D02*
X14357281Y-9905724D01*
X14357281Y-9905724D02*
X14376329Y-9896200D01*
X14376329Y-9896200D02*
X14385852Y-9877152D01*
X14385852Y-9877152D02*
X14385852Y-9867629D01*
X14385852Y-9867629D02*
X14376329Y-9848581D01*
X14376329Y-9848581D02*
X14357281Y-9839057D01*
X14357281Y-9839057D02*
X14328710Y-9839057D01*
X14328710Y-9839057D02*
X14309662Y-9829533D01*
X14309662Y-9829533D02*
X14300138Y-9810486D01*
X14300138Y-9810486D02*
X14300138Y-9800962D01*
X14300138Y-9800962D02*
X14309662Y-9781914D01*
X14309662Y-9781914D02*
X14328710Y-9772390D01*
X14328710Y-9772390D02*
X14357281Y-9772390D01*
X14357281Y-9772390D02*
X14376329Y-9781914D01*
X14452519Y-9981914D02*
X14462043Y-9972390D01*
X14462043Y-9972390D02*
X14481091Y-9943819D01*
X14481091Y-9943819D02*
X14490614Y-9924771D01*
X14490614Y-9924771D02*
X14500138Y-9896200D01*
X14500138Y-9896200D02*
X14509662Y-9848581D01*
X14509662Y-9848581D02*
X14509662Y-9810486D01*
X14509662Y-9810486D02*
X14500138Y-9762867D01*
X14500138Y-9762867D02*
X14490614Y-9734295D01*
X14490614Y-9734295D02*
X14481091Y-9715248D01*
X14481091Y-9715248D02*
X14462043Y-9686676D01*
X14462043Y-9686676D02*
X14452519Y-9677152D01*
M02*
