%TF.GenerationSoftware,KiCad,Pcbnew,7.0.8*%
%TF.CreationDate,2024-02-10T12:17:18+00:00*%
%TF.ProjectId,Neptune-32x-315-5805-bypass,4e657074-756e-4652-9d33-32782d333135,rev?*%
%TF.SameCoordinates,Original*%
%TF.FileFunction,Copper,L1,Top*%
%TF.FilePolarity,Positive*%
%FSLAX46Y46*%
G04 Gerber Fmt 4.6, Leading zero omitted, Abs format (unit mm)*
G04 Created by KiCad (PCBNEW 7.0.8) date 2024-02-10 12:17:18*
%MOMM*%
%LPD*%
G01*
G04 APERTURE LIST*
%TA.AperFunction,SMDPad,CuDef*%
%ADD10R,1.000000X0.300000*%
%TD*%
%TA.AperFunction,SMDPad,CuDef*%
%ADD11R,0.300000X1.000000*%
%TD*%
%TA.AperFunction,ViaPad*%
%ADD12C,0.800000*%
%TD*%
%TA.AperFunction,Conductor*%
%ADD13C,0.127000*%
%TD*%
G04 APERTURE END LIST*
D10*
%TO.P,IC1,1,RA4*%
%TO.N,VA4*%
X97572800Y-64505600D03*
%TO.P,IC1,2,RA3*%
%TO.N,VA3*%
X97572800Y-65305600D03*
%TO.P,IC1,3,RA2*%
%TO.N,VA2*%
X97572800Y-66105600D03*
%TO.P,IC1,4,RA1*%
%TO.N,VA1*%
X97572800Y-66905600D03*
%TO.P,IC1,5,GND*%
%TO.N,unconnected-(IC1-GND-Pad5)*%
X97572800Y-67705600D03*
%TO.P,IC1,6,VA23*%
%TO.N,VA23*%
X97572800Y-68505600D03*
%TO.P,IC1,7,VA22*%
%TO.N,VA22*%
X97572800Y-69305600D03*
%TO.P,IC1,8,OVA21*%
%TO.N,VA21*%
X97572800Y-70105600D03*
%TO.P,IC1,9,OVA20*%
%TO.N,VA20*%
X97572800Y-70905600D03*
%TO.P,IC1,10,OVA19*%
%TO.N,VA19*%
X97572800Y-71705600D03*
%TO.P,IC1,11,VA18*%
%TO.N,VA18*%
X97572800Y-72505600D03*
%TO.P,IC1,12,GND*%
%TO.N,unconnected-(IC1-GND-Pad12)*%
X97572800Y-73305600D03*
%TO.P,IC1,13,VA17*%
%TO.N,VA17*%
X97572800Y-74105600D03*
%TO.P,IC1,14,VA16*%
%TO.N,VA16*%
X97572800Y-74905600D03*
%TO.P,IC1,15,VA15*%
%TO.N,VA15*%
X97572800Y-75705600D03*
%TO.P,IC1,16,VA14*%
%TO.N,VA14*%
X97572800Y-76505600D03*
%TO.P,IC1,17,VA13*%
%TO.N,VA13*%
X97572800Y-77305600D03*
%TO.P,IC1,18,VA12*%
%TO.N,VA12*%
X97572800Y-78105600D03*
%TO.P,IC1,19,VA11*%
%TO.N,VA11*%
X97572800Y-78905600D03*
%TO.P,IC1,20,VA10*%
%TO.N,VA10*%
X97572800Y-79705600D03*
%TO.P,IC1,21,VA9*%
%TO.N,VA9*%
X97572800Y-80505600D03*
%TO.P,IC1,22,VA8*%
%TO.N,VA8*%
X97572800Y-81305600D03*
%TO.P,IC1,23,VA7*%
%TO.N,VA7*%
X97572800Y-82105600D03*
%TO.P,IC1,24,VA6*%
%TO.N,VA6*%
X97572800Y-82905600D03*
D11*
%TO.P,IC1,25,VA5*%
%TO.N,VA5*%
X99072800Y-84205600D03*
%TO.P,IC1,26,VA4*%
%TO.N,VA4*%
X99872800Y-84205600D03*
%TO.P,IC1,27,VA3*%
%TO.N,VA3*%
X100672800Y-84205600D03*
%TO.P,IC1,28,VA2*%
%TO.N,VA2*%
X101472800Y-84205600D03*
%TO.P,IC1,29,VA1*%
%TO.N,VA1*%
X102272800Y-84205600D03*
%TO.P,IC1,30,SHA21*%
%TO.N,unconnected-(IC1-SHA21-Pad30)*%
X103072800Y-84205600D03*
%TO.P,IC1,31,SHA20*%
%TO.N,unconnected-(IC1-SHA20-Pad31)*%
X103872800Y-84205600D03*
%TO.P,IC1,32,CKIO*%
%TO.N,unconnected-(IC1-CKIO-Pad32)*%
X104672800Y-84205600D03*
%TO.P,IC1,33,GND*%
%TO.N,unconnected-(IC1-GND-Pad33)*%
X105472800Y-84205600D03*
%TO.P,IC1,34,VDD*%
%TO.N,unconnected-(IC1-VDD-Pad34)*%
X106272800Y-84205600D03*
%TO.P,IC1,35,BREQ*%
%TO.N,unconnected-(IC1-BREQ-Pad35)*%
X107072800Y-84205600D03*
%TO.P,IC1,36,OBACK*%
%TO.N,unconnected-(IC1-OBACK-Pad36)*%
X107872800Y-84205600D03*
%TO.P,IC1,37,OBACK*%
%TO.N,unconnected-(IC1-OBACK-Pad37)*%
X108672800Y-84205600D03*
%TO.P,IC1,38,SHA19*%
%TO.N,unconnected-(IC1-SHA19-Pad38)*%
X109472800Y-84205600D03*
%TO.P,IC1,39,SHA18*%
%TO.N,unconnected-(IC1-SHA18-Pad39)*%
X110272800Y-84205600D03*
%TO.P,IC1,40,SHA1*%
%TO.N,unconnected-(IC1-SHA1-Pad40)*%
X111072800Y-84205600D03*
D10*
%TO.P,IC1,41,SHA2*%
%TO.N,unconnected-(IC1-SHA2-Pad41)*%
X112572800Y-82905600D03*
%TO.P,IC1,42,SHA3*%
%TO.N,unconnected-(IC1-SHA3-Pad42)*%
X112572800Y-82105600D03*
%TO.P,IC1,43,SHA4*%
%TO.N,unconnected-(IC1-SHA4-Pad43)*%
X112572800Y-81305600D03*
%TO.P,IC1,44,SHA5*%
%TO.N,unconnected-(IC1-SHA5-Pad44)*%
X112572800Y-80505600D03*
%TO.P,IC1,45,SHA6*%
%TO.N,unconnected-(IC1-SHA6-Pad45)*%
X112572800Y-79705600D03*
%TO.P,IC1,46,SHA7*%
%TO.N,unconnected-(IC1-SHA7-Pad46)*%
X112572800Y-78905600D03*
%TO.P,IC1,47,SHA8*%
%TO.N,unconnected-(IC1-SHA8-Pad47)*%
X112572800Y-78105600D03*
%TO.P,IC1,48,SHA9*%
%TO.N,unconnected-(IC1-SHA9-Pad48)*%
X112572800Y-77305600D03*
%TO.P,IC1,49,SHA10*%
%TO.N,unconnected-(IC1-SHA10-Pad49)*%
X112572800Y-76505600D03*
%TO.P,IC1,50,SHA11*%
%TO.N,unconnected-(IC1-SHA11-Pad50)*%
X112572800Y-75705600D03*
%TO.P,IC1,51,SHA12*%
%TO.N,unconnected-(IC1-SHA12-Pad51)*%
X112572800Y-74905600D03*
%TO.P,IC1,52,SHA13*%
%TO.N,unconnected-(IC1-SHA13-Pad52)*%
X112572800Y-74105600D03*
%TO.P,IC1,53,GND*%
%TO.N,unconnected-(IC1-GND-Pad53)*%
X112572800Y-73305600D03*
%TO.P,IC1,54,SHA14*%
%TO.N,unconnected-(IC1-SHA14-Pad54)*%
X112572800Y-72505600D03*
%TO.P,IC1,55,SHA15*%
%TO.N,unconnected-(IC1-SHA15-Pad55)*%
X112572800Y-71705600D03*
%TO.P,IC1,56,SHA16*%
%TO.N,unconnected-(IC1-SHA16-Pad56)*%
X112572800Y-70905600D03*
%TO.P,IC1,57,SHA17*%
%TO.N,unconnected-(IC1-SHA17-Pad57)*%
X112572800Y-70105600D03*
%TO.P,IC1,58,~{SEL}*%
%TO.N,unconnected-(IC1-~{SEL}-Pad58)*%
X112572800Y-69305600D03*
%TO.P,IC1,59,GND*%
%TO.N,unconnected-(IC1-GND-Pad59)*%
X112572800Y-68505600D03*
%TO.P,IC1,60,RA23*%
%TO.N,VA23*%
X112572800Y-67705600D03*
%TO.P,IC1,61,RA22*%
%TO.N,VA22*%
X112572800Y-66905600D03*
%TO.P,IC1,62,RA21*%
%TO.N,VA21*%
X112572800Y-66105600D03*
%TO.P,IC1,63,RA20*%
%TO.N,VA20*%
X112572800Y-65305600D03*
%TO.P,IC1,64,RA19*%
%TO.N,VA19*%
X112572800Y-64505600D03*
D11*
%TO.P,IC1,65,RA18*%
%TO.N,VA18*%
X111072800Y-63205600D03*
%TO.P,IC1,66,RA17*%
%TO.N,VA17*%
X110272800Y-63205600D03*
%TO.P,IC1,67,RA16*%
%TO.N,VA16*%
X109472800Y-63205600D03*
%TO.P,IC1,68,RA15*%
%TO.N,VA15*%
X108672800Y-63205600D03*
%TO.P,IC1,69,RA14*%
%TO.N,VA14*%
X107872800Y-63205600D03*
%TO.P,IC1,70,RA13*%
%TO.N,VA13*%
X107072800Y-63205600D03*
%TO.P,IC1,71,GND*%
%TO.N,unconnected-(IC1-GND-Pad71)*%
X106272800Y-63205600D03*
%TO.P,IC1,72,VDD*%
%TO.N,unconnected-(IC1-VDD-Pad72)*%
X105472800Y-63205600D03*
%TO.P,IC1,73,RA12*%
%TO.N,VA12*%
X104672800Y-63205600D03*
%TO.P,IC1,74,RA11*%
%TO.N,VA11*%
X103872800Y-63205600D03*
%TO.P,IC1,75,RA10*%
%TO.N,VA10*%
X103072800Y-63205600D03*
%TO.P,IC1,76,RA9*%
%TO.N,VA9*%
X102272800Y-63205600D03*
%TO.P,IC1,77,RA8*%
%TO.N,VA8*%
X101472800Y-63205600D03*
%TO.P,IC1,78,RA7*%
%TO.N,VA7*%
X100672800Y-63205600D03*
%TO.P,IC1,79,RA6*%
%TO.N,VA6*%
X99872800Y-63205600D03*
%TO.P,IC1,80,RA5*%
%TO.N,VA5*%
X99072800Y-63205600D03*
%TD*%
D12*
%TO.N,VA5*%
X98179600Y-63762100D03*
X100015700Y-65336800D03*
%TO.N,VA6*%
X102778500Y-79862800D03*
X99556200Y-82221000D03*
%TO.N,VA7*%
X103374500Y-78326400D03*
X98621500Y-82042800D03*
%TO.N,VA8*%
X103908600Y-77485000D03*
X98618700Y-81046000D03*
%TO.N,VA9*%
X102272800Y-64326500D03*
X100431700Y-66222500D03*
%TO.N,VA10*%
X103072800Y-65238800D03*
X100942500Y-67369100D03*
%TO.N,VA11*%
X104151100Y-76436300D03*
X98613200Y-78928200D03*
%TO.N,VA12*%
X104672800Y-75156100D03*
X99016000Y-78018500D03*
%TO.N,VA13*%
X106048900Y-73241200D03*
X98604600Y-76957600D03*
%TO.N,VA14*%
X106632700Y-72377200D03*
X99101800Y-76149300D03*
%TO.N,VA15*%
X107283300Y-71163400D03*
X98869500Y-75221600D03*
%TO.N,VA16*%
X108209300Y-70931700D03*
X98858500Y-73985900D03*
%TO.N,VA17*%
X108645200Y-69764000D03*
X99927100Y-71660000D03*
%TO.N,VA18*%
X109565600Y-69764000D03*
X98593900Y-72550600D03*
%TO.N,VA19*%
X111517500Y-64510900D03*
X99158200Y-67353700D03*
%TO.N,VA20*%
X109921200Y-68596300D03*
X99821100Y-70492300D03*
%TO.N,VA21*%
X110918000Y-68855400D03*
X98599800Y-70138400D03*
%TO.N,VA22*%
X111503100Y-66994000D03*
X98599400Y-68863600D03*
%TO.N,VA23*%
X111511700Y-68082400D03*
X99524400Y-68651500D03*
%TO.N,VA1*%
X102452400Y-69168100D03*
X99786200Y-69571900D03*
%TO.N,VA2*%
X100051500Y-74009500D03*
X101671900Y-75856100D03*
%TO.N,VA3*%
X101825700Y-74935700D03*
X100721300Y-73339600D03*
%TD*%
D13*
%TO.N,VA5*%
X99072800Y-84205600D02*
X99072800Y-83521800D01*
X99072800Y-63205600D02*
X99072800Y-63889400D01*
X98306900Y-63889400D02*
X98179600Y-63762100D01*
X99072800Y-63889400D02*
X98306900Y-63889400D01*
X99146700Y-83521800D02*
X99072800Y-83521800D01*
X100593500Y-82075000D02*
X99146700Y-83521800D01*
X100593500Y-74992700D02*
X100593500Y-82075000D01*
X101829200Y-73757000D02*
X100593500Y-74992700D01*
X101829200Y-69720100D02*
X101829200Y-73757000D01*
X101606600Y-69497500D02*
X101829200Y-69720100D01*
X101606600Y-68729300D02*
X101606600Y-69497500D01*
X101773600Y-68562300D02*
X101606600Y-68729300D01*
X101773600Y-66738600D02*
X101773600Y-68562300D01*
X100371900Y-65336900D02*
X101773600Y-66738600D01*
X100015700Y-65336900D02*
X100371900Y-65336900D01*
X100015700Y-65336800D02*
X100015700Y-65336900D01*
%TO.N,VA6*%
X99872800Y-63205600D02*
X99872800Y-63889400D01*
X98871600Y-82905600D02*
X97572800Y-82905600D01*
X99556200Y-82221000D02*
X98871600Y-82905600D01*
X102778500Y-76572700D02*
X102778500Y-79862800D01*
X103036800Y-76314400D02*
X102778500Y-76572700D01*
X103036800Y-67053400D02*
X103036800Y-76314400D01*
X99872800Y-63889400D02*
X103036800Y-67053400D01*
%TO.N,VA7*%
X97572800Y-82105600D02*
X98256600Y-82105600D01*
X98319400Y-82042800D02*
X98256600Y-82105600D01*
X98621500Y-82042800D02*
X98319400Y-82042800D01*
X100672800Y-63205600D02*
X100672800Y-63889400D01*
X103319900Y-78271800D02*
X103374500Y-78326400D01*
X103319900Y-66886200D02*
X103319900Y-78271800D01*
X100672800Y-64239100D02*
X103319900Y-66886200D01*
X100672800Y-63889400D02*
X100672800Y-64239100D01*
%TO.N,VA8*%
X98359100Y-81305600D02*
X97572800Y-81305600D01*
X98618700Y-81046000D02*
X98359100Y-81305600D01*
X103567300Y-77143700D02*
X103908600Y-77485000D01*
X103567300Y-66783600D02*
X103567300Y-77143700D01*
X101472800Y-64689100D02*
X103567300Y-66783600D01*
X101472800Y-63205600D02*
X101472800Y-64689100D01*
%TO.N,VA9*%
X97572800Y-80505600D02*
X98256600Y-80505600D01*
X102272800Y-63205600D02*
X102272800Y-64326500D01*
X100694400Y-66222500D02*
X100431700Y-66222500D01*
X101526300Y-67054400D02*
X100694400Y-66222500D01*
X101526300Y-67610900D02*
X101526300Y-67054400D01*
X101359300Y-67777900D02*
X101526300Y-67610900D01*
X101359300Y-69599900D02*
X101359300Y-67777900D01*
X101581800Y-69822400D02*
X101359300Y-69599900D01*
X101581800Y-73654700D02*
X101581800Y-69822400D01*
X100346200Y-74890300D02*
X101581800Y-73654700D01*
X100346200Y-78416000D02*
X100346200Y-74890300D01*
X98256600Y-80505600D02*
X100346200Y-78416000D01*
%TO.N,VA10*%
X97572800Y-79705600D02*
X98256600Y-79705600D01*
X103072800Y-63205600D02*
X103072800Y-63889400D01*
X101112000Y-67538600D02*
X100942500Y-67369100D01*
X101112000Y-69702300D02*
X101112000Y-67538600D01*
X101326100Y-69916400D02*
X101112000Y-69702300D01*
X101326100Y-73560700D02*
X101326100Y-69916400D01*
X100098900Y-74787900D02*
X101326100Y-73560700D01*
X100098900Y-78295300D02*
X100098900Y-74787900D01*
X98688600Y-79705600D02*
X100098900Y-78295300D01*
X98256600Y-79705600D02*
X98688600Y-79705600D01*
X103072800Y-63889400D02*
X103072800Y-65238800D01*
%TO.N,VA11*%
X103872800Y-76158000D02*
X104151100Y-76436300D01*
X103872800Y-63889400D02*
X103872800Y-76158000D01*
X98279200Y-78928200D02*
X98256600Y-78905600D01*
X98613200Y-78928200D02*
X98279200Y-78928200D01*
X97572800Y-78905600D02*
X98256600Y-78905600D01*
X103872800Y-63205600D02*
X103872800Y-63889400D01*
%TO.N,VA12*%
X97572800Y-78105600D02*
X98256600Y-78105600D01*
X98343700Y-78018500D02*
X98256600Y-78105600D01*
X99016000Y-78018500D02*
X98343700Y-78018500D01*
X104672800Y-63205600D02*
X104672800Y-75156100D01*
%TO.N,VA13*%
X97572800Y-77305600D02*
X98256600Y-77305600D01*
X98604600Y-76957600D02*
X98256600Y-77305600D01*
X107072800Y-63205600D02*
X107072800Y-63889400D01*
X106048900Y-64913300D02*
X106048900Y-73241200D01*
X107072800Y-63889400D02*
X106048900Y-64913300D01*
%TO.N,VA14*%
X106632700Y-65129500D02*
X106632700Y-72377200D01*
X107872800Y-63889400D02*
X106632700Y-65129500D01*
X107872800Y-63205600D02*
X107872800Y-63889400D01*
X97929100Y-76149300D02*
X97572800Y-76505600D01*
X99101800Y-76149300D02*
X97929100Y-76149300D01*
%TO.N,VA15*%
X107283300Y-65278900D02*
X107283300Y-71163400D01*
X108672800Y-63889400D02*
X107283300Y-65278900D01*
X98385500Y-75705600D02*
X97572800Y-75705600D01*
X98869500Y-75221600D02*
X98385500Y-75705600D01*
X108672800Y-63205600D02*
X108672800Y-63889400D01*
%TO.N,VA16*%
X97572800Y-74905600D02*
X98256600Y-74905600D01*
X109472800Y-63205600D02*
X109472800Y-63889400D01*
X98256600Y-74587800D02*
X98256600Y-74905600D01*
X98858500Y-73985900D02*
X98256600Y-74587800D01*
X108039900Y-70762300D02*
X108209300Y-70931700D01*
X108039900Y-65322300D02*
X108039900Y-70762300D01*
X109472800Y-63889400D02*
X108039900Y-65322300D01*
%TO.N,VA17*%
X97572800Y-74105600D02*
X98256600Y-74105600D01*
X110272800Y-63205600D02*
X110272800Y-63889400D01*
X108645200Y-65517000D02*
X108645200Y-69764000D01*
X110272800Y-63889400D02*
X108645200Y-65517000D01*
X99927100Y-72091800D02*
X99927100Y-71660000D01*
X98256600Y-73762300D02*
X99927100Y-72091800D01*
X98256600Y-74105600D02*
X98256600Y-73762300D01*
%TO.N,VA18*%
X98301600Y-72550600D02*
X98256600Y-72505600D01*
X98593900Y-72550600D02*
X98301600Y-72550600D01*
X97572800Y-72505600D02*
X98256600Y-72505600D01*
X111072800Y-63205600D02*
X111072800Y-63889400D01*
X109309800Y-69508200D02*
X109565600Y-69764000D01*
X109309800Y-65652400D02*
X109309800Y-69508200D01*
X111072800Y-63889400D02*
X109309800Y-65652400D01*
%TO.N,VA19*%
X97572800Y-71705600D02*
X98256600Y-71705600D01*
X112572800Y-64505600D02*
X111889000Y-64505600D01*
X111883700Y-64510900D02*
X111517500Y-64510900D01*
X111889000Y-64505600D02*
X111883700Y-64510900D01*
X99056000Y-71705600D02*
X98256600Y-71705600D01*
X99685400Y-71076200D02*
X99056000Y-71705600D01*
X100082100Y-71076200D02*
X99685400Y-71076200D01*
X100404900Y-70753400D02*
X100082100Y-71076200D01*
X100404900Y-70250500D02*
X100404900Y-70753400D01*
X100370100Y-70215700D02*
X100404900Y-70250500D01*
X100370100Y-68321900D02*
X100370100Y-70215700D01*
X99401900Y-67353700D02*
X100370100Y-68321900D01*
X99158200Y-67353700D02*
X99401900Y-67353700D01*
%TO.N,VA20*%
X112572800Y-65305600D02*
X111889000Y-65305600D01*
X109921200Y-67273400D02*
X109921200Y-68596300D01*
X111889000Y-65305600D02*
X109921200Y-67273400D01*
X99407800Y-70905600D02*
X99821100Y-70492300D01*
X97572800Y-70905600D02*
X99407800Y-70905600D01*
%TO.N,VA21*%
X98567000Y-70105600D02*
X98599800Y-70138400D01*
X97572800Y-70105600D02*
X98567000Y-70105600D01*
X111551900Y-66105600D02*
X112572800Y-66105600D01*
X110918000Y-66739500D02*
X111551900Y-66105600D01*
X110918000Y-68855400D02*
X110918000Y-66739500D01*
%TO.N,VA22*%
X111800600Y-66994000D02*
X111503100Y-66994000D01*
X111889000Y-66905600D02*
X111800600Y-66994000D01*
X112572800Y-66905600D02*
X111889000Y-66905600D01*
X97572800Y-69305600D02*
X98256600Y-69305600D01*
X98256600Y-69206400D02*
X98599400Y-68863600D01*
X98256600Y-69305600D02*
X98256600Y-69206400D01*
%TO.N,VA23*%
X111888500Y-67705600D02*
X111511700Y-68082400D01*
X112572800Y-67705600D02*
X111888500Y-67705600D01*
X99152600Y-68279700D02*
X99524400Y-68651500D01*
X97798700Y-68279700D02*
X99152600Y-68279700D01*
X97572800Y-68505600D02*
X97798700Y-68279700D01*
%TO.N,VA1*%
X97572800Y-66905600D02*
X98256600Y-66905600D01*
X102272800Y-84205600D02*
X102272800Y-83521800D01*
X102452400Y-77000100D02*
X102452400Y-69168100D01*
X102190700Y-77261800D02*
X102452400Y-77000100D01*
X102190700Y-83439700D02*
X102190700Y-77261800D01*
X102272800Y-83521800D02*
X102190700Y-83439700D01*
X100108200Y-69249900D02*
X99786200Y-69571900D01*
X100108200Y-68409700D02*
X100108200Y-69249900D01*
X99706100Y-68007600D02*
X100108200Y-68409700D01*
X98955400Y-68007600D02*
X99706100Y-68007600D01*
X98256600Y-67308800D02*
X98955400Y-68007600D01*
X98256600Y-66905600D02*
X98256600Y-67308800D01*
%TO.N,VA2*%
X101472800Y-84205600D02*
X101472800Y-83521800D01*
X97572800Y-66105600D02*
X98256600Y-66105600D01*
X100051500Y-73183900D02*
X100051500Y-74009500D01*
X100652200Y-72583200D02*
X100051500Y-73183900D01*
X100652200Y-70148100D02*
X100652200Y-72583200D01*
X100617400Y-70113300D02*
X100652200Y-70148100D01*
X100617400Y-68219500D02*
X100617400Y-70113300D01*
X100109800Y-67711900D02*
X100617400Y-68219500D01*
X100109800Y-67467200D02*
X100109800Y-67711900D01*
X98748200Y-66105600D02*
X100109800Y-67467200D01*
X98256600Y-66105600D02*
X98748200Y-66105600D01*
X101671900Y-83322700D02*
X101671900Y-75856100D01*
X101472800Y-83521800D02*
X101671900Y-83322700D01*
%TO.N,VA3*%
X97572800Y-65305600D02*
X98256600Y-65305600D01*
X100672800Y-84205600D02*
X100672800Y-83521800D01*
X100899500Y-73161400D02*
X100721300Y-73339600D01*
X100899500Y-70045700D02*
X100899500Y-73161400D01*
X100864700Y-70010900D02*
X100899500Y-70045700D01*
X100864700Y-68117100D02*
X100864700Y-70010900D01*
X100357100Y-67609500D02*
X100864700Y-68117100D01*
X100357100Y-67331500D02*
X100357100Y-67609500D01*
X98331200Y-65305600D02*
X100357100Y-67331500D01*
X98256600Y-65305600D02*
X98331200Y-65305600D01*
X101088100Y-83106500D02*
X100672800Y-83521800D01*
X101088100Y-75614400D02*
X101088100Y-83106500D01*
X101766800Y-74935700D02*
X101088100Y-75614400D01*
X101825700Y-74935700D02*
X101766800Y-74935700D01*
%TO.N,VA4*%
X99872800Y-84205600D02*
X99872800Y-83521800D01*
X100840800Y-82553800D02*
X99872800Y-83521800D01*
X100840800Y-75095100D02*
X100840800Y-82553800D01*
X102076500Y-73859400D02*
X100840800Y-75095100D01*
X102076500Y-69617700D02*
X102076500Y-73859400D01*
X101853900Y-69395100D02*
X102076500Y-69617700D01*
X101853900Y-68831700D02*
X101853900Y-69395100D01*
X102064800Y-68620800D02*
X101853900Y-68831700D01*
X102064800Y-66515700D02*
X102064800Y-68620800D01*
X100054700Y-64505600D02*
X102064800Y-66515700D01*
X97572800Y-64505600D02*
X100054700Y-64505600D01*
%TD*%
M02*
