M48
; DRILL file {KiCad 7.0.8} date 2024 February 10, Saturday 12:17:20
; FORMAT={-:-/ absolute / metric / decimal}
; #@! TF.CreationDate,2024-02-10T12:17:20+00:00
; #@! TF.GenerationSoftware,Kicad,Pcbnew,7.0.8
; #@! TF.FileFunction,Plated,1,2,PTH
FMAT,2
METRIC
; #@! TA.AperFunction,Plated,PTH,ViaDrill
T1C0.400
%
G90
G05
T1
X98.18Y-63.762
X98.594Y-72.551
X98.599Y-68.864
X98.6Y-70.138
X98.605Y-76.958
X98.613Y-78.928
X98.619Y-81.046
X98.621Y-82.043
X98.858Y-73.986
X98.87Y-75.222
X99.016Y-78.019
X99.102Y-76.149
X99.158Y-67.354
X99.524Y-68.651
X99.556Y-82.221
X99.786Y-69.572
X99.821Y-70.492
X99.927Y-71.66
X100.016Y-65.337
X100.051Y-74.01
X100.432Y-66.222
X100.721Y-73.34
X100.942Y-67.369
X101.672Y-75.856
X101.826Y-74.936
X102.273Y-64.326
X102.452Y-69.168
X102.778Y-79.863
X103.073Y-65.239
X103.374Y-78.326
X103.909Y-77.485
X104.151Y-76.436
X104.673Y-75.156
X106.049Y-73.241
X106.633Y-72.377
X107.283Y-71.163
X108.209Y-70.932
X108.645Y-69.764
X109.566Y-69.764
X109.921Y-68.596
X110.918Y-68.855
X111.503Y-66.994
X111.512Y-68.082
X111.517Y-64.511
T0
M30
